<svg width="32" height="33" viewBox="0 0 32 33" fill="none" xmlns="http://www.w3.org/2000/svg">
<path d="M15.8804 8.86975C15.9855 8.64349 16.067 8.39303 16.0924 8.21798C16.0978 8.17701 16.1014 8.13511 16.1141 8.09415C16.1522 7.95727 16.1721 7.81947 16.1721 7.68074C16.1703 7.61091 16.1812 7.54294 16.2065 7.47403C16.2228 7.434 16.2301 7.3921 16.2301 7.35113C16.2319 7.16398 16.2355 6.97776 16.2283 6.79061C16.2228 6.70867 16.1757 6.62673 16.1757 6.54387C16.1757 6.46193 16.2246 6.37999 16.2301 6.29806C16.2319 6.21519 16.2228 6.13232 16.2029 6.05038C16.1848 5.96752 16.183 5.88465 16.1993 5.80178C16.2391 5.58204 16.2989 5.36323 16.3243 5.14256C16.3424 4.98334 16.4004 4.82785 16.5 4.67608C16.567 4.57832 16.6196 4.47869 16.6594 4.37627C16.6884 4.30178 16.7319 4.22915 16.788 4.15932C16.8949 4.02431 16.9855 3.88744 17.0743 3.74964C17.2591 3.46659 17.4964 3.1947 17.8116 2.94517C18.0743 2.7366 18.3315 2.52524 18.6449 2.33437C18.8623 2.20308 19.0525 2.06063 19.2554 1.92189C19.3533 1.85672 19.4656 1.79526 19.5543 1.72636C19.7826 1.54759 20.0072 1.36696 20.2264 1.18446C20.3043 1.12022 20.3714 1.05225 20.4275 0.981483C20.4909 0.898615 20.5707 0.81854 20.663 0.743122C20.7065 0.70774 20.7391 0.670496 20.7591 0.629527C20.8152 0.507554 20.9275 0.396753 20.9946 0.276641C21.0362 0.200291 21.1322 0.143494 21.25 0.0950768C21.337 0.0587639 21.4982 0.0643508 21.5851 0.104388C21.6993 0.156529 21.7699 0.221706 21.7989 0.299919C21.8351 0.393959 21.8623 0.489863 21.8931 0.584835C21.9058 0.619285 21.9221 0.651874 21.933 0.686325C21.9674 0.795263 22.0018 0.904202 22.0362 1.01314C22.0435 1.04014 22.0326 1.07087 22.0525 1.09508C22.1377 1.20122 22.1178 1.31202 22.1304 1.42189C22.1395 1.50476 22.1449 1.5867 22.183 1.66863C22.2391 1.79061 22.2337 1.91631 22.2283 2.04107C22.2228 2.13791 22.221 2.23288 22.2609 2.32971C22.288 2.40513 22.2844 2.48055 22.25 2.55597C22.2319 2.58949 22.2192 2.62301 22.2156 2.65839C22.2174 2.82506 22.1395 2.98707 22.1159 3.15187C22.1014 3.24219 22.0779 3.33064 22.0417 3.41817C21.9692 3.59415 21.9384 3.77292 21.8406 3.9461C21.7554 4.09135 21.7065 4.24126 21.6377 4.3893C21.6123 4.44983 21.5815 4.51035 21.5417 4.56901C21.3678 4.80923 21.2464 5.0569 21.0906 5.29992C21.0362 5.3921 20.9692 5.48334 20.8931 5.5718C20.721 5.75895 20.5707 5.95169 20.4058 6.1407C20.2264 6.34182 20.0435 6.54107 19.8152 6.73009C19.6703 6.84647 19.5489 6.96938 19.413 7.08949C19.3514 7.14349 19.288 7.19657 19.2192 7.24685C18.8442 7.52524 18.471 7.80457 18.0453 8.06435C17.8895 8.15932 17.7337 8.2543 17.5761 8.34834C17.3025 8.51035 17.0851 8.6947 16.846 8.86975C16.7953 8.91165 16.75 8.95355 16.7101 8.99731C16.6395 9.06435 16.5761 9.13325 16.4982 9.1975C16.4167 9.26919 16.3442 9.34368 16.2826 9.42003C16.1938 9.52338 16.1268 9.6258 16.1395 9.7394C16.1395 9.76733 16.1322 9.79433 16.1159 9.82133C16.096 9.8623 16.0942 9.90327 16.1069 9.94424C16.1413 10.109 16.1576 10.2748 16.154 10.4405C16.1522 10.5029 16.1612 10.5644 16.183 10.6258C16.2101 10.7012 16.2246 10.7766 16.2246 10.853C16.2319 11.0048 16.2464 11.1565 16.2482 11.3092C16.25 11.4545 16.2391 11.5997 16.2355 11.745C16.2301 11.8763 16.2246 12.0076 16.2192 12.1388C16.2156 12.2422 16.2156 12.3465 16.1721 12.448C16.1558 12.4861 16.1467 12.528 16.1993 12.5644C16.2536 12.5522 16.2772 12.5262 16.2953 12.501C16.4565 12.2962 16.5942 12.0867 16.7301 11.8772C16.9692 11.5094 17.2373 11.1481 17.6359 10.8176C17.7772 10.6994 17.9058 10.5783 18.038 10.4573C18.308 10.2096 18.6141 9.97403 18.9565 9.7515C19.1793 9.60439 19.4438 9.47403 19.7011 9.34368C19.75 9.31947 19.8043 9.29899 19.8514 9.27385C20.2355 9.06994 20.6486 8.88279 21.0906 8.71146C21.2192 8.66118 21.3388 8.60532 21.4493 8.5448C21.6449 8.43958 21.8696 8.3502 22.0815 8.25523C22.2536 8.17795 22.442 8.11091 22.6214 8.03828C22.7083 8.00476 22.7917 7.97031 22.8732 7.93493C22.9656 7.89489 23.0652 7.85765 23.1413 7.81016C23.2174 7.76267 23.2681 7.70495 23.3297 7.65187C23.3605 7.62115 23.3949 7.59135 23.433 7.56342C23.6105 7.44889 23.721 7.31388 23.8569 7.18819C24.0489 7.01966 24.1848 6.83996 24.2681 6.65001C24.2862 6.60253 24.3134 6.55597 24.3406 6.50942C24.3841 6.42282 24.4438 6.33809 24.5199 6.25709C24.6431 6.13511 24.7174 6.0001 24.8659 5.88372C25.0072 5.6947 25.2554 5.53642 25.4366 5.35951C25.6594 5.22915 25.8315 5.08204 25.9837 4.92655C26.0362 4.87161 26.125 4.82599 26.1957 4.77571C26.25 4.7366 26.3098 4.69843 26.3551 4.65653C26.4239 4.59694 26.5018 4.54014 26.5888 4.488C26.6485 4.45076 26.7029 4.41165 26.7572 4.37161C26.8496 4.30271 26.962 4.24405 27.096 4.19564C27.1812 4.16491 27.3315 4.19098 27.3659 4.24219C27.413 4.31482 27.4583 4.38744 27.4583 4.46472C27.4583 4.65094 27.4638 4.83809 27.4493 5.02431C27.4366 5.13604 27.3877 5.24312 27.3007 5.34461C27.192 5.47869 27.0815 5.61277 26.9692 5.74591C26.9348 5.79061 26.8931 5.83344 26.8442 5.87534C26.5924 6.07925 26.337 6.28223 26.0815 6.48614C26.0543 6.51035 26.0254 6.53269 25.9909 6.55504C25.7047 6.72543 25.5435 6.9312 25.3714 7.13325C25.2699 7.25336 25.1957 7.37999 25.0996 7.50197C24.9928 7.63418 24.8786 7.76733 24.7627 7.89955C24.5906 8.09508 24.4402 8.29433 24.346 8.50383C24.3116 8.5839 24.2518 8.66212 24.2029 8.74126C24.1178 8.87906 24.0199 9.01593 23.9511 9.1556C23.8388 9.38372 23.6576 9.60159 23.567 9.83158C23.5652 9.83902 23.5598 9.84554 23.5562 9.85206C23.3207 10.1752 23.1051 10.5029 22.7283 10.7943C22.5725 10.9144 22.4457 11.0448 22.3043 11.1705C22.1721 11.2915 22.0217 11.4061 21.8514 11.5131C21.7663 11.5671 21.6775 11.6193 21.5996 11.6761C21.3967 11.8232 21.1576 11.9536 20.9058 12.0792C20.6957 12.1863 20.4873 12.2943 20.2808 12.4033C20.2645 12.4144 20.2518 12.4265 20.2446 12.4396C20.2391 12.4461 20.2391 12.4517 20.2446 12.4582C20.2536 12.4638 20.2645 12.4675 20.279 12.4684C20.3043 12.4722 20.3315 12.4731 20.3587 12.4712C20.6884 12.4265 21.0254 12.4377 21.3623 12.4303C21.5362 12.4265 21.712 12.4293 21.8877 12.4303C21.9402 12.4303 22 12.4256 22.0471 12.4349C22.2283 12.4684 22.3841 12.4424 22.5453 12.3968C22.9692 12.2766 23.4004 12.163 23.8043 12.0252C24.1178 11.9182 24.4457 11.8223 24.7446 11.7049C24.9275 11.6333 25.1232 11.5718 25.3116 11.5066C25.7138 11.367 26.0906 11.2105 26.4837 11.0653C26.7572 10.9638 27 10.8446 27.25 10.7292C27.4004 10.6612 27.5236 10.5765 27.6467 10.4954C27.8188 10.3809 27.9837 10.2627 28.1522 10.1454C28.1685 10.1351 28.183 10.1239 28.1957 10.1109C28.317 9.96565 28.5616 9.87441 28.7699 9.76733C28.8062 9.74871 28.8605 9.73847 28.9094 9.72636C28.9692 9.71053 29.0906 9.72636 29.1286 9.75523C29.279 9.86789 29.3641 9.98893 29.2917 10.1267C29.2536 10.2012 29.2482 10.2766 29.2355 10.3521C29.2011 10.5243 29.1359 10.6938 29.0362 10.8586C28.9601 10.9917 28.8931 11.1239 28.8225 11.258C28.7754 11.3521 28.7192 11.4442 28.654 11.5355C28.4819 11.7748 28.3043 12.0131 28.1268 12.2524C28.0942 12.2971 28.0616 12.3427 28.0217 12.3865C27.7446 12.6938 27.5036 13.0094 27.1812 13.3055C27.1739 13.3111 27.1703 13.3185 27.1649 13.3241C27.1268 13.3688 27.1467 13.4089 27.2174 13.4331C27.3841 13.4927 27.5616 13.542 27.75 13.5811C27.875 13.6072 27.9928 13.6388 28.1069 13.6761C28.3949 13.7655 28.6757 13.8604 28.962 13.9508C29.212 14.0299 29.442 14.1286 29.6757 14.2208C29.9004 14.3092 30.1322 14.394 30.3406 14.4908C30.7699 14.6891 31.2192 14.8791 31.5453 15.1295C31.6793 15.2329 31.808 15.3381 31.9348 15.4442C31.9601 15.4684 31.9764 15.4945 31.9855 15.5215C31.9928 15.5429 31.9855 15.5625 31.962 15.5811C31.9402 15.5988 31.9076 15.6109 31.8678 15.6165C31.788 15.6249 31.7083 15.6305 31.6286 15.6314C31.3696 15.6314 31.1214 15.6007 30.875 15.5634C30.6178 15.5243 30.3641 15.4778 30.1087 15.4359C29.6214 15.3558 29.1395 15.2664 28.6649 15.1686C28.5652 15.1472 28.4638 15.1323 28.3569 15.1221C28.2246 15.1081 28.096 15.0904 27.9674 15.0699C27.5652 15.0094 27.1594 14.9666 26.7391 14.9619C26.538 14.9591 26.3351 14.9591 26.1359 14.934C26.0707 14.9265 26.0036 14.9238 25.9366 14.9265C25.6087 14.9331 25.2917 14.9061 24.9783 14.8642C24.8261 14.8418 24.6866 14.8549 24.558 14.9033C24.5145 14.9191 24.471 14.9349 24.4257 14.9517C24.1522 15.0532 23.8496 15.1277 23.5417 15.1984C23.3949 15.2329 23.2446 15.2636 23.0978 15.299C22.817 15.3651 22.5362 15.4312 22.2591 15.5029C21.9946 15.5699 21.7355 15.6435 21.471 15.7133C21.3768 15.7385 21.2826 15.7673 21.1812 15.7841C21.0145 15.8139 20.8569 15.8511 20.7047 15.8968C20.4475 15.9703 20.1884 16.0448 19.9257 16.1146C19.7826 16.1528 19.6522 16.2031 19.5163 16.2478C19.3804 16.2934 19.2464 16.34 19.1069 16.3809C18.4964 16.5578 17.9275 16.7655 17.3406 16.9619C16.913 17.1072 16.5235 17.2766 16.1757 17.4703C15.8985 17.6211 15.6413 17.7804 15.4565 17.9675C15.3514 18.0718 15.2319 18.1724 15.1196 18.2748C15.0725 18.3176 15.0471 18.3632 15.0417 18.4116C15.029 18.5224 15.0036 18.6333 14.9855 18.7422C14.9837 18.7701 14.9837 18.7971 14.9855 18.8251C14.9855 18.8455 15.0036 18.867 14.9964 18.8865C14.9312 19.0355 14.9565 19.1891 14.8931 19.3381C14.8496 19.4396 14.817 19.5411 14.7699 19.6416C14.7446 19.6956 14.7319 19.7506 14.712 19.8046C14.6485 19.9954 14.6087 20.1882 14.558 20.3791C14.5199 20.5299 14.4638 20.6789 14.4384 20.8306C14.4185 20.961 14.3623 21.0904 14.3261 21.2198C14.2917 21.3427 14.2572 21.4657 14.2319 21.5895C14.2047 21.7133 14.2029 21.8372 14.1485 21.9601C14.1395 21.9871 14.1377 22.015 14.1449 22.042C14.1449 22.0522 14.1667 22.0606 14.1812 22.069C14.1938 22.0681 14.2047 22.0644 14.2138 22.0588C14.3333 21.9349 14.4891 21.8223 14.6196 21.7012C14.8351 21.502 15.0797 21.312 15.3514 21.1314C15.3696 21.1202 15.3859 21.109 15.4004 21.0979C15.5996 20.9154 15.8877 20.7673 16.163 20.6165C16.3551 20.5103 16.5906 20.4284 16.8424 20.3604C17.0453 20.3055 17.2482 20.2515 17.4529 20.2003C17.8043 20.1118 18.1703 20.0457 18.5453 19.9871C19.1884 19.8856 19.8442 19.8074 20.4964 19.7254C20.6395 19.7077 20.7862 19.6947 20.9293 19.6761C21.0127 19.6668 21.0761 19.6444 21.125 19.6081C21.3261 19.461 21.5181 19.312 21.7083 19.1621C21.8551 19.0457 22.0199 18.9368 22.1757 18.8232C22.2482 18.7738 22.317 18.7226 22.3804 18.6696C22.4909 18.5653 22.6286 18.4722 22.7935 18.3893C22.8315 18.3697 22.8659 18.3483 22.8985 18.326C23.0761 18.2133 23.2428 18.096 23.433 17.9889C23.6576 17.8595 23.9094 17.745 24.1866 17.6463C24.2844 17.6118 24.3877 17.6062 24.4964 17.6286C24.6612 17.6593 24.7699 17.7152 24.7862 17.8083C24.7953 17.8567 24.8043 17.9051 24.8062 17.9535C24.8116 18.0364 24.8043 18.1193 24.8406 18.2012C24.8496 18.2143 24.8533 18.2282 24.8496 18.2413C24.7971 18.3316 24.8207 18.4182 24.8605 18.5066C24.8641 18.5141 24.8641 18.5206 24.8587 18.5271C24.7663 18.6603 24.8261 18.8018 24.7446 18.9359C24.6848 19.0346 24.6993 19.1416 24.7083 19.2459C24.712 19.2785 24.7464 19.2953 24.8098 19.2971C25.1087 19.2915 25.3967 19.2571 25.6848 19.2236C25.8804 19.2003 26.0725 19.1686 26.2681 19.1407C26.3188 19.1323 26.3714 19.1258 26.4239 19.1211C26.817 19.096 27.1757 19.0187 27.5344 18.9387C27.6558 18.9098 27.779 18.8837 27.9058 18.8623C28.2681 18.8027 28.5978 18.7077 28.9293 18.6165C29.2862 18.5197 29.6341 18.4144 29.9855 18.313C30.0797 18.285 30.1739 18.2589 30.2627 18.2282C30.433 18.1714 30.6087 18.1202 30.7899 18.0755C30.9221 18.0411 31.0489 18.002 31.1775 17.9638C31.3351 17.9182 31.5036 17.8995 31.683 17.9098C31.7246 17.9116 31.7609 17.9182 31.7953 17.9293C31.8243 17.9414 31.8678 17.9647 31.8605 17.9787C31.8243 18.0653 31.8351 18.1565 31.7609 18.2413C31.6812 18.3362 31.625 18.4368 31.5417 18.5308C31.3533 18.745 31.1522 18.9563 30.9565 19.1686C30.8333 19.3074 30.6757 19.4349 30.4837 19.5522C30.346 19.637 30.2156 19.7254 30.0797 19.8111C30.0344 19.8372 29.9873 19.8614 29.9366 19.8837C29.7591 19.9684 29.5725 20.0485 29.4022 20.137C29.1449 20.272 28.8496 20.3781 28.5362 20.474C27.9094 20.664 27.2591 20.8316 26.6014 20.9899C26.3225 21.0588 26.0308 21.1128 25.7301 21.1519C25.5471 21.1742 25.3696 21.2068 25.1902 21.2366C24.8841 21.2887 24.5761 21.3372 24.2536 21.3623C24.1486 21.3716 24.0453 21.3856 23.9438 21.4042C23.9094 21.4098 23.8859 21.4303 23.8587 21.4452C23.8496 21.4508 23.846 21.4573 23.846 21.4647C23.8243 21.5969 23.7246 21.7171 23.6485 21.8427C23.567 21.9731 23.4583 22.0997 23.3949 22.2347C23.3659 22.2934 23.308 22.3502 23.2572 22.4061C23.1123 22.5616 22.9583 22.7161 22.8134 22.8707C22.6322 23.0653 22.4185 23.2478 22.1685 23.421C21.7663 23.6984 21.3442 23.9657 20.9312 24.2394C20.6485 24.4256 20.3279 24.5932 20.0036 24.758C19.7754 24.8744 19.5417 24.9899 19.3134 25.1072C19.2174 25.1565 19.1123 25.1994 18.9964 25.2357C18.8931 25.2683 18.7935 25.3036 18.692 25.3362C18.4638 25.4107 18.2428 25.4889 18.0453 25.5848C17.9257 25.6407 17.7935 25.6873 17.6467 25.7236C17.3207 25.8055 17.0091 25.9014 16.7138 26.0094C16.6341 26.0364 16.5543 26.0606 16.4692 26.083C16.1993 26.1603 15.9275 26.2366 15.6576 26.3148C15.5761 26.3381 15.4982 26.3651 15.4185 26.3912C15.2047 26.4629 14.9909 26.5355 14.779 26.6081C14.7246 26.6286 14.6685 26.6472 14.6087 26.6649C14.0743 26.8008 13.6341 27.0076 13.1649 27.191C12.7591 27.394 12.3533 27.596 11.9493 27.799C11.8007 27.8735 11.7011 27.9619 11.6485 28.0643C11.6033 28.1435 11.5417 28.2208 11.4928 28.2999C11.4185 28.4191 11.3152 28.5308 11.1793 28.6351C11.1449 28.6649 11.1178 28.6966 11.096 28.7292C11.0924 28.7329 11.1014 28.7422 11.1105 28.7459C11.1196 28.7487 11.1304 28.7496 11.1413 28.7468C11.1938 28.7254 11.2536 28.7059 11.2917 28.6789C11.4348 28.5783 11.6141 28.4936 11.7844 28.4051C11.8225 28.3856 11.8605 28.366 11.8985 28.3465C12.1685 28.2012 12.442 28.0578 12.788 27.9582C13.1232 27.8195 13.4873 27.7003 13.8388 27.5727C14.0254 27.5038 14.2101 27.4377 14.4293 27.3968C14.4928 27.3837 14.5507 27.367 14.6087 27.3483C15.0924 27.1966 15.6051 27.0755 16.1431 26.9843C16.5634 26.9117 16.9764 26.8269 17.4112 26.7757C17.6612 26.7468 17.904 26.7059 18.1558 26.6817C18.3533 26.6621 18.5525 26.6519 18.7518 26.6314C18.9873 26.6072 19.2246 26.5848 19.4692 26.5792C19.5616 26.5774 19.6522 26.5616 19.7446 26.5522C19.904 26.5373 20.0598 26.5206 20.2192 26.5085C20.3659 26.4936 20.5109 26.4833 20.6594 26.4778C20.9819 26.4694 21.2953 26.4256 21.6196 26.4144C21.8587 26.4051 22.0978 26.3846 22.3388 26.3725C22.5797 26.3604 22.8152 26.3279 23.0525 26.3055C23.1721 26.2953 23.2935 26.2906 23.4112 26.2776C23.5833 26.2608 23.7536 26.2431 23.9239 26.2254C24.1467 26.2012 24.3696 26.1724 24.6014 26.1752C24.6975 26.1742 24.7899 26.1658 24.8786 26.1509C25.1123 26.1165 25.3424 26.0774 25.5725 26.0401C25.817 26.001 26.0616 25.9638 26.3043 25.9238C26.433 25.9033 26.5598 25.8791 26.6812 25.8511C27.0235 25.7701 27.375 25.7012 27.7319 25.637C27.8587 25.6146 27.9801 25.5839 28.1051 25.5597C28.6087 25.4619 29.1123 25.367 29.625 25.2804C29.7953 25.2496 29.9674 25.2468 30.1413 25.2711C30.2772 25.2878 30.3533 25.3316 30.3714 25.4014C30.4076 25.4936 30.3859 25.5811 30.3062 25.6649C30.1594 25.812 30.0145 25.961 29.8551 26.1053C29.7681 26.1826 29.6504 26.2506 29.5489 26.3241C29.2373 26.5495 28.8967 26.7636 28.558 26.9787C28.3732 27.096 28.1522 27.2003 27.9348 27.3027C27.6413 27.4359 27.3261 27.5532 26.9873 27.6537C26.8478 27.6966 26.7138 27.7431 26.5851 27.7934C26.2935 27.9051 25.9909 28.0076 25.6576 28.0858C25.5725 28.1053 25.4946 28.1323 25.4094 28.1547C25.2301 28.2012 25.0507 28.2496 24.8678 28.2925C24.2917 28.4275 23.7083 28.5522 23.1196 28.6714C22.3043 28.8353 21.462 28.9526 20.6123 29.0597C20.3895 29.0876 20.1649 29.11 19.9402 29.1314C19.8351 29.1426 19.7283 29.1491 19.6214 29.1509C19.1902 29.1556 18.7609 29.1603 18.3297 29.1593C17.7772 29.1575 17.2264 29.1528 16.6739 29.1472C16.5 29.1454 16.3225 29.1491 16.1522 29.1258C15.6413 29.1221 15.1322 29.1025 14.6196 29.1388C14.2337 29.1658 13.8496 29.1975 13.4746 29.2543C13.3062 29.2785 13.1359 29.2971 12.962 29.3102C12.7228 29.3316 12.4909 29.366 12.2663 29.4135C12.0525 29.4554 11.8406 29.4982 11.6196 29.5308C11.192 29.596 10.7971 29.6994 10.4058 29.8083L9.87319 29.9554C9.72645 29.9936 9.60688 30.0467 9.51268 30.1156C9.38406 30.2124 9.23007 30.3008 9.08514 30.3912C8.96558 30.4657 8.83696 30.5364 8.72282 30.6137C8.48007 30.7785 8.2029 30.9303 7.94927 31.0914C7.93116 31.1016 7.91304 31.1118 7.89311 31.1221C7.375 31.393 6.85507 31.664 6.33695 31.9349C6.25181 31.9815 6.15217 32.0159 6.03623 32.0364C5.98369 32.0457 5.93116 32.0457 5.87862 32.0364C5.73732 32.0122 5.69927 31.948 5.79166 31.8921C5.84601 31.8614 5.90398 31.8316 5.95833 31.8018C6.02355 31.7664 6.09782 31.7357 6.15217 31.6956C6.27536 31.6044 6.42391 31.5252 6.59782 31.4582C6.63949 31.4424 6.66848 31.4172 6.70471 31.3968C6.77717 31.3567 6.84239 31.3102 6.92753 31.2776C7.06884 31.2217 7.16485 31.1444 7.30072 31.0895C7.42935 31.0373 7.51811 30.9666 7.63406 30.9098C7.98732 30.7385 8.2663 30.5336 8.60688 30.3558C8.77536 30.2673 8.91304 30.164 9.05616 30.0634C9.3279 29.8753 9.59239 29.6835 9.86594 29.4954C9.94746 29.4387 9.99638 29.3744 10.0616 29.3148C10.0797 29.2962 10.0906 29.2766 10.0906 29.2552C10.0924 29.1249 10.0888 28.9936 9.98913 28.8698C9.97283 28.8502 9.96014 28.8306 9.9529 28.8102C9.88225 28.5765 9.70109 28.3595 9.5471 28.1388C9.48188 28.0401 9.39674 27.947 9.29348 27.8576C9.20833 27.7869 9.14855 27.7096 9.07609 27.6351C9.02174 27.5792 8.97282 27.5225 8.91304 27.4684C8.63043 27.217 8.32971 26.9712 8.00906 26.7319C7.75181 26.5383 7.48913 26.3455 7.25724 26.1426C6.98551 25.9042 6.71195 25.6658 6.50181 25.4107C6.45471 25.3539 6.39493 25.2999 6.37681 25.2357C6.36594 25.2087 6.34601 25.1835 6.32065 25.1593C6.23732 25.0718 6.15942 24.9843 6.12138 24.8884C6.10869 24.8614 6.09058 24.8353 6.06522 24.8102C5.84239 24.5653 5.69384 24.3064 5.53985 24.0495C5.42029 23.8521 5.30978 23.6528 5.20471 23.4526C5.15761 23.366 5.13043 23.2776 5.0942 23.19C5.03261 23.0485 4.9692 22.907 4.91123 22.7655C4.85869 22.637 4.81159 22.5085 4.76811 22.3791C4.72101 22.2431 4.68116 22.1072 4.63768 21.9712C4.63043 21.9573 4.62681 21.9442 4.62319 21.9303C4.61232 21.7571 4.53261 21.5886 4.52355 21.4144C4.51811 21.3111 4.50362 21.2077 4.47645 21.1053C4.45471 21.0243 4.47464 20.9396 4.48188 20.8576C4.48551 20.7953 4.49637 20.7329 4.51268 20.6714C4.53261 20.609 4.49819 20.5643 4.38949 20.5327C4.17753 20.4712 3.98732 20.3921 3.80253 20.3139C3.59239 20.2273 3.39311 20.136 3.23188 20.0225C3.07971 19.9172 2.90398 19.8213 2.74094 19.7198C2.28079 19.4312 1.83877 19.1351 1.44746 18.8213C1.16666 18.5932 0.927535 18.3539 0.73007 18.1025C0.545288 17.866 0.36594 17.6277 0.20652 17.3856C0.134056 17.2804 0.0869546 17.1733 0.067027 17.0625C0.0597806 17.0076 0.0289835 16.9545 0.0144907 16.8995C-2.02267e-06 16.8576 0.0108675 16.8167 0.0470994 16.7785C0.0905777 16.7338 0.170288 16.7152 0.242752 16.7375C0.313404 16.7571 0.380433 16.7804 0.443839 16.8055C0.586955 16.8688 0.724636 16.9349 0.885868 16.9861C0.920288 16.9973 0.951085 17.0103 0.980071 17.0252C1.25906 17.1873 1.61413 17.3018 1.95471 17.4247C2.15217 17.4964 2.34601 17.5727 2.54529 17.6426C2.75543 17.7161 2.96377 17.7934 3.19927 17.8483C3.4692 17.9107 3.71558 17.9954 3.96739 18.0737C4.17572 18.1388 4.38043 18.204 4.58877 18.2673C4.78623 18.3279 4.99275 18.3772 5.21014 18.4163C5.48913 18.4657 5.76087 18.5271 6.02898 18.5904C6.32427 18.6593 6.62319 18.7198 6.92753 18.7738C7.30072 18.839 7.63587 18.9424 7.97645 19.0401C8.02355 19.0532 8.07246 19.0625 8.12319 19.0699C8.15217 19.0746 8.18659 19.0643 8.18478 19.0495C8.16848 18.9675 8.15942 18.8846 8.12319 18.8046C8.03261 18.61 7.98188 18.4116 7.91304 18.2143C7.875 18.1053 7.86232 17.9954 7.82609 17.8865C7.7663 17.7031 7.73551 17.5169 7.66848 17.3334C7.63043 17.2385 7.57427 17.1472 7.5 17.0578C7.41304 16.9489 7.31159 16.8437 7.21377 16.7375C7.18478 16.6984 7.14855 16.6612 7.10688 16.6258C6.94384 16.5066 6.86232 16.3642 6.70652 16.2431C6.67029 16.2143 6.65398 16.1798 6.62681 16.1481C6.56522 16.0792 6.50543 16.0094 6.44203 15.9405C6.35326 15.8474 6.2663 15.7552 6.21377 15.6537C6.18478 15.6007 6.13224 15.5513 6.08877 15.501C6.02536 15.4247 5.96377 15.3483 5.89311 15.2738C5.66304 15.0346 5.60688 14.772 5.51087 14.515C5.49456 14.4675 5.50362 14.4182 5.49819 14.3698C5.48551 14.2664 5.5634 14.1798 5.67753 14.1016C5.77174 14.0373 5.89311 13.9982 6.04529 13.9824C6.07246 13.9806 6.09782 13.9833 6.12319 13.9899C6.14674 13.9954 6.16848 14.0029 6.18659 14.0131C6.34782 14.1072 6.5 14.2049 6.59782 14.3195C6.75724 14.5103 6.90761 14.7031 7.06159 14.8949C7.07246 14.907 7.07971 14.921 7.08514 14.934C7.21558 15.2375 7.42029 15.5308 7.51449 15.8381C7.51811 15.8595 7.52717 15.8791 7.54167 15.8986C7.69022 16.0541 7.72645 16.2319 7.93116 16.3744C7.94022 16.38 7.94565 16.3856 7.95109 16.3921C8.04167 16.5411 8.24275 16.6556 8.41123 16.7794C8.50362 16.8474 8.59964 16.9144 8.69203 16.9824C9.00362 17.2171 9.33514 17.4424 9.73188 17.6416C9.7808 17.6649 9.82246 17.6919 9.86594 17.7189C10.038 17.8251 10.2228 17.9256 10.4221 18.0187C10.5453 18.0737 10.6504 18.136 10.7409 18.2059C10.8098 18.2571 10.8859 18.3046 10.9692 18.3502C11.1504 18.4517 11.3116 18.5616 11.4529 18.6789C11.4946 18.7143 11.5417 18.7478 11.596 18.7785C11.7681 18.8781 11.8986 18.9899 11.9873 19.1146C12.0399 19.1863 12.1033 19.2543 12.1793 19.3195C12.2699 19.3977 12.3406 19.4787 12.3949 19.5644C12.4656 19.6761 12.538 19.7878 12.6123 19.8986C12.6467 19.9508 12.6721 20.0048 12.6884 20.0588C12.7192 20.1612 12.7536 20.2636 12.846 20.3576C12.9004 20.4144 12.9167 20.4759 12.942 20.5364C13.0163 20.7049 13.0906 20.8735 13.096 21.0476C13.096 21.0951 13.1159 21.1435 13.125 21.191C13.1359 21.2394 13.1485 21.2869 13.154 21.3353C13.1703 21.4731 13.1775 21.61 13.2138 21.7478C13.25 21.8856 13.2373 22.0234 13.2428 22.1621C13.2482 22.2934 13.2518 22.4247 13.2554 22.556C13.2536 22.5839 13.2554 22.6109 13.2645 22.6388C13.3297 22.7897 13.2844 22.9405 13.2699 23.0923C13.2591 23.1882 13.2391 23.285 13.3025 23.3781C13.308 23.3874 13.3424 23.393 13.3659 23.3986C13.3696 23.3986 13.3822 23.3902 13.3895 23.3856C13.3967 23.38 13.4004 23.3735 13.404 23.366C13.4275 23.2915 13.4511 23.217 13.4746 23.1416C13.5091 23.0262 13.5308 22.9079 13.5833 22.7943C13.6341 22.6798 13.6467 22.5625 13.6558 22.4452C13.6612 22.3623 13.6649 22.2794 13.7101 22.1984C13.7337 22.1509 13.7464 22.1035 13.7464 22.055C13.7554 21.9089 13.8116 21.7673 13.8587 21.6239C13.9167 21.4545 13.9946 21.285 13.9837 21.1109C13.9801 21.0625 13.9909 21.0141 14.0127 20.9666C14.0906 20.7915 14.1268 20.6137 14.183 20.4359C14.192 20.4079 14.1993 20.3809 14.2011 20.353C14.212 20.1249 14.3062 19.9014 14.3659 19.6752C14.4348 19.4089 14.5199 19.1435 14.5507 18.8744C14.5562 18.84 14.5725 18.8064 14.5833 18.772C14.5978 18.7245 14.6178 18.6761 14.6232 18.6286C14.6504 18.4275 14.6377 18.4117 14.4221 18.2403C14.2917 18.136 14.1721 18.028 14.0453 17.9219C13.9058 17.8036 13.7663 17.6863 13.625 17.5681C13.587 17.5401 13.5525 17.5103 13.5217 17.4796C13.3641 17.3018 13.1431 17.1435 12.913 16.9917C12.6721 16.8334 12.4529 16.6677 12.221 16.5076C12.1975 16.4899 12.1739 16.474 12.1467 16.4582C11.8424 16.3092 11.6304 16.123 11.3659 15.9573C11.2409 15.8753 11.1359 15.7878 11.0471 15.6947C10.9004 15.5467 10.7337 15.4051 10.5471 15.2692C10.4457 15.1956 10.3533 15.1193 10.2536 15.0457C10.1467 14.9666 10.038 14.8874 9.9221 14.8102C9.79167 14.7226 9.64311 14.6407 9.51811 14.5513C9.3279 14.4154 9.0942 14.3009 8.85145 14.1919C8.49819 14.0318 8.15761 13.8651 7.82065 13.6956C7.51268 13.5411 7.21195 13.3828 6.91304 13.2245C6.78261 13.1547 6.66485 13.0792 6.54166 13.0057C6.48913 12.974 6.44203 12.9405 6.38768 12.9098C6.1721 12.786 5.9529 12.6649 5.74275 12.5383C5.39311 12.3288 5.0471 12.1184 4.74819 11.8865C4.49637 11.691 4.22464 11.502 3.98007 11.3036C3.80797 11.163 3.63224 11.0234 3.46739 10.8819C3.25543 10.6956 3.08333 10.501 2.9529 10.2971C2.85869 10.1537 2.8134 10.002 2.75181 9.85392C2.71014 9.75243 2.6884 9.64815 2.63224 9.54945C2.56522 9.434 2.66304 9.34834 2.78261 9.26267C2.81522 9.24033 2.875 9.23381 2.92935 9.23567C2.9692 9.2366 3.00724 9.24126 3.04348 9.25057C3.36413 9.33902 3.66666 9.44331 3.94927 9.56156C3.96014 9.56528 3.9692 9.56994 3.97645 9.57646C4.16304 9.71333 4.45833 9.79713 4.64674 9.93307C4.67572 9.95541 4.72464 9.97124 4.76449 9.98893C4.94746 10.0718 5.12681 10.1547 5.27174 10.2552C5.30253 10.2785 5.33877 10.299 5.38043 10.3176C5.56884 10.3968 5.71558 10.4954 5.88587 10.5839C6.13949 10.718 6.39493 10.8502 6.65036 10.9833C6.83877 11.082 7.01993 11.1845 7.19565 11.2878C7.61594 11.5318 8.06522 11.7608 8.54348 11.974C8.55253 11.9787 8.56522 11.9824 8.57427 11.9871C9.12681 12.2608 9.75 12.4936 10.2971 12.7701C10.6884 12.9293 11.0326 13.1146 11.3859 13.2953C11.5036 13.3521 11.6033 13.4172 11.6848 13.4889C11.8297 13.6211 12.0163 13.7413 12.192 13.8632C12.2518 13.9005 12.3043 13.9396 12.3533 13.9815C12.4656 14.0923 12.5906 14.1984 12.7283 14.3009C12.8605 14.4051 12.9746 14.515 13.067 14.6305C13.1377 14.7124 13.2011 14.7971 13.2862 14.8744C13.3986 14.9778 13.4819 15.0867 13.5743 15.1938C13.5888 15.2059 13.5996 15.218 13.6087 15.231C13.7355 15.4722 13.9475 15.6966 14.0924 15.934C14.1612 16.0457 14.2373 16.1575 14.2844 16.272C14.3949 16.528 14.5507 16.7785 14.6377 17.0383C14.6413 17.0467 14.6721 17.056 14.6957 17.0588C14.7301 17.0634 14.75 17.056 14.7518 17.0373C14.7645 17.0103 14.7735 16.9833 14.7772 16.9563C14.7862 16.8251 14.7953 16.6938 14.7989 16.5616C14.8043 16.4442 14.7935 16.3269 14.8496 16.2115C14.8678 16.1714 14.8587 16.1286 14.8659 16.0876C14.8822 15.9843 14.875 15.88 14.9293 15.7776C14.9402 15.758 14.9438 15.7375 14.9438 15.7161C14.9438 15.5634 15.0362 15.4163 15.0507 15.2645C15.1848 14.8884 15.1938 14.5085 15.1884 14.1286C15.1902 14.1072 15.1884 14.0867 15.1812 14.0662C15.1014 13.9042 15.1286 13.7366 15.0761 13.5727C15.0688 13.5597 15.0616 13.5457 15.058 13.5327C15.0453 13.2673 14.8859 13.0159 14.779 12.7599C14.6612 12.4759 14.5236 12.1947 14.3949 11.9126C14.3895 11.8921 14.3804 11.8716 14.3659 11.8521C14.2083 11.6826 14.1467 11.4982 14.0435 11.3195C13.9873 11.2198 13.9185 11.1221 13.8351 11.028C13.7373 10.9219 13.6612 10.8111 13.5833 10.7012C13.4891 10.5644 13.3768 10.4312 13.2428 10.3036C13.1866 10.2562 13.1413 10.2059 13.1051 10.1537C12.9801 9.94145 12.7699 9.74685 12.6141 9.54107C12.5743 9.48986 12.5399 9.43772 12.5109 9.38465C12.462 9.28502 12.4203 9.18353 12.3442 9.0867C12.2754 8.99824 12.2301 8.90327 12.1685 8.81202C12.0598 8.64908 11.9783 8.48148 11.8859 8.31575C11.8678 8.28223 11.8641 8.24685 11.8442 8.21426C11.7319 8.03549 11.6884 7.85113 11.6377 7.66677C11.6214 7.61184 11.596 7.55783 11.5743 7.50476C11.4982 7.32226 11.4167 7.1407 11.3967 6.95355C11.3913 6.9191 11.3804 6.88465 11.3678 6.85113C11.3587 6.82413 11.3333 6.79713 11.3333 6.77012C11.3225 6.50755 11.2264 6.24964 11.2228 5.98521C11.2156 5.54387 11.2446 5.10066 11.2428 4.65839C11.2409 4.37441 11.2373 4.09135 11.2337 3.8083C11.2319 3.71798 11.2174 3.6286 11.1902 3.54014C11.1467 3.40234 11.1341 3.26454 11.1522 3.12487C11.1576 3.10532 11.1667 3.08483 11.1793 3.06528C11.1902 3.04666 11.2826 3.02059 11.3134 3.0299C11.5942 3.10159 11.846 3.19191 12.0163 3.32971C12.096 3.39396 12.1757 3.45821 12.2446 3.52524C12.462 3.73102 12.6775 3.93865 12.8859 4.14815C13.0018 4.26454 13.125 4.37999 13.2011 4.50662C13.3659 4.65094 13.4493 4.81202 13.5688 4.96565C13.6884 5.11928 13.8225 5.27105 13.913 5.43027C13.9402 5.47683 13.9873 5.51873 14.0235 5.56435C14.279 5.89117 14.4819 6.22729 14.6975 6.56249C14.7482 6.6407 14.7917 6.72078 14.8261 6.80178C14.8841 6.93027 14.9583 7.05597 15.0489 7.17888C15.1087 7.26267 15.1594 7.34834 15.1993 7.43586C15.279 7.60346 15.3696 7.77012 15.4547 7.93679C15.4746 7.97031 15.4891 8.00383 15.5 8.03828C15.5616 8.24312 15.6377 8.4461 15.7319 8.64722C15.7572 8.70029 15.7645 8.75616 15.7899 8.81016C15.8025 8.82971 15.8225 8.8474 15.8496 8.86323C15.8514 8.86696 15.8696 8.86789 15.8804 8.86975ZM7.88406 21.3856C7.88768 21.3986 7.89311 21.4126 7.90217 21.4256C8.02717 21.5858 8.14311 21.7478 8.29167 21.9033C8.37862 21.9964 8.45652 22.0923 8.54167 22.1854C8.65217 22.3046 8.70652 22.4331 8.78442 22.5578C8.91304 22.7617 9.06522 22.961 9.13768 23.1733C9.14855 23.2077 9.16848 23.2403 9.19384 23.2729C9.26993 23.3623 9.29529 23.4582 9.33696 23.5522C9.36413 23.6193 9.38768 23.6873 9.41848 23.7543C9.46739 23.8688 9.48551 23.9861 9.51811 24.1025C9.53623 24.1705 9.55254 24.2394 9.57065 24.3074C9.61232 24.4712 9.66667 24.6342 9.67572 24.8008C9.6884 25.0001 9.66485 25.2012 9.74819 25.3995C9.73732 25.5932 9.8134 25.7841 9.8442 25.9759C9.84964 26.0103 9.8442 26.0467 9.86594 26.0792C9.91848 26.1668 9.91304 26.2562 9.93116 26.3455C9.95109 26.4414 9.97826 26.5373 9.99638 26.6333C10.0091 26.7022 10.0272 26.7701 10.0525 26.8381C10.0978 26.9601 10.1322 27.083 10.154 27.2068C10.1721 27.3027 10.1775 27.3995 10.1739 27.4964C10.163 27.6975 10.2482 27.894 10.2663 28.0941C10.3333 28.2226 10.3261 28.3539 10.3333 28.4852C10.3442 28.6239 10.3732 28.7608 10.4203 28.8968C10.4221 28.9023 10.4384 28.9126 10.442 28.9117C10.4638 28.9089 10.4946 28.9051 10.5018 28.8968C10.6721 28.7245 10.846 28.5532 11.0072 28.3781C11.2572 28.1081 11.3804 27.8176 11.5453 27.5327C11.5833 27.4666 11.6178 27.4005 11.6685 27.3362C11.6975 27.2981 11.7246 27.2589 11.75 27.2198C11.8678 27.0215 12.0254 26.8297 12.0743 26.6221C12.0779 26.6156 12.0815 26.609 12.087 26.6025C12.1232 26.5355 12.1522 26.4684 12.1957 26.4033C12.2609 26.3036 12.2627 26.1994 12.3116 26.0988C12.4529 25.8036 12.596 25.5094 12.6957 25.2096C12.8315 24.9908 12.8514 24.7617 12.9293 24.5383C12.9783 24.4023 13.0272 24.2664 13.0217 24.1277C13.0217 24.1072 13.029 24.0867 13.0417 24.0671C13.1087 23.9666 13.0652 23.8772 12.9601 23.7897C12.9185 23.7552 12.8913 23.7152 12.846 23.6807C12.712 23.5774 12.6069 23.4647 12.4909 23.3549C12.3134 23.1854 12.1449 23.0122 11.904 22.8614C11.8188 22.8083 11.7572 22.7459 11.6848 22.6873C11.6558 22.664 11.6377 22.636 11.5996 22.6174C11.3569 22.488 11.1123 22.3604 10.8659 22.2329C10.5362 22.1146 10.2228 21.9843 9.88768 21.8688C9.4384 21.7143 8.95471 21.596 8.46739 21.4787C8.2971 21.4377 8.12138 21.4033 7.94746 21.367C7.93478 21.3651 7.9221 21.366 7.90942 21.3697C7.90036 21.3735 7.89493 21.38 7.88406 21.3856ZM18.5652 21.8493C18.5163 21.8493 18.4674 21.8521 18.4203 21.8576C18.2011 21.8874 17.9783 21.9135 17.7645 21.9573C17.6667 21.9796 17.5652 21.9973 17.462 22.0122C16.9801 22.0783 16.5235 22.1817 16.0562 22.2673C15.942 22.2878 15.8297 22.312 15.721 22.34C15.3986 22.4247 15.0725 22.5076 14.8098 22.6407C14.6957 22.6984 14.5815 22.7571 14.4656 22.8148C14.1341 22.9852 14.1341 22.9852 13.8949 23.1873C13.8478 23.2217 13.8225 23.2608 13.8188 23.3027C13.8098 23.407 13.7735 23.5085 13.7138 23.6072C13.6812 23.6603 13.6612 23.7143 13.6504 23.7692C13.6377 23.8455 13.6087 23.9191 13.5616 23.9917C13.4583 24.163 13.3678 24.3372 13.3315 24.5159C13.3062 24.6258 13.2627 24.7338 13.2047 24.84C13.1232 25.0001 13.0543 25.1612 12.9946 25.3232C12.904 25.5746 12.8225 25.826 12.6667 26.0699C12.6377 26.1156 12.6141 26.1621 12.596 26.2096C12.5254 26.4061 12.433 26.6007 12.3207 26.7925C12.308 26.812 12.2989 26.8316 12.2917 26.8521C12.288 26.866 12.288 26.88 12.2917 26.894C12.2917 26.9005 12.2953 26.907 12.3043 26.9126C12.3207 26.92 12.346 26.9163 12.3605 26.9005C12.4384 26.8213 12.5109 26.7385 12.5924 26.6603C12.6866 26.569 12.7899 26.4796 12.8859 26.3893C13.1178 26.1705 13.4149 25.974 13.6775 25.7655C13.7083 25.7431 13.7428 25.7217 13.7808 25.7022C13.9438 25.61 14.0942 25.5122 14.2319 25.4107C14.2717 25.3828 14.3062 25.3521 14.3551 25.3288C14.4764 25.272 14.5598 25.2012 14.6467 25.1323C14.9601 24.8819 15.3098 24.6454 15.663 24.4117C15.8605 24.2813 16.0435 24.1454 16.212 24.0038C16.4511 23.8046 16.7156 23.6128 16.9457 23.4107C17.1196 23.2552 17.3116 23.1053 17.5217 22.9619C17.5471 22.9452 17.5688 22.9284 17.5888 22.9107C17.75 22.7748 17.9094 22.6388 18.0707 22.5038C18.2174 22.38 18.3678 22.258 18.5145 22.1333C18.5906 22.069 18.6594 22.001 18.7283 21.934C18.7699 21.8949 18.7101 21.8502 18.5652 21.8493ZM15.1413 16.8763C15.1522 16.8725 15.1703 16.8698 15.1739 16.8651C15.2065 16.8195 15.2391 16.7748 15.2663 16.7282C15.3279 16.6221 15.3804 16.515 15.4457 16.4098C15.5996 16.1668 15.7554 15.9238 15.962 15.6919C16.0924 15.4619 16.346 15.2673 16.6178 15.0774C16.6576 15.0495 16.6975 15.0225 16.7319 14.9927C16.942 14.8157 17.1612 14.6416 17.4275 14.4852C17.4982 14.4442 17.5562 14.3968 17.6196 14.353C17.6449 14.3344 17.6286 14.3036 17.5942 14.3018C17.3913 14.2925 17.192 14.2971 16.9928 14.3148C16.567 14.3511 16.154 14.4117 15.7409 14.474C15.6522 14.4852 15.6014 14.5141 15.5888 14.5606C15.5489 14.6835 15.4982 14.8055 15.5 14.9303C15.5 14.9722 15.4928 15.0131 15.4783 15.0541C15.3804 15.326 15.3351 15.6007 15.2572 15.8744C15.2192 16.0103 15.2101 16.15 15.1612 16.285C15.096 16.4703 15.1033 16.6565 15.1087 16.8427C15.1105 16.8539 15.1304 16.8651 15.1413 16.8763Z" fill="#273A24"/>
</svg>
