<svg width="33" height="33" viewBox="0 0 33 33" fill="none" xmlns="http://www.w3.org/2000/svg">
<path fill-rule="evenodd" clip-rule="evenodd" d="M10.0685 4.55578C10.0712 4.4816 10.5837 4.78988 10.6888 4.84672C11.0483 5.04422 11.5433 5.36792 12.0881 5.7658C13.2634 6.62803 14.5041 7.67139 15.3706 8.86695C16.5293 10.4671 16.9644 12.2523 16.5717 14.6492C16.5081 15.0346 16.4122 15.365 16.2703 15.5163C16.1689 15.1627 16.0647 14.7966 15.9725 14.5336C15.1143 12.1049 14.0912 10.1203 12.7066 7.99894C11.7627 6.55193 10.722 5.12033 10.2648 4.73401C10.1293 4.61936 10.027 4.52591 10.2261 4.77061C10.3929 4.97389 10.7275 5.36117 11.0216 5.83613C11.5516 6.69162 12.36 7.81493 13.1657 9.14441C14.223 10.8891 15.4637 13.418 16.0205 15.5982C16.0242 15.5982 16.0278 15.5991 16.0315 15.5991C15.6794 15.5635 15.0231 15.1406 14.4184 14.6897C13.1638 13.7523 12.2891 12.9537 11.6023 11.4498C10.982 10.0885 10.6003 8.31108 10.3496 6.80722C10.1772 5.77639 10.0592 4.7947 10.0685 4.55578ZM19.3269 5.17524C19.4163 4.57023 19.4329 4.37273 19.6016 5.06156C19.8358 5.98738 20.0653 6.97582 20.1814 7.97389C20.399 9.82456 20.2543 12.102 18.7637 13.3631C18.4605 13.6184 18.0503 13.8458 17.8428 13.8226C18.0023 13.4585 18.1673 13.103 18.3185 12.7302C18.513 12.2542 18.6715 11.7639 18.7895 11.2648C19.2633 9.24749 19.5565 7.15308 19.4938 5.07408C19.4781 4.52302 19.444 4.67331 19.4394 5.07023C19.4302 6.06734 19.3527 7.05482 19.2218 8.02206C19.0513 9.2947 18.7978 10.7648 18.4024 11.971C18.2217 12.5259 17.9433 13.1444 17.6843 13.7379C17.6189 13.6704 17.5663 13.5779 17.523 13.4652C16.969 12.0047 17.6207 10.2253 18.1848 8.89008C18.4651 8.22726 18.7646 7.57794 18.9896 6.78218C19.138 6.25135 19.2495 5.70607 19.3269 5.17524ZM18.5499 16.7619C19.4901 15.2725 21.0553 13.812 23.2077 12.7369C24.5784 12.0539 26.5132 11.4219 27.6212 11.3785C27.6821 11.3756 27.7355 11.3785 27.7466 11.3959C27.7567 11.4122 27.7484 11.4421 27.7143 11.4922C27.6562 11.5856 27.5198 11.7157 27.3742 11.8564C27.0359 12.181 26.6828 12.6733 26.3823 13.1945C25.2753 15.1117 25.2494 17.3968 24.382 19.4922C23.4483 21.7485 22.0103 23.4874 19.9851 23.7658C19.7067 23.8043 19.4366 23.8246 19.1822 23.8063C18.9213 23.788 18.6909 23.7253 18.4881 23.6251C18.9084 22.8053 19.3177 21.9768 19.7325 21.1531C21.6093 17.4325 23.6188 13.8583 27.2617 11.7128C27.6166 11.5038 27.0294 11.7639 26.3694 12.181C25.797 12.5413 25.1932 13.023 24.8116 13.3448C24.0852 13.9575 23.3994 14.681 22.78 15.446C21.342 17.2234 20.3252 19.2118 19.2633 21.2436C18.8909 21.9604 18.5148 22.6733 18.1277 23.3814V23.3833C17.9277 23.2041 17.7673 22.9739 17.6465 22.7022C17.5027 22.3814 17.4225 22.024 17.3847 21.6569C17.2299 20.1203 17.7516 18.0249 18.5499 16.7619ZM7.25699 30.7205C6.47531 30.2581 5.75816 29.7099 5.16268 29.1213C4.6262 28.5905 4.13212 28.0259 3.68505 27.4633C3.02505 26.6319 2.43787 25.7263 1.93549 24.7542C1.44602 23.8053 1.03766 22.7937 0.722412 21.7263C0.407159 20.6579 0.197912 19.5818 0.0919064 18.5105C-0.0177869 17.4113 -0.021474 16.3169 0.0743923 15.2417C0.172102 14.1454 0.373975 13.0673 0.671713 12.024C0.972217 10.971 1.37135 9.95173 1.86082 8.98256C2.3503 8.01339 2.9301 7.09431 3.59287 6.23979C4.24919 5.39489 4.98662 4.61262 5.7978 3.91031C6.5933 3.21955 7.45887 2.60587 8.38895 2.08083C9.29692 1.56927 10.2639 1.14152 11.2852 0.813003C12.3066 0.48256 13.3362 0.26387 14.3603 0.15308C15.413 0.0384369 16.4592 0.0336198 17.487 0.134776C18.536 0.236895 19.5666 0.447878 20.5649 0.760017C21.5733 1.07408 22.5468 1.49027 23.4741 2.00279C24.4014 2.51435 25.2799 3.12033 26.0975 3.81397C26.9068 4.4999 27.6535 5.27061 28.3255 6.11936C28.9855 6.95077 29.5726 7.85539 30.075 8.82745C30.5645 9.77639 30.9738 10.788 31.2881 11.8564C31.6043 12.9238 31.8126 13.9999 31.9195 15.0712C32.0283 16.1704 32.0329 17.2658 31.937 18.34C31.8384 19.4373 31.6365 20.5144 31.3388 21.5577C31.0383 22.6126 30.6392 23.6309 30.1497 24.6001C29.7211 25.4498 29.2214 26.261 28.6582 27.024C27.3143 28.8448 25.6237 30.3573 23.6916 31.4604L23.7359 31.4296C28.0563 28.2427 30.9747 23.418 31.2973 17.8544C31.4089 15.9402 31.1996 13.9855 30.6327 12.0673C30.3313 11.0452 29.9404 10.077 29.4713 9.17042C28.991 8.23882 28.4287 7.37273 27.7973 6.57697C27.1539 5.76483 26.4376 5.02688 25.6652 4.36984C24.8826 3.70703 24.041 3.12611 23.1542 2.63574C22.2674 2.1473 21.3337 1.74749 20.3695 1.44788C19.4154 1.14923 18.4282 0.947878 17.4234 0.849612C16.438 0.753273 15.4361 0.757126 14.4304 0.866953C13.4505 0.97389 12.4651 1.18198 11.4871 1.49797C9.50617 2.13767 7.73725 3.15886 6.23565 4.46233C4.67413 5.81493 3.3993 7.471 2.46644 9.31686C1.99909 10.2436 1.61747 11.2196 1.32987 12.2282C1.04504 13.2273 0.852385 14.2571 0.75744 15.3082C0.665261 16.3381 0.66987 17.3843 0.774032 18.4382C0.876351 19.4623 1.07638 20.4932 1.37781 21.5144C1.67923 22.5365 2.07007 23.5047 2.53926 24.4113C3.0103 25.3255 3.64357 26.2976 4.37639 27.2128C4.96542 27.9479 5.6881 28.6868 6.51311 29.3381C7.28096 29.9431 8.22948 30.5211 9.24345 30.9248C11.7977 31.9411 15.4158 31.6117 15.5983 28.1097C15.6204 27.682 15.6057 27.2725 15.3688 26.6733C15.142 26.0982 14.9586 25.3756 14.7954 24.8409C14.6286 24.2899 14.4617 23.7725 14.2838 23.2745C14.2829 23.2706 14.281 23.2687 14.2801 23.2668C14.3963 23.2118 14.494 23.1444 14.5843 23.0529C14.5898 23.0673 14.5945 23.0779 14.6 23.0943C14.9337 23.9855 15.2028 24.9007 15.4877 25.8159C15.6527 26.3458 15.7707 26.524 15.8748 25.6801C15.9006 25.4671 15.9274 25.208 15.9606 24.9219C16.2362 22.5702 16.3772 17.7446 16.262 16.8352C16.2131 16.4469 16.132 16.0365 16.0232 15.6126C16.0232 15.6068 16.0214 15.602 16.0205 15.5982C16.1173 15.6107 16.2002 15.5934 16.2703 15.5192C16.2712 15.525 16.273 15.5259 16.274 15.5317C16.3228 15.7051 16.3726 15.8737 16.4187 16.024C16.4297 16.0606 16.4574 16.1733 16.486 16.2851C16.5708 16.6088 16.6878 16.2167 16.7385 16.0866C17.0059 15.3959 17.2557 14.7407 17.558 14.0298C17.5986 13.9344 17.6401 13.8409 17.6825 13.7417C17.7212 13.7822 17.7875 13.8217 17.8419 13.8275C17.7461 14.0452 17.6557 14.2619 17.5691 14.4922C17.3976 14.945 17.2206 15.3978 17.0796 15.8631C16.9469 16.3005 16.8445 16.7388 16.7856 17.1935C16.7413 17.5327 16.721 17.8612 16.709 18.1926C16.6537 19.812 16.6556 21.4363 16.5818 23.0548C16.5357 24.0702 16.4556 25.0876 16.2933 26.0837C16.2666 26.2542 16.3376 26.3708 16.4473 26.2205C16.686 25.891 17.1533 25.1194 17.7304 24.0962C17.865 23.8583 17.9913 23.6328 18.1203 23.3949C18.2291 23.4912 18.3471 23.5779 18.4798 23.6425C18.3342 23.9267 18.1968 24.1926 18.0475 24.4758C17.593 25.339 17.1404 26.1454 16.7533 26.7051C16.6795 26.812 16.6012 26.9036 16.533 26.9787C16.3385 27.1868 16.2417 27.4411 16.1965 27.7157C16.1753 27.8381 16.1652 27.9623 16.1597 28.0895C16.0094 32.1309 11.9185 32.6868 8.93834 31.5346C8.33825 31.3034 7.77043 31.0221 7.25699 30.7205ZM14.9069 22.5693C14.824 22.7465 14.718 22.9074 14.5834 23.0471C14.446 22.6858 14.2986 22.3284 14.1354 21.9768C13.4072 20.4045 12.4236 18.9103 11.3276 17.7041C10.8234 17.1473 10.3146 16.6887 9.78362 16.3043C9.03974 15.7639 8.25437 15.3747 7.38697 15.0616C6.70484 14.8169 5.97662 14.6145 5.27145 14.4565C4.92117 14.3785 4.57181 14.313 4.20402 14.2735C3.91826 14.2427 3.83254 14.2639 4.22799 14.3323C4.44461 14.3698 4.77276 14.4267 5.12212 14.5278C5.81255 14.7263 7.02839 15.1155 7.96585 15.525C8.69683 15.8429 9.4315 16.288 10.0952 16.8564C10.757 17.4238 11.3497 18.1165 11.8457 18.7562C12.019 18.9806 12.1877 19.209 12.348 19.4421C13.2284 20.7176 13.7962 21.9142 14.2801 23.2639C12.2605 24.1955 9.21396 20.6338 8.37236 19.0577C7.93174 18.233 7.52155 17.418 6.98322 16.682C6.15453 15.5481 5.1212 14.8303 3.85743 14.312C3.7846 14.2822 3.74497 14.26 3.76525 14.2436C3.77354 14.2388 3.78184 14.2321 3.79382 14.2253C3.9155 14.1463 4.09064 14.0722 4.29712 14.0028C5.59777 13.5702 7.17956 13.4267 8.53368 13.6001C9.90807 13.7754 11.2272 14.2629 12.2771 15.1011C13.1804 15.8207 13.9096 16.7591 14.4073 17.8438C14.8655 18.8409 15.1346 20.0124 15.1512 21.1232C15.1577 21.6338 15.1005 22.1521 14.9069 22.5693Z" fill="#456D3E"/>
</svg>
