<svg xmlns="http://www.w3.org/2000/svg" xmlns:xlink="http://www.w3.org/1999/xlink" width="200" zoomAndPan="magnify" viewBox="0 0 375 374.999991" height="auto" preserveAspectRatio="xMidYMid meet" version="1.0"><defs><g/><clipPath id="4ee28bb4b6"><path d="M 285.808594 82.539062 L 354.808594 82.539062 L 354.808594 216.789062 L 285.808594 216.789062 Z M 285.808594 82.539062 " clip-rule="nonzero"/></clipPath></defs><g fill="#386631" fill-opacity="1"><g transform="translate(21.197329, 215.460822)"><g><path d="M 21.296875 -53.578125 L 16.171875 -53.578125 L 16.171875 -5.84375 C 16.171875 -4.457031 16.664062 -3.269531 17.65625 -2.28125 C 18.644531 -1.289062 19.859375 -0.796875 21.296875 -0.796875 L 22.265625 -0.796875 L 22.34375 0 L 4.8125 0 L 4.8125 -0.796875 L 5.84375 -0.796875 C 7.226562 -0.796875 8.414062 -1.273438 9.40625 -2.234375 C 10.394531 -3.203125 10.914062 -4.378906 10.96875 -5.765625 L 10.96875 -50.203125 C 10.914062 -51.597656 10.394531 -52.785156 9.40625 -53.765625 C 8.414062 -54.753906 7.226562 -55.25 5.84375 -55.25 L 4.8125 -55.25 L 4.8125 -56.0625 L 26.421875 -56.0625 C 31.285156 -56.0625 35.101562 -54.710938 37.875 -52.015625 C 40.65625 -49.316406 42.046875 -45.816406 42.046875 -41.515625 C 42.046875 -37.222656 40.722656 -33.515625 38.078125 -30.390625 C 35.429688 -27.265625 32.210938 -25.703125 28.421875 -25.703125 C 29.222656 -25.328125 30.171875 -24.59375 31.265625 -23.5 C 32.359375 -22.40625 33.332031 -21.269531 34.1875 -20.09375 C 38.78125 -13.53125 41.769531 -9.488281 43.15625 -7.96875 C 44.550781 -6.445312 45.539062 -5.40625 46.125 -4.84375 C 46.707031 -4.28125 47.347656 -3.734375 48.046875 -3.203125 C 48.742188 -2.671875 49.4375 -2.242188 50.125 -1.921875 C 51.675781 -1.171875 53.332031 -0.796875 55.09375 -0.796875 L 55.09375 0 L 50.6875 0 C 48.394531 0 46.257812 -0.410156 44.28125 -1.234375 C 42.3125 -2.066406 40.832031 -2.921875 39.84375 -3.796875 C 38.851562 -4.679688 38 -5.535156 37.28125 -6.359375 C 36.5625 -7.191406 34.570312 -9.957031 31.3125 -14.65625 C 28.050781 -19.351562 26.15625 -22.035156 25.625 -22.703125 C 25.09375 -23.367188 24.53125 -24.023438 23.9375 -24.671875 C 22.226562 -26.484375 20.519531 -27.390625 18.8125 -27.390625 L 18.8125 -28.1875 C 19.238281 -28.132812 19.800781 -28.109375 20.5 -28.109375 C 21.195312 -28.109375 22.050781 -28.132812 23.0625 -28.1875 C 29.6875 -28.34375 33.851562 -31.117188 35.5625 -36.515625 C 35.875 -37.585938 36.03125 -38.585938 36.03125 -39.515625 C 36.03125 -40.453125 36.03125 -41.054688 36.03125 -41.328125 C 35.925781 -44.898438 34.992188 -47.78125 33.234375 -49.96875 C 31.472656 -52.15625 29.097656 -53.332031 26.109375 -53.5 C 24.828125 -53.550781 23.222656 -53.578125 21.296875 -53.578125 Z M 21.296875 -53.578125 "/></g></g></g><g fill="#386631" fill-opacity="1"><g transform="translate(80.612299, 215.460822)"><g><path d="M 57.328125 -0.796875 L 57.96875 -0.796875 L 57.96875 0 L 39.953125 0 L 39.953125 -0.796875 L 40.671875 -0.796875 C 41.796875 -0.796875 42.640625 -1.15625 43.203125 -1.875 C 43.765625 -2.601562 44.046875 -3.285156 44.046875 -3.921875 C 44.046875 -4.566406 43.9375 -5.207031 43.71875 -5.84375 L 38.59375 -19.453125 L 16.96875 -19.453125 L 11.609375 -5.765625 C 11.398438 -5.128906 11.296875 -4.503906 11.296875 -3.890625 C 11.296875 -3.273438 11.570312 -2.601562 12.125 -1.875 C 12.6875 -1.15625 13.53125 -0.796875 14.65625 -0.796875 L 15.375 -0.796875 L 15.375 0 L -0.71875 0 L -0.71875 -0.796875 L 0 -0.796875 C 1.332031 -0.796875 2.640625 -1.222656 3.921875 -2.078125 C 5.203125 -2.929688 6.242188 -4.1875 7.046875 -5.84375 L 25.140625 -48.921875 C 27.117188 -53.253906 28.109375 -56.003906 28.109375 -57.171875 L 28.828125 -57.171875 L 50.28125 -5.84375 C 51.03125 -4.1875 52.046875 -2.929688 53.328125 -2.078125 C 54.609375 -1.222656 55.941406 -0.796875 57.328125 -0.796875 Z M 17.9375 -21.859375 L 37.640625 -21.859375 L 28.03125 -47.5625 Z M 17.9375 -21.859375 "/></g></g></g><g fill="#386631" fill-opacity="1"><g transform="translate(142.829838, 215.460822)"><g><path d="M 72.078125 -0.796875 L 73.359375 -0.796875 L 73.359375 0 L 55.96875 0 L 55.96875 -0.71875 L 57.171875 -0.71875 C 58.078125 -0.71875 58.847656 -1.078125 59.484375 -1.796875 C 60.128906 -2.523438 60.398438 -3.316406 60.296875 -4.171875 L 56.703125 -44.4375 L 39.875 -7.046875 C 38.382812 -3.785156 37.476562 -1.0625 37.15625 1.125 L 36.359375 1.125 L 15.859375 -43.328125 L 12.40625 -4.171875 C 12.300781 -3.316406 12.566406 -2.523438 13.203125 -1.796875 C 13.847656 -1.078125 14.597656 -0.71875 15.453125 -0.71875 L 16.734375 -0.71875 L 16.734375 0 L 1.203125 0 L 1.203125 -0.796875 L 2.484375 -0.796875 C 3.972656 -0.796875 5.265625 -1.25 6.359375 -2.15625 C 7.460938 -3.070312 8.117188 -4.300781 8.328125 -5.84375 L 14.328125 -57.171875 L 15.140625 -57.171875 L 37.484375 -8.890625 L 59.34375 -57.171875 L 60.0625 -57.171875 L 66.21875 -5.84375 C 66.488281 -3.707031 67.554688 -2.210938 69.421875 -1.359375 C 70.222656 -0.984375 71.109375 -0.796875 72.078125 -0.796875 Z M 72.078125 -0.796875 "/></g></g></g><g fill="#386631" fill-opacity="1"><g transform="translate(222.583441, 215.460822)"><g><path d="M 13.578125 -49.125 C 18.890625 -54.488281 25.816406 -57.171875 34.359375 -57.171875 C 42.898438 -57.171875 49.835938 -54.488281 55.171875 -49.125 C 60.515625 -43.757812 63.1875 -36.722656 63.1875 -28.015625 C 63.1875 -19.316406 60.515625 -12.285156 55.171875 -6.921875 C 49.835938 -1.554688 42.898438 1.125 34.359375 1.125 C 25.816406 1.125 18.890625 -1.554688 13.578125 -6.921875 C 8.265625 -12.285156 5.609375 -19.316406 5.609375 -28.015625 C 5.609375 -36.722656 8.265625 -43.757812 13.578125 -49.125 Z M 17.96875 -8.640625 C 22.113281 -3.734375 27.585938 -1.28125 34.390625 -1.28125 C 41.203125 -1.28125 46.675781 -3.734375 50.8125 -8.640625 C 54.945312 -13.554688 57.015625 -20.019531 57.015625 -28.03125 C 57.015625 -33.3125 56.078125 -37.976562 54.203125 -42.03125 C 52.335938 -46.09375 49.679688 -49.234375 46.234375 -51.453125 C 42.796875 -53.671875 38.835938 -54.78125 34.359375 -54.78125 C 27.578125 -54.78125 22.113281 -52.320312 17.96875 -47.40625 C 13.832031 -42.5 11.765625 -36.039062 11.765625 -28.03125 C 11.765625 -20.019531 13.832031 -13.554688 17.96875 -8.640625 Z M 17.96875 -8.640625 "/></g></g></g><g clip-path="url(#4ee28bb4b6)"><path fill="#273a24" d="M 320.050781 119.53125 C 320.277344 118.582031 320.453125 117.53125 320.507812 116.796875 C 320.519531 116.625 320.527344 116.449219 320.554688 116.277344 C 320.636719 115.703125 320.679688 115.125 320.679688 114.542969 C 320.675781 114.25 320.699219 113.964844 320.753906 113.675781 C 320.789062 113.507812 320.804688 113.332031 320.804688 113.160156 C 320.808594 112.375 320.816406 111.59375 320.800781 110.808594 C 320.789062 110.464844 320.6875 110.121094 320.6875 109.773438 C 320.6875 109.429688 320.792969 109.085938 320.804688 108.742188 C 320.808594 108.394531 320.789062 108.046875 320.746094 107.703125 C 320.707031 107.355469 320.703125 107.007812 320.738281 106.660156 C 320.824219 105.738281 320.953125 104.820312 321.007812 103.894531 C 321.046875 103.226562 321.171875 102.574219 321.386719 101.9375 C 321.53125 101.527344 321.644531 101.109375 321.730469 100.679688 C 321.792969 100.367188 321.886719 100.0625 322.007812 99.769531 C 322.238281 99.203125 322.433594 98.628906 322.625 98.050781 C 323.023438 96.863281 323.535156 95.722656 324.214844 94.675781 C 324.78125 93.800781 325.335938 92.914062 326.011719 92.113281 C 326.480469 91.5625 326.890625 90.964844 327.328125 90.382812 C 327.539062 90.109375 327.78125 89.851562 327.972656 89.5625 C 328.464844 88.8125 328.949219 88.054688 329.421875 87.289062 C 329.589844 87.019531 329.734375 86.734375 329.855469 86.4375 C 329.992188 86.089844 330.164062 85.753906 330.363281 85.4375 C 330.457031 85.289062 330.527344 85.132812 330.570312 84.960938 C 330.691406 84.449219 330.933594 83.984375 331.078125 83.480469 C 331.167969 83.160156 331.375 82.921875 331.628906 82.71875 C 331.816406 82.566406 332.164062 82.589844 332.351562 82.757812 C 332.597656 82.976562 332.75 83.25 332.8125 83.578125 C 332.890625 83.972656 332.949219 84.375 333.015625 84.773438 C 333.042969 84.917969 333.078125 85.054688 333.101562 85.199219 C 333.175781 85.65625 333.25 86.113281 333.324219 86.570312 C 333.339844 86.683594 333.316406 86.8125 333.359375 86.914062 C 333.542969 87.359375 333.5 87.824219 333.527344 88.285156 C 333.546875 88.632812 333.558594 88.976562 333.640625 89.320312 C 333.761719 89.832031 333.75 90.359375 333.738281 90.882812 C 333.726562 91.289062 333.722656 91.6875 333.808594 92.09375 C 333.867188 92.410156 333.859375 92.726562 333.785156 93.042969 C 333.746094 93.183594 333.71875 93.324219 333.710938 93.472656 C 333.714844 94.171875 333.546875 94.851562 333.496094 95.542969 C 333.464844 95.921875 333.414062 96.292969 333.335938 96.660156 C 333.179688 97.398438 333.113281 98.148438 332.902344 98.875 C 332.71875 99.484375 332.613281 100.113281 332.464844 100.734375 C 332.410156 100.988281 332.34375 101.242188 332.257812 101.488281 C 331.882812 102.496094 331.621094 103.535156 331.285156 104.554688 C 331.167969 104.941406 331.023438 105.324219 330.859375 105.695312 C 330.488281 106.480469 330.164062 107.289062 329.808594 108.082031 C 329.421875 108.925781 329.027344 109.761719 328.535156 110.554688 C 328.222656 111.042969 327.960938 111.558594 327.667969 112.0625 C 327.535156 112.289062 327.398438 112.511719 327.25 112.722656 C 326.441406 113.890625 325.636719 115.0625 324.71875 116.152344 C 324.382812 116.550781 324.046875 116.949219 323.707031 117.34375 C 323.117188 118.023438 322.648438 118.796875 322.132812 119.53125 C 322.023438 119.707031 321.925781 119.882812 321.839844 120.066406 C 321.6875 120.347656 321.550781 120.636719 321.382812 120.90625 C 321.207031 121.207031 321.050781 121.519531 320.917969 121.839844 C 320.726562 122.273438 320.582031 122.703125 320.609375 123.179688 C 320.609375 123.296875 320.59375 123.410156 320.558594 123.523438 C 320.515625 123.695312 320.511719 123.867188 320.539062 124.039062 C 320.613281 124.730469 320.648438 125.425781 320.640625 126.121094 C 320.636719 126.382812 320.65625 126.640625 320.703125 126.898438 C 320.761719 127.214844 320.792969 127.53125 320.792969 127.851562 C 320.808594 128.488281 320.839844 129.125 320.84375 129.765625 C 320.847656 130.375 320.824219 130.984375 320.816406 131.59375 C 320.804688 132.144531 320.792969 132.695312 320.78125 133.246094 C 320.773438 133.679688 320.773438 134.117188 320.679688 134.542969 C 320.644531 134.703125 320.625 134.878906 320.738281 135.03125 C 320.855469 134.980469 320.90625 134.871094 320.945312 134.765625 C 321.292969 133.90625 321.589844 133.027344 321.882812 132.148438 C 322.398438 130.605469 322.976562 129.089844 323.835938 127.703125 C 324.140625 127.207031 324.417969 126.699219 324.703125 126.191406 C 325.285156 125.152344 325.945312 124.164062 326.683594 123.230469 C 327.164062 122.613281 327.734375 122.066406 328.289062 121.519531 C 328.394531 121.417969 328.511719 121.332031 328.613281 121.226562 C 329.441406 120.371094 330.332031 119.585938 331.285156 118.867188 C 331.5625 118.65625 331.820312 118.421875 332.058594 118.167969 C 332.480469 117.726562 332.964844 117.351562 333.421875 116.953125 C 333.792969 116.628906 334.199219 116.347656 334.585938 116.042969 C 334.773438 115.902344 334.953125 115.757812 335.128906 115.609375 C 335.328125 115.441406 335.542969 115.285156 335.707031 115.085938 C 335.871094 114.886719 335.980469 114.644531 336.113281 114.421875 C 336.179688 114.292969 336.253906 114.167969 336.335938 114.050781 C 336.71875 113.570312 336.957031 113.003906 337.25 112.476562 C 337.664062 111.769531 337.957031 111.015625 338.136719 110.21875 C 338.175781 110.019531 338.234375 109.824219 338.292969 109.628906 C 338.386719 109.265625 338.515625 108.910156 338.679688 108.570312 C 338.945312 108.058594 339.105469 107.492188 339.425781 107.003906 C 339.730469 106.210938 340.265625 105.546875 340.65625 104.804688 C 341.136719 104.257812 341.507812 103.640625 341.835938 102.988281 C 341.949219 102.757812 342.140625 102.566406 342.292969 102.355469 C 342.410156 102.191406 342.539062 102.03125 342.636719 101.855469 C 342.785156 101.605469 342.953125 101.367188 343.140625 101.148438 C 343.269531 100.992188 343.386719 100.828125 343.503906 100.660156 C 343.703125 100.371094 343.945312 100.125 344.234375 99.921875 C 344.417969 99.792969 344.742188 99.902344 344.816406 100.117188 C 344.917969 100.421875 345.015625 100.726562 345.015625 101.050781 C 345.015625 101.832031 345.027344 102.617188 344.996094 103.398438 C 344.96875 103.867188 344.863281 104.316406 344.675781 104.742188 C 344.441406 105.304688 344.203125 105.867188 343.960938 106.425781 C 343.886719 106.613281 343.796875 106.792969 343.691406 106.96875 C 343.148438 107.824219 342.597656 108.675781 342.046875 109.53125 C 341.988281 109.632812 341.925781 109.726562 341.851562 109.820312 C 341.234375 110.535156 340.886719 111.398438 340.515625 112.246094 C 340.296875 112.75 340.136719 113.28125 339.929688 113.792969 C 339.699219 114.347656 339.453125 114.90625 339.203125 115.460938 C 338.832031 116.28125 338.507812 117.117188 338.304688 117.996094 C 338.230469 118.332031 338.101562 118.660156 337.996094 118.992188 C 337.8125 119.570312 337.601562 120.144531 337.453125 120.730469 C 337.210938 121.6875 336.820312 122.601562 336.625 123.566406 C 336.621094 123.597656 336.609375 123.625 336.601562 123.652344 C 336.09375 125.007812 335.628906 126.382812 334.816406 127.605469 C 334.480469 128.109375 334.207031 128.65625 333.902344 129.183594 C 333.617188 129.691406 333.292969 130.171875 332.925781 130.621094 C 332.742188 130.847656 332.550781 131.066406 332.382812 131.304688 C 331.945312 131.921875 331.429688 132.46875 330.886719 132.996094 C 330.433594 133.445312 329.984375 133.898438 329.539062 134.355469 C 329.503906 134.402344 329.476562 134.453125 329.460938 134.507812 C 329.449219 134.535156 329.449219 134.558594 329.460938 134.585938 C 329.480469 134.609375 329.503906 134.625 329.535156 134.628906 C 329.589844 134.644531 329.648438 134.648438 329.707031 134.640625 C 330.417969 134.453125 331.144531 134.5 331.871094 134.46875 C 332.246094 134.453125 332.625 134.464844 333.003906 134.46875 C 333.117188 134.46875 333.246094 134.449219 333.347656 134.488281 C 333.738281 134.628906 334.074219 134.519531 334.421875 134.328125 C 335.335938 133.824219 336.265625 133.347656 337.136719 132.769531 C 337.8125 132.320312 338.519531 131.917969 339.164062 131.425781 C 339.558594 131.125 339.980469 130.867188 340.386719 130.59375 C 341.253906 130.007812 342.066406 129.351562 342.914062 128.742188 C 343.503906 128.316406 344.027344 127.816406 344.566406 127.332031 C 344.890625 127.046875 345.15625 126.691406 345.421875 126.351562 C 345.792969 125.871094 346.148438 125.375 346.511719 124.882812 C 346.546875 124.839844 346.578125 124.792969 346.605469 124.738281 C 346.867188 124.128906 347.394531 123.746094 347.84375 123.296875 C 347.921875 123.21875 348.039062 123.175781 348.144531 123.125 C 348.273438 123.058594 348.535156 123.125 348.617188 123.246094 C 348.941406 123.71875 349.125 124.226562 348.96875 124.804688 C 348.886719 125.117188 348.875 125.433594 348.847656 125.75 C 348.773438 126.472656 348.632812 127.183594 348.417969 127.875 C 348.253906 128.433594 348.109375 128.988281 347.957031 129.550781 C 347.855469 129.945312 347.734375 130.332031 347.59375 130.714844 C 347.222656 131.71875 346.839844 132.71875 346.457031 133.722656 C 346.386719 133.910156 346.316406 134.101562 346.230469 134.285156 C 345.632812 135.574219 345.113281 136.898438 344.417969 138.140625 C 344.402344 138.164062 344.394531 138.195312 344.382812 138.21875 C 344.300781 138.40625 344.34375 138.574219 344.496094 138.675781 C 344.855469 138.925781 345.238281 139.132812 345.644531 139.296875 C 345.914062 139.40625 346.167969 139.539062 346.414062 139.695312 C 347.035156 140.070312 347.640625 140.46875 348.257812 140.847656 C 348.796875 141.179688 349.292969 141.59375 349.796875 141.980469 C 350.28125 142.351562 350.78125 142.707031 351.230469 143.113281 C 352.15625 143.945312 353.125 144.742188 353.828125 145.792969 C 354.117188 146.226562 354.394531 146.667969 354.667969 147.113281 C 354.722656 147.214844 354.757812 147.324219 354.777344 147.4375 C 354.792969 147.527344 354.777344 147.609375 354.726562 147.6875 C 354.679688 147.761719 354.609375 147.8125 354.523438 147.835938 C 354.351562 147.871094 354.179688 147.894531 354.007812 147.898438 C 353.449219 147.898438 352.914062 147.769531 352.382812 147.613281 C 351.828125 147.449219 351.28125 147.253906 350.730469 147.078125 C 349.679688 146.742188 348.640625 146.367188 347.617188 145.957031 C 347.402344 145.867188 347.183594 145.804688 346.953125 145.761719 C 346.667969 145.703125 346.390625 145.628906 346.113281 145.542969 C 345.246094 145.289062 344.371094 145.109375 343.464844 145.089844 C 343.03125 145.078125 342.59375 145.078125 342.164062 144.972656 C 342.023438 144.941406 341.878906 144.929688 341.734375 144.941406 C 341.027344 144.96875 340.34375 144.855469 339.667969 144.679688 C 339.339844 144.585938 339.039062 144.640625 338.761719 144.84375 C 338.667969 144.910156 338.574219 144.976562 338.476562 145.046875 C 337.886719 145.472656 337.234375 145.785156 336.570312 146.082031 C 336.253906 146.226562 335.929688 146.355469 335.613281 146.503906 C 335.007812 146.78125 334.402344 147.058594 333.804688 147.359375 C 333.234375 147.640625 332.675781 147.949219 332.105469 148.242188 C 331.902344 148.347656 331.699219 148.46875 331.480469 148.539062 C 331.121094 148.664062 330.78125 148.820312 330.453125 149.011719 C 329.898438 149.320312 329.339844 149.632812 328.773438 149.925781 C 328.464844 150.085938 328.183594 150.296875 327.890625 150.484375 C 327.597656 150.675781 327.308594 150.871094 327.007812 151.042969 C 325.691406 151.785156 324.464844 152.65625 323.199219 153.480469 C 322.277344 154.089844 321.4375 154.800781 320.6875 155.613281 C 320.089844 156.246094 319.535156 156.914062 319.136719 157.699219 C 318.910156 158.136719 318.652344 158.558594 318.410156 158.988281 C 318.308594 159.167969 318.253906 159.359375 318.242188 159.5625 C 318.214844 160.027344 318.160156 160.492188 318.121094 160.949219 C 318.117188 161.066406 318.117188 161.179688 318.121094 161.296875 C 318.121094 161.382812 318.160156 161.472656 318.144531 161.554688 C 318.003906 162.179688 318.058594 162.824219 317.921875 163.449219 C 317.828125 163.875 317.757812 164.300781 317.65625 164.722656 C 317.601562 164.949219 317.574219 165.179688 317.53125 165.40625 C 317.394531 166.207031 317.308594 167.015625 317.199219 167.816406 C 317.117188 168.449219 316.996094 169.074219 316.941406 169.710938 C 316.898438 170.257812 316.777344 170.800781 316.699219 171.34375 C 316.625 171.859375 316.550781 172.375 316.496094 172.894531 C 316.4375 173.414062 316.433594 173.933594 316.316406 174.449219 C 316.296875 174.5625 316.292969 174.679688 316.308594 174.792969 C 316.308594 174.835938 316.355469 174.871094 316.386719 174.90625 C 316.414062 174.902344 316.4375 174.886719 316.457031 174.863281 C 316.714844 174.34375 317.050781 173.871094 317.332031 173.363281 C 317.796875 172.527344 318.324219 171.730469 318.910156 170.972656 C 318.949219 170.925781 318.984375 170.878906 319.015625 170.832031 C 319.445312 170.066406 320.066406 169.445312 320.660156 168.8125 C 321.074219 168.367188 321.582031 168.023438 322.125 167.738281 C 322.5625 167.507812 323 167.28125 323.441406 167.066406 C 324.199219 166.695312 324.988281 166.417969 325.796875 166.171875 C 327.183594 165.746094 328.597656 165.417969 330.003906 165.074219 C 330.3125 165 330.628906 164.945312 330.9375 164.867188 C 331.117188 164.828125 331.253906 164.734375 331.359375 164.582031 C 331.792969 163.964844 332.207031 163.339844 332.617188 162.710938 C 332.933594 162.222656 333.289062 161.765625 333.625 161.289062 C 333.78125 161.082031 333.929688 160.867188 334.066406 160.644531 C 334.304688 160.207031 334.601562 159.816406 334.957031 159.46875 C 335.039062 159.386719 335.113281 159.296875 335.183594 159.203125 C 335.566406 158.730469 335.925781 158.238281 336.335938 157.789062 C 336.820312 157.246094 337.363281 156.765625 337.960938 156.351562 C 338.171875 156.207031 338.394531 156.183594 338.628906 156.277344 C 338.984375 156.40625 339.21875 156.640625 339.253906 157.03125 C 339.273438 157.234375 339.292969 157.4375 339.296875 157.640625 C 339.308594 157.988281 339.292969 158.335938 339.371094 158.679688 C 339.390625 158.734375 339.398438 158.792969 339.390625 158.847656 C 339.277344 159.226562 339.328125 159.589844 339.414062 159.960938 C 339.421875 159.992188 339.421875 160.019531 339.410156 160.046875 C 339.210938 160.605469 339.339844 161.199219 339.164062 161.761719 C 339.035156 162.175781 339.066406 162.625 339.085938 163.0625 C 339.09375 163.199219 339.167969 163.269531 339.304688 163.277344 C 339.949219 163.253906 340.570312 163.109375 341.191406 162.96875 C 341.613281 162.871094 342.027344 162.738281 342.449219 162.621094 C 342.558594 162.585938 342.671875 162.558594 342.785156 162.539062 C 343.632812 162.433594 344.40625 162.109375 345.179688 161.773438 C 345.441406 161.652344 345.707031 161.542969 345.980469 161.453125 C 346.761719 161.203125 347.472656 160.804688 348.1875 160.421875 C 348.957031 160.015625 349.707031 159.574219 350.464844 159.148438 C 350.667969 159.03125 350.871094 158.921875 351.0625 158.792969 C 351.429688 158.554688 351.808594 158.339844 352.199219 158.152344 C 352.484375 158.007812 352.757812 157.84375 353.035156 157.683594 C 353.375 157.492188 353.738281 157.414062 354.125 157.457031 C 354.214844 157.464844 354.292969 157.492188 354.367188 157.539062 C 354.429688 157.589844 354.523438 157.6875 354.507812 157.746094 C 354.429688 158.109375 354.453125 158.492188 354.292969 158.847656 C 354.121094 159.246094 354 159.667969 353.820312 160.0625 C 353.414062 160.960938 352.980469 161.847656 352.558594 162.738281 C 352.292969 163.320312 351.953125 163.855469 351.539062 164.347656 C 351.242188 164.703125 350.960938 165.074219 350.667969 165.433594 C 350.570312 165.542969 350.46875 165.644531 350.359375 165.738281 C 349.976562 166.09375 349.574219 166.429688 349.207031 166.800781 C 348.652344 167.367188 348.015625 167.8125 347.339844 168.214844 C 345.988281 169.011719 344.585938 169.714844 343.167969 170.378906 C 342.566406 170.667969 341.9375 170.894531 341.289062 171.058594 C 340.894531 171.152344 340.511719 171.289062 340.125 171.414062 C 339.464844 171.632812 338.800781 171.835938 338.105469 171.941406 C 337.878906 171.980469 337.65625 172.039062 337.4375 172.117188 C 337.363281 172.140625 337.3125 172.226562 337.253906 172.289062 C 337.234375 172.3125 337.226562 172.339844 337.226562 172.371094 C 337.179688 172.925781 336.964844 173.429688 336.800781 173.957031 C 336.625 174.503906 336.390625 175.035156 336.253906 175.601562 C 336.191406 175.847656 336.066406 176.085938 335.957031 176.320312 C 335.644531 176.972656 335.3125 177.621094 335 178.269531 C 334.609375 179.085938 334.148438 179.851562 333.609375 180.578125 C 332.742188 181.742188 331.832031 182.863281 330.941406 184.011719 C 330.332031 184.792969 329.640625 185.496094 328.941406 186.1875 C 328.449219 186.675781 327.945312 187.160156 327.453125 187.652344 C 327.246094 187.859375 327.019531 188.039062 326.769531 188.191406 C 326.546875 188.328125 326.332031 188.476562 326.113281 188.613281 C 325.621094 188.925781 325.144531 189.253906 324.71875 189.65625 C 324.460938 189.890625 324.175781 190.085938 323.859375 190.238281 C 323.15625 190.582031 322.484375 190.984375 321.847656 191.4375 C 321.675781 191.550781 321.503906 191.652344 321.320312 191.746094 C 320.738281 192.070312 320.152344 192.390625 319.570312 192.71875 C 319.394531 192.816406 319.226562 192.929688 319.054688 193.039062 C 318.59375 193.339844 318.132812 193.644531 317.675781 193.949219 C 317.558594 194.035156 317.4375 194.113281 317.308594 194.1875 C 316.15625 194.757812 315.207031 195.625 314.195312 196.394531 C 313.320312 197.246094 312.445312 198.09375 311.574219 198.945312 C 311.253906 199.257812 311.039062 199.628906 310.925781 200.058594 C 310.828125 200.390625 310.695312 200.714844 310.589844 201.046875 C 310.429688 201.546875 310.207031 202.015625 309.914062 202.453125 C 309.839844 202.578125 309.78125 202.710938 309.734375 202.847656 C 309.726562 202.863281 309.746094 202.902344 309.765625 202.917969 C 309.785156 202.929688 309.808594 202.933594 309.832031 202.921875 C 309.945312 202.832031 310.074219 202.75 310.15625 202.636719 C 310.464844 202.214844 310.851562 201.859375 311.21875 201.488281 C 311.300781 201.40625 311.382812 201.324219 311.464844 201.242188 C 312.046875 200.632812 312.636719 200.03125 313.382812 199.613281 C 314.105469 199.03125 314.890625 198.53125 315.648438 197.996094 C 316.050781 197.707031 316.449219 197.429688 316.921875 197.257812 C 317.058594 197.203125 317.183594 197.132812 317.308594 197.054688 C 318.351562 196.417969 319.457031 195.910156 320.617188 195.527344 C 321.523438 195.222656 322.414062 194.867188 323.351562 194.652344 C 323.890625 194.53125 324.414062 194.359375 324.957031 194.257812 C 325.382812 194.175781 325.8125 194.132812 326.242188 194.046875 C 326.75 193.945312 327.261719 193.851562 327.789062 193.828125 C 327.988281 193.820312 328.183594 193.753906 328.382812 193.714844 C 328.726562 193.652344 329.0625 193.582031 329.40625 193.53125 C 329.722656 193.46875 330.035156 193.425781 330.355469 193.402344 C 331.050781 193.367188 331.726562 193.183594 332.425781 193.136719 C 332.941406 193.097656 333.457031 193.011719 333.976562 192.960938 C 334.496094 192.910156 335.003906 192.773438 335.515625 192.679688 C 335.773438 192.636719 336.035156 192.617188 336.289062 192.5625 C 336.660156 192.492188 337.027344 192.417969 337.394531 192.34375 C 337.875 192.242188 338.355469 192.121094 338.855469 192.132812 C 339.0625 192.128906 339.261719 192.09375 339.453125 192.03125 C 339.957031 191.886719 340.453125 191.722656 340.949219 191.566406 C 341.476562 191.402344 342.003906 191.246094 342.527344 191.078125 C 342.804688 190.992188 343.078125 190.890625 343.339844 190.773438 C 344.078125 190.433594 344.835938 190.144531 345.605469 189.875 C 345.878906 189.78125 346.140625 189.652344 346.410156 189.550781 C 347.496094 189.140625 348.582031 188.742188 349.6875 188.378906 C 350.054688 188.25 350.425781 188.238281 350.800781 188.339844 C 351.09375 188.410156 351.257812 188.59375 351.296875 188.886719 C 351.375 189.273438 351.328125 189.640625 351.15625 189.992188 C 350.839844 190.609375 350.527344 191.234375 350.183594 191.839844 C 349.996094 192.164062 349.742188 192.449219 349.523438 192.757812 C 348.851562 193.703125 348.117188 194.601562 347.386719 195.503906 C 346.988281 195.996094 346.511719 196.433594 346.042969 196.863281 C 345.410156 197.421875 344.730469 197.914062 344 198.335938 C 343.699219 198.515625 343.410156 198.710938 343.132812 198.921875 C 342.503906 199.390625 341.851562 199.820312 341.132812 200.148438 C 340.949219 200.230469 340.78125 200.34375 340.597656 200.4375 C 340.210938 200.632812 339.824219 200.835938 339.429688 201.015625 C 338.1875 201.582031 336.929688 202.105469 335.660156 202.605469 C 333.902344 203.292969 332.085938 203.785156 330.253906 204.234375 C 329.773438 204.351562 329.289062 204.445312 328.804688 204.535156 C 328.578125 204.582031 328.347656 204.609375 328.117188 204.617188 C 327.1875 204.636719 326.261719 204.65625 325.332031 204.652344 C 324.140625 204.644531 322.953125 204.625 321.761719 204.601562 C 321.386719 204.59375 321.003906 204.609375 320.636719 204.511719 C 319.535156 204.496094 318.4375 204.414062 317.332031 204.566406 C 316.5 204.679688 315.671875 204.8125 314.863281 205.050781 C 314.5 205.152344 314.132812 205.230469 313.757812 205.285156 C 313.242188 205.375 312.742188 205.519531 312.257812 205.71875 C 311.796875 205.894531 311.339844 206.074219 310.863281 206.210938 C 309.941406 206.484375 309.089844 206.917969 308.246094 207.375 L 307.097656 207.992188 C 306.78125 208.152344 306.523438 208.375 306.320312 208.664062 C 306.042969 209.070312 305.710938 209.441406 305.398438 209.820312 C 305.140625 210.132812 304.863281 210.429688 304.617188 210.753906 C 304.09375 211.445312 303.496094 212.082031 302.949219 212.757812 C 302.910156 212.800781 302.871094 212.84375 302.828125 212.886719 C 301.710938 214.023438 300.589844 215.160156 299.472656 216.296875 C 299.289062 216.492188 299.074219 216.636719 298.824219 216.722656 C 298.710938 216.761719 298.597656 216.761719 298.484375 216.722656 C 298.179688 216.621094 298.097656 216.351562 298.296875 216.117188 C 298.414062 215.988281 298.539062 215.863281 298.65625 215.738281 C 298.796875 215.589844 298.957031 215.460938 299.074219 215.292969 C 299.339844 214.910156 299.660156 214.578125 300.035156 214.296875 C 300.125 214.230469 300.1875 214.125 300.265625 214.039062 C 300.421875 213.871094 300.5625 213.675781 300.746094 213.539062 C 301.050781 213.304688 301.257812 212.980469 301.550781 212.75 C 301.828125 212.53125 302.019531 212.234375 302.269531 211.996094 C 303.03125 211.277344 303.632812 210.417969 304.367188 209.671875 C 304.730469 209.300781 305.027344 208.867188 305.335938 208.445312 C 305.921875 207.65625 306.492188 206.851562 307.082031 206.0625 C 307.257812 205.824219 307.363281 205.554688 307.503906 205.304688 C 307.542969 205.226562 307.566406 205.144531 307.566406 205.054688 C 307.570312 204.507812 307.5625 203.957031 307.347656 203.4375 C 307.3125 203.355469 307.285156 203.273438 307.269531 203.1875 C 307.117188 202.207031 306.726562 201.296875 306.394531 200.371094 C 306.253906 199.957031 306.070312 199.566406 305.847656 199.191406 C 305.664062 198.894531 305.535156 198.570312 305.378906 198.257812 C 305.261719 198.023438 305.15625 197.785156 305.027344 197.558594 C 304.417969 196.503906 303.769531 195.472656 303.078125 194.46875 C 302.523438 193.65625 301.957031 192.847656 301.457031 191.996094 C 300.871094 190.996094 300.28125 189.996094 299.828125 188.925781 C 299.726562 188.6875 299.597656 188.460938 299.558594 188.191406 C 299.535156 188.078125 299.492188 187.972656 299.4375 187.871094 C 299.257812 187.503906 299.089844 187.136719 299.007812 186.734375 C 298.980469 186.621094 298.941406 186.511719 298.886719 186.40625 C 298.40625 185.378906 298.085938 184.292969 297.753906 183.214844 C 297.496094 182.386719 297.257812 181.550781 297.03125 180.710938 C 296.929688 180.347656 296.871094 179.976562 296.792969 179.609375 C 296.660156 179.015625 296.523438 178.421875 296.398438 177.828125 C 296.285156 177.289062 296.183594 176.75 296.089844 176.207031 C 295.988281 175.636719 295.902344 175.066406 295.808594 174.496094 C 295.792969 174.4375 295.785156 174.382812 295.777344 174.324219 C 295.753906 173.597656 295.582031 172.890625 295.5625 172.160156 C 295.550781 171.726562 295.519531 171.292969 295.460938 170.863281 C 295.414062 170.523438 295.457031 170.167969 295.472656 169.824219 C 295.480469 169.5625 295.503906 169.300781 295.539062 169.042969 C 295.582031 168.78125 295.507812 168.59375 295.273438 168.460938 C 294.816406 168.203125 294.40625 167.871094 294.007812 167.542969 C 293.554688 167.179688 293.125 166.796875 292.777344 166.320312 C 292.449219 165.878906 292.070312 165.476562 291.71875 165.050781 C 290.726562 163.839844 289.773438 162.597656 288.929688 161.28125 C 288.324219 160.324219 287.808594 159.320312 287.382812 158.265625 C 286.984375 157.273438 286.597656 156.273438 286.253906 155.257812 C 286.097656 154.816406 285.996094 154.367188 285.953125 153.902344 C 285.9375 153.671875 285.871094 153.449219 285.839844 153.21875 C 285.808594 153.042969 285.832031 152.871094 285.910156 152.710938 C 286.003906 152.523438 286.175781 152.445312 286.332031 152.539062 C 286.484375 152.621094 286.628906 152.71875 286.765625 152.824219 C 287.074219 153.089844 287.371094 153.367188 287.71875 153.582031 C 287.792969 153.628906 287.859375 153.683594 287.921875 153.746094 C 288.523438 154.425781 289.289062 154.90625 290.023438 155.421875 C 290.449219 155.722656 290.867188 156.042969 291.296875 156.335938 C 291.75 156.644531 292.199219 156.96875 292.707031 157.199219 C 293.289062 157.460938 293.820312 157.816406 294.363281 158.144531 C 294.8125 158.417969 295.253906 158.691406 295.703125 158.957031 C 296.128906 159.210938 296.574219 159.417969 297.042969 159.582031 C 297.644531 159.789062 298.230469 160.046875 298.808594 160.3125 C 299.445312 160.601562 300.089844 160.855469 300.746094 161.082031 C 301.550781 161.355469 302.273438 161.789062 303.007812 162.199219 C 303.109375 162.253906 303.214844 162.292969 303.324219 162.324219 C 303.386719 162.34375 303.460938 162.300781 303.457031 162.238281 C 303.421875 161.894531 303.402344 161.546875 303.324219 161.210938 C 303.128906 160.394531 303.019531 159.5625 302.871094 158.734375 C 302.789062 158.277344 302.761719 157.816406 302.683594 157.359375 C 302.554688 156.589844 302.488281 155.808594 302.34375 155.039062 C 302.261719 154.640625 302.140625 154.257812 301.980469 153.882812 C 301.792969 153.425781 301.574219 152.984375 301.363281 152.539062 C 301.300781 152.375 301.222656 152.21875 301.132812 152.070312 C 300.78125 151.570312 300.605469 150.972656 300.269531 150.464844 C 300.191406 150.34375 300.15625 150.199219 300.097656 150.066406 C 299.964844 149.777344 299.835938 149.484375 299.699219 149.195312 C 299.507812 148.804688 299.320312 148.417969 299.207031 147.992188 C 299.144531 147.769531 299.03125 147.5625 298.9375 147.351562 C 298.800781 147.03125 298.667969 146.710938 298.515625 146.398438 C 298.019531 145.394531 297.898438 144.292969 297.691406 143.214844 C 297.65625 143.015625 297.675781 142.808594 297.664062 142.605469 C 297.636719 142.171875 297.804688 141.808594 298.050781 141.480469 C 298.253906 141.210938 298.515625 141.046875 298.84375 140.980469 C 298.902344 140.972656 298.957031 140.984375 299.011719 141.011719 C 299.0625 141.035156 299.109375 141.066406 299.148438 141.109375 C 299.496094 141.503906 299.824219 141.914062 300.035156 142.394531 C 300.378906 143.195312 300.703125 144.003906 301.035156 144.808594 C 301.058594 144.859375 301.074219 144.917969 301.085938 144.972656 C 301.367188 146.246094 301.808594 147.476562 302.011719 148.765625 C 302.019531 148.855469 302.039062 148.9375 302.070312 149.019531 C 302.390625 149.671875 302.46875 150.417969 302.910156 151.015625 C 302.929688 151.039062 302.941406 151.0625 302.953125 151.089844 C 303.148438 151.714844 303.582031 152.195312 303.945312 152.714844 C 304.144531 153 304.351562 153.28125 304.550781 153.566406 C 305.222656 154.550781 305.9375 155.496094 306.792969 156.332031 C 306.898438 156.429688 306.988281 156.542969 307.082031 156.65625 C 307.453125 157.101562 307.851562 157.523438 308.28125 157.914062 C 308.546875 158.144531 308.773438 158.40625 308.96875 158.699219 C 309.117188 158.914062 309.28125 159.113281 309.460938 159.304688 C 309.851562 159.730469 310.199219 160.191406 310.503906 160.683594 C 310.59375 160.832031 310.695312 160.972656 310.8125 161.101562 C 311.183594 161.519531 311.464844 161.988281 311.65625 162.511719 C 311.769531 162.8125 311.90625 163.097656 312.070312 163.371094 C 312.265625 163.699219 312.417969 164.039062 312.535156 164.398438 C 312.6875 164.867188 312.84375 165.335938 313.003906 165.800781 C 313.078125 166.019531 313.132812 166.246094 313.167969 166.472656 C 313.234375 166.902344 313.308594 167.332031 313.507812 167.726562 C 313.625 167.964844 313.660156 168.222656 313.714844 168.476562 C 313.875 169.183594 314.035156 169.890625 314.046875 170.621094 C 314.046875 170.820312 314.089844 171.023438 314.109375 171.222656 C 314.132812 171.425781 314.160156 171.625 314.171875 171.828125 C 314.207031 172.40625 314.222656 172.980469 314.300781 173.558594 C 314.378906 174.136719 314.351562 174.714844 314.363281 175.296875 C 314.375 175.847656 314.382812 176.398438 314.390625 176.949219 C 314.386719 177.066406 314.390625 177.179688 314.410156 177.296875 C 314.550781 177.929688 314.453125 178.5625 314.421875 179.199219 C 314.398438 179.601562 314.355469 180.007812 314.492188 180.398438 C 314.503906 180.4375 314.578125 180.460938 314.628906 180.484375 C 314.636719 180.484375 314.664062 180.449219 314.679688 180.429688 C 314.695312 180.40625 314.703125 180.378906 314.710938 180.347656 C 314.761719 180.035156 314.8125 179.722656 314.863281 179.40625 C 314.9375 178.921875 314.984375 178.425781 315.097656 177.949219 C 315.207031 177.46875 315.234375 176.976562 315.253906 176.484375 C 315.265625 176.136719 315.273438 175.789062 315.371094 175.449219 C 315.421875 175.25 315.449219 175.050781 315.449219 174.847656 C 315.46875 174.234375 315.589844 173.640625 315.691406 173.039062 C 315.816406 172.328125 315.984375 171.617188 315.960938 170.886719 C 315.953125 170.683594 315.976562 170.480469 316.023438 170.28125 C 316.191406 169.546875 316.269531 168.800781 316.390625 168.054688 C 316.410156 167.9375 316.425781 167.824219 316.429688 167.707031 C 316.453125 166.75 316.65625 165.8125 316.785156 164.863281 C 316.933594 163.746094 317.117188 162.632812 317.183594 161.503906 C 317.195312 161.359375 317.230469 161.21875 317.253906 161.074219 C 317.285156 160.875 317.328125 160.671875 317.339844 160.472656 C 317.398438 159.628906 317.371094 159.5625 316.90625 158.84375 C 316.625 158.40625 316.367188 157.953125 316.09375 157.507812 C 315.792969 157.011719 315.492188 156.519531 315.1875 156.023438 C 315.105469 155.90625 315.03125 155.78125 314.964844 155.652344 C 314.625 154.90625 314.148438 154.242188 313.652344 153.605469 C 313.132812 152.941406 312.660156 152.246094 312.160156 151.574219 C 312.109375 151.5 312.058594 151.433594 312 151.367188 C 311.34375 150.742188 310.886719 149.960938 310.316406 149.265625 C 310.046875 148.921875 309.820312 148.554688 309.628906 148.164062 C 309.3125 147.542969 308.953125 146.949219 308.550781 146.378906 C 308.332031 146.070312 308.132812 145.75 307.917969 145.441406 C 307.6875 145.109375 307.453125 144.777344 307.203125 144.453125 C 306.921875 144.085938 306.601562 143.742188 306.332031 143.367188 C 305.921875 142.796875 305.417969 142.316406 304.894531 141.859375 C 304.132812 141.1875 303.398438 140.488281 302.671875 139.777344 C 302.007812 139.128906 301.359375 138.464844 300.714844 137.800781 C 300.433594 137.507812 300.179688 137.191406 299.914062 136.882812 C 299.800781 136.75 299.699219 136.609375 299.582031 136.480469 C 299.117188 135.960938 298.644531 135.453125 298.191406 134.921875 C 297.4375 134.042969 296.691406 133.160156 296.046875 132.1875 C 295.503906 131.367188 294.917969 130.574219 294.390625 129.742188 C 294.019531 129.152344 293.640625 128.566406 293.285156 127.972656 C 292.828125 127.191406 292.457031 126.375 292.175781 125.519531 C 291.972656 124.917969 291.875 124.28125 291.742188 123.660156 C 291.652344 123.234375 291.605469 122.796875 291.484375 122.382812 C 291.339844 121.898438 291.550781 121.539062 291.808594 121.179688 C 291.878906 121.085938 292.007812 121.058594 292.125 121.066406 C 292.210938 121.070312 292.292969 121.089844 292.371094 121.128906 C 293.0625 121.5 293.714844 121.9375 294.324219 122.433594 C 294.347656 122.449219 294.367188 122.46875 294.382812 122.496094 C 294.785156 123.070312 295.421875 123.421875 295.828125 123.992188 C 295.890625 124.085938 295.996094 124.152344 296.082031 124.226562 C 296.476562 124.574219 296.863281 124.921875 297.175781 125.34375 C 297.242188 125.441406 297.320312 125.527344 297.410156 125.605469 C 297.816406 125.9375 298.132812 126.351562 298.5 126.722656 C 299.046875 127.285156 299.597656 127.839844 300.148438 128.398438 C 300.554688 128.8125 300.945312 129.242188 301.324219 129.675781 C 302.230469 130.699219 303.199219 131.660156 304.230469 132.554688 C 304.25 132.574219 304.277344 132.589844 304.296875 132.609375 C 305.488281 133.757812 306.832031 134.734375 308.011719 135.894531 C 308.855469 136.5625 309.597656 137.339844 310.359375 138.097656 C 310.613281 138.335938 310.828125 138.609375 311.003906 138.910156 C 311.316406 139.464844 311.71875 139.96875 312.097656 140.480469 C 312.226562 140.636719 312.339844 140.800781 312.445312 140.976562 C 312.6875 141.441406 312.957031 141.886719 313.253906 142.316406 C 313.539062 142.753906 313.785156 143.214844 313.984375 143.699219 C 314.136719 144.042969 314.273438 144.398438 314.457031 144.722656 C 314.699219 145.15625 314.878906 145.613281 315.078125 146.0625 C 315.109375 146.113281 315.132812 146.164062 315.152344 146.21875 C 315.425781 147.230469 315.882812 148.171875 316.195312 149.167969 C 316.34375 149.636719 316.507812 150.105469 316.609375 150.585938 C 316.847656 151.660156 317.183594 152.710938 317.371094 153.800781 C 317.378906 153.835938 317.445312 153.875 317.496094 153.886719 C 317.570312 153.90625 317.613281 153.875 317.617188 153.796875 C 317.644531 153.683594 317.664062 153.570312 317.671875 153.457031 C 317.691406 152.90625 317.710938 152.355469 317.71875 151.800781 C 317.730469 151.308594 317.707031 150.816406 317.828125 150.332031 C 317.867188 150.164062 317.847656 149.984375 317.863281 149.8125 C 317.898438 149.378906 317.882812 148.941406 318 148.511719 C 318.023438 148.429688 318.03125 148.34375 318.03125 148.253906 C 318.03125 147.613281 318.230469 146.996094 318.261719 146.359375 C 318.550781 144.78125 318.570312 143.1875 318.558594 141.59375 C 318.5625 141.503906 318.558594 141.417969 318.542969 141.332031 C 318.371094 140.652344 318.429688 139.949219 318.316406 139.261719 C 318.300781 139.207031 318.285156 139.148438 318.277344 139.09375 C 318.25 137.980469 317.90625 136.925781 317.675781 135.851562 C 317.421875 134.660156 317.125 133.480469 316.847656 132.296875 C 316.835938 132.210938 316.816406 132.125 316.785156 132.042969 C 316.445312 131.332031 316.3125 130.558594 316.089844 129.808594 C 315.96875 129.390625 315.820312 128.980469 315.640625 128.585938 C 315.429688 128.140625 315.265625 127.675781 315.097656 127.214844 C 314.894531 126.640625 314.652344 126.082031 314.363281 125.546875 C 314.242188 125.347656 314.144531 125.136719 314.066406 124.917969 C 313.796875 124.027344 313.34375 123.210938 313.007812 122.347656 C 312.921875 122.132812 312.847656 121.914062 312.785156 121.691406 C 312.679688 121.273438 312.589844 120.847656 312.425781 120.441406 C 312.277344 120.070312 312.179688 119.671875 312.046875 119.289062 C 311.8125 118.605469 311.636719 117.902344 311.4375 117.207031 C 311.398438 117.066406 311.390625 116.917969 311.347656 116.78125 C 311.105469 116.03125 311.011719 115.257812 310.902344 114.484375 C 310.867188 114.253906 310.8125 114.027344 310.765625 113.804688 C 310.601562 113.039062 310.425781 112.277344 310.382812 111.492188 C 310.371094 111.347656 310.347656 111.203125 310.320312 111.0625 C 310.300781 110.949219 310.246094 110.835938 310.246094 110.722656 C 310.222656 109.621094 310.015625 108.539062 310.007812 107.429688 C 309.992188 105.578125 310.054688 103.71875 310.050781 101.863281 C 310.046875 100.671875 310.039062 99.484375 310.03125 98.296875 C 310.027344 97.917969 309.996094 97.542969 309.9375 97.171875 C 309.84375 96.59375 309.816406 96.015625 309.855469 95.429688 C 309.867188 95.347656 309.886719 95.261719 309.914062 95.179688 C 309.9375 95.101562 310.136719 94.992188 310.203125 95.03125 C 310.808594 95.332031 311.351562 95.710938 311.71875 96.289062 C 311.890625 96.558594 312.0625 96.828125 312.210938 97.109375 C 312.679688 97.972656 313.144531 98.84375 313.59375 99.722656 C 313.84375 100.210938 314.109375 100.695312 314.273438 101.226562 C 314.628906 101.832031 314.808594 102.507812 315.066406 103.152344 C 315.324219 103.796875 315.613281 104.433594 315.808594 105.101562 C 315.867188 105.296875 315.96875 105.472656 316.046875 105.664062 C 316.597656 107.035156 317.035156 108.445312 317.5 109.851562 C 317.609375 110.179688 317.703125 110.515625 317.777344 110.855469 C 317.902344 111.394531 318.0625 111.921875 318.257812 112.4375 C 318.386719 112.789062 318.496094 113.148438 318.582031 113.515625 C 318.753906 114.21875 318.949219 114.917969 319.132812 115.617188 C 319.175781 115.757812 319.207031 115.898438 319.230469 116.042969 C 319.363281 116.902344 319.527344 117.753906 319.730469 118.597656 C 319.785156 118.820312 319.800781 119.054688 319.855469 119.28125 C 319.882812 119.363281 319.925781 119.4375 319.984375 119.503906 C 319.988281 119.519531 320.027344 119.523438 320.050781 119.53125 Z M 302.808594 172.039062 C 302.816406 172.09375 302.828125 172.152344 302.847656 172.207031 C 303.117188 172.878906 303.367188 173.558594 303.6875 174.210938 C 303.875 174.601562 304.042969 175.003906 304.226562 175.394531 C 304.464844 175.894531 304.582031 176.433594 304.75 176.957031 C 305.027344 177.8125 305.355469 178.648438 305.511719 179.539062 C 305.535156 179.683594 305.578125 179.820312 305.632812 179.957031 C 305.796875 180.332031 305.851562 180.734375 305.941406 181.128906 C 306 181.410156 306.050781 181.695312 306.117188 181.976562 C 306.222656 182.457031 306.261719 182.949219 306.332031 183.4375 C 306.371094 183.722656 306.40625 184.011719 306.445312 184.296875 C 306.535156 184.984375 306.652344 185.667969 306.671875 186.367188 C 306.699219 187.203125 306.648438 188.046875 306.828125 188.878906 C 306.804688 189.691406 306.96875 190.492188 307.035156 191.296875 C 307.046875 191.441406 307.035156 191.59375 307.082031 191.730469 C 307.195312 192.097656 307.183594 192.472656 307.222656 192.847656 C 307.265625 193.25 307.324219 193.652344 307.363281 194.054688 C 307.390625 194.34375 307.429688 194.628906 307.484375 194.914062 C 307.582031 195.425781 307.65625 195.941406 307.703125 196.460938 C 307.742188 196.863281 307.753906 197.269531 307.746094 197.675781 C 307.722656 198.519531 307.90625 199.34375 307.945312 200.183594 C 308.089844 200.722656 308.074219 201.273438 308.089844 201.824219 C 308.113281 202.40625 308.175781 202.980469 308.277344 203.550781 C 308.28125 203.574219 308.316406 203.617188 308.324219 203.613281 C 308.371094 203.601562 308.4375 203.585938 308.453125 203.550781 C 308.820312 202.828125 309.195312 202.109375 309.542969 201.375 C 310.082031 200.242188 310.347656 199.023438 310.703125 197.828125 C 310.785156 197.550781 310.859375 197.273438 310.96875 197.003906 C 311.03125 196.84375 311.089844 196.679688 311.144531 196.515625 C 311.398438 195.683594 311.738281 194.878906 311.84375 194.007812 C 311.851562 193.980469 311.859375 193.953125 311.871094 193.925781 C 311.949219 193.644531 312.011719 193.363281 312.105469 193.089844 C 312.246094 192.671875 312.25 192.234375 312.355469 191.8125 C 312.660156 190.574219 312.96875 189.339844 313.183594 188.082031 C 313.476562 187.164062 313.519531 186.203125 313.6875 185.265625 C 313.792969 184.695312 313.898438 184.125 313.886719 183.542969 C 313.886719 183.457031 313.902344 183.371094 313.929688 183.289062 C 314.074219 182.867188 313.980469 182.492188 313.753906 182.125 C 313.664062 181.980469 313.605469 181.8125 313.507812 181.667969 C 313.21875 181.234375 312.992188 180.761719 312.742188 180.300781 C 312.359375 179.589844 311.996094 178.863281 311.476562 178.230469 C 311.292969 178.007812 311.160156 177.746094 311.003906 177.5 C 310.941406 177.402344 310.902344 177.285156 310.820312 177.207031 C 310.296875 176.664062 309.769531 176.128906 309.238281 175.59375 C 308.527344 175.097656 307.851562 174.550781 307.128906 174.066406 C 306.160156 173.417969 305.117188 172.921875 304.066406 172.429688 C 303.699219 172.257812 303.320312 172.113281 302.945312 171.960938 C 302.917969 171.953125 302.890625 171.957031 302.863281 171.972656 C 302.84375 171.988281 302.832031 172.015625 302.808594 172.039062 Z M 325.839844 173.984375 C 325.734375 173.984375 325.628906 173.996094 325.527344 174.019531 C 325.054688 174.144531 324.574219 174.253906 324.113281 174.4375 C 323.902344 174.53125 323.683594 174.605469 323.460938 174.667969 C 322.421875 174.945312 321.4375 175.378906 320.429688 175.738281 C 320.183594 175.824219 319.941406 175.925781 319.707031 176.042969 C 319.011719 176.398438 318.308594 176.746094 317.742188 177.304688 C 317.496094 177.546875 317.25 177.792969 317 178.035156 C 316.285156 178.75 316.285156 178.75 315.769531 179.597656 C 315.667969 179.742188 315.613281 179.90625 315.605469 180.082031 C 315.585938 180.519531 315.507812 180.945312 315.378906 181.359375 C 315.308594 181.582031 315.265625 181.808594 315.242188 182.039062 C 315.214844 182.359375 315.152344 182.667969 315.050781 182.972656 C 314.828125 183.691406 314.632812 184.421875 314.554688 185.171875 C 314.5 185.632812 314.40625 186.085938 314.28125 186.53125 C 314.105469 187.203125 313.957031 187.878906 313.828125 188.558594 C 313.632812 189.613281 313.457031 190.667969 313.121094 191.691406 C 313.058594 191.882812 313.007812 192.078125 312.96875 192.277344 C 312.816406 193.101562 312.617188 193.917969 312.375 194.722656 C 312.347656 194.804688 312.328125 194.886719 312.3125 194.972656 C 312.304688 195.03125 312.304688 195.089844 312.3125 195.148438 C 312.3125 195.175781 312.320312 195.203125 312.339844 195.226562 C 312.375 195.257812 312.429688 195.242188 312.460938 195.175781 C 312.628906 194.84375 312.785156 194.496094 312.960938 194.167969 C 313.164062 193.785156 313.386719 193.410156 313.59375 193.03125 C 314.09375 192.113281 314.734375 191.289062 315.300781 190.414062 C 315.367188 190.320312 315.441406 190.230469 315.523438 190.148438 C 315.875 189.761719 316.199219 189.351562 316.496094 188.925781 C 316.582031 188.808594 316.65625 188.679688 316.761719 188.582031 C 317.023438 188.34375 317.203125 188.046875 317.390625 187.757812 C 318.066406 186.707031 318.820312 185.714844 319.582031 184.734375 C 320.007812 184.1875 320.402344 183.617188 320.765625 183.023438 C 321.28125 182.1875 321.851562 181.382812 322.347656 180.535156 C 322.722656 179.882812 323.136719 179.253906 323.589844 178.652344 C 323.644531 178.582031 323.691406 178.511719 323.734375 178.4375 C 324.082031 177.867188 324.425781 177.296875 324.773438 176.730469 C 325.089844 176.210938 325.414062 175.699219 325.730469 175.175781 C 325.894531 174.90625 326.042969 174.621094 326.191406 174.339844 C 326.28125 174.175781 326.152344 173.988281 325.839844 173.984375 Z M 318.457031 153.121094 C 318.480469 153.105469 318.519531 153.09375 318.527344 153.074219 C 318.597656 152.882812 318.667969 152.695312 318.726562 152.5 C 318.859375 152.054688 318.972656 151.605469 319.113281 151.164062 C 319.445312 150.144531 319.78125 149.125 320.226562 148.152344 C 320.507812 147.1875 321.054688 146.371094 321.640625 145.574219 C 321.726562 145.457031 321.8125 145.34375 321.886719 145.21875 C 322.339844 144.476562 322.8125 143.746094 323.386719 143.089844 C 323.539062 142.917969 323.664062 142.71875 323.800781 142.535156 C 323.855469 142.457031 323.820312 142.328125 323.746094 142.320312 C 323.308594 142.28125 322.878906 142.300781 322.449219 142.375 C 321.53125 142.527344 320.640625 142.78125 319.75 143.042969 C 319.558594 143.089844 319.449219 143.210938 319.421875 143.40625 C 319.335938 143.921875 319.226562 144.433594 319.230469 144.957031 C 319.230469 145.132812 319.214844 145.304688 319.183594 145.476562 C 318.972656 146.617188 318.875 147.769531 318.707031 148.917969 C 318.625 149.488281 318.605469 150.074219 318.5 150.640625 C 318.359375 151.417969 318.375 152.199219 318.386719 152.980469 C 318.390625 153.027344 318.433594 153.074219 318.457031 153.121094 Z M 318.457031 153.121094 " fill-opacity="1" fill-rule="nonzero"/></g></svg>