<svg width="357" height="322" viewBox="0 0 357 322" fill="none" xmlns="http://www.w3.org/2000/svg">
<path d="M69.3527 268.508L49.785 236.372C73.4673 234.013 82.91 222.133 82.91 202.409C82.91 182.539 65.7746 170.049 45.8215 170.049C43.6183 170.049 0.67041 170.049 0.67041 170.049C0.67041 170.049 3.86833 171.57 3.86833 180.633V268.966C3.86833 278.028 0.67041 279.091 0.67041 279.091H16.2798C16.2798 279.091 13.1548 278.101 13.1548 269.039V236.831C13.1548 236.831 40.6444 236.831 40.7225 236.831L60.1392 268.508C65.6235 277.57 63.4152 279.091 63.4152 279.091H79.0246C79.0246 279.091 74.9152 277.57 69.3527 268.508ZM35.6183 234.091H13.1548V180.633C13.1548 177.284 13.535 174.919 14.0715 173.398H40.3423C55.9517 173.398 73.2381 181.471 73.2381 202.638C73.2381 228.987 56.8631 234.091 35.6183 234.091Z" fill="#42433E"/>
<path d="M150.526 245.284C150.526 260.591 140.323 274.831 121.969 274.831C107.276 274.831 97.9064 267.44 97.9064 252.747C97.9064 223.502 146.87 229.216 150.068 220.461C143.599 229.367 88.2397 218.935 88.2397 255.638C88.2397 263.94 95.0158 279.169 119.99 279.169C137.125 279.169 146.037 269.039 150.526 258.836V269.039C150.526 278.258 156.391 279.169 162.938 279.169C162.938 279.169 159.818 278.18 159.818 269.117V224.57C159.891 210.638 155.932 197.612 130.349 197.612C116.412 197.612 102.401 202.487 95.4689 217.034L103.62 222.44C106.74 209.034 117.021 200.127 130.271 200.127C148.396 200.127 150.526 212.31 150.526 224.648V245.284Z" fill="#42433E"/>
<path d="M180.754 197.69L168.343 202.487C168.343 202.487 171.468 204.013 171.468 213.148V269.039C171.468 278.101 168.27 279.169 168.27 279.169C176.494 279.169 180.754 277.57 180.754 270.185V197.69ZM257.666 279.169H273.275C273.275 279.169 270.155 278.18 270.155 269.117L270.077 217.716C270.077 193.961 227.359 187.336 225.989 220.461C230.786 196.851 260.864 194.794 260.864 216.956C260.864 265.461 260.864 269.039 260.864 269.039C260.864 278.101 257.666 279.169 257.666 279.169ZM212.968 279.169H228.577C228.577 279.169 225.379 278.18 225.379 269.117V217.716C225.379 193.961 182.583 187.336 181.291 220.461C186.088 196.851 216.166 194.794 216.166 216.956C216.166 265.461 216.166 269.039 216.166 269.039C216.166 278.101 212.968 279.169 212.968 279.169Z" fill="#42433E"/>
<path d="M317.743 197.69C296.118 197.69 278.607 216.044 278.607 238.508C278.607 260.971 296.118 279.247 317.743 279.247C339.373 279.247 356.883 260.971 356.883 238.508C356.883 216.044 339.373 197.69 317.743 197.69ZM317.743 275.742C301.451 275.742 288.201 258.534 288.201 238.127C288.201 217.716 301.451 201.195 317.743 201.195C334.04 201.195 347.29 217.716 347.29 238.127C347.29 258.534 334.04 275.742 317.743 275.742Z" fill="#42433E"/>
<path d="M23.1662 321.726C26.4266 321.726 29.1141 320.367 31.0672 318.533L28.7756 315.481C27.2651 316.877 25.3537 317.898 23.1506 317.898C19.2287 317.898 15.6037 314.695 15.6037 310.429C15.6037 306.164 19.2026 302.934 23.1922 302.934C25.2443 302.934 27.2964 303.924 28.7599 305.336L31.0672 302.351C29.0047 300.382 26.0464 299.091 23.2495 299.049C16.7026 299.049 11.5464 304.059 11.5464 310.414C11.5464 317.028 17.0724 321.726 23.1662 321.726Z" fill="#456D3E"/>
<path d="M41.6377 321.861C46.6064 321.861 50.5544 318.018 50.5544 313.2C50.5544 308.377 46.6064 304.539 41.6377 304.539C36.6533 304.539 32.7002 308.377 32.7002 313.2C32.7002 318.018 36.6533 321.861 41.6377 321.861ZM41.6377 318.33C38.7835 318.33 36.5023 316.039 36.5023 313.2C36.5023 310.362 38.7835 308.065 41.6377 308.065C44.4867 308.065 46.7523 310.362 46.7523 313.2C46.7523 316.039 44.4867 318.33 41.6377 318.33Z" fill="#456D3E"/>
<path d="M53.5225 321.346H57.3245V312.534C57.3245 309.549 58.8298 308.028 61.137 308.028C63.3089 308.028 64.7204 309.304 64.7204 312.534V321.346H68.5225V312.534C68.5225 306.315 65.6735 304.591 62.4704 304.591C60.2152 304.591 58.3818 305.445 57.2152 307.091L57.0485 305.054H53.5225V321.346Z" fill="#456D3E"/>
<path d="M77.7316 321.888C81.466 321.888 84.4816 319.867 84.4816 316.622C84.4816 313.987 82.1899 312.737 79.5649 311.763C77.1483 310.903 75.7368 310.403 75.7368 309.263C75.7368 308.341 76.7004 307.684 78.0754 307.684C79.4451 307.684 80.8983 308.273 81.7004 309.398L83.7108 307.294C82.9347 305.69 80.6118 304.523 78.1847 304.523C74.9347 304.523 72.1274 306.45 72.1274 309.492C72.1274 312.143 74.5545 313.523 76.8097 314.299C78.7264 315.018 80.6691 315.617 80.6691 316.877C80.6691 318.085 79.3097 318.7 78.0181 318.7C76.091 318.7 74.1222 317.737 73.2524 316.419L71.4868 318.726C72.3983 320.502 74.867 321.888 77.7316 321.888Z" fill="#456D3E"/>
<path d="M94.6694 321.549C98.8257 321.549 101.977 318.549 101.961 314.111L101.951 305.054H98.1486L98.159 314.096C98.159 316.664 96.6017 318.143 94.659 318.143C92.7996 318.143 91.2632 316.664 91.2632 314.096L91.2528 305.054H87.4507L87.4611 314.111C87.4611 318.549 90.5705 321.549 94.6694 321.549Z" fill="#456D3E"/>
<path d="M105.921 298.945V321.346H109.723V298.945H105.921Z" fill="#456D3E"/>
<path d="M119.356 321.617C120.429 321.617 121.585 321.414 122.465 321.117V318.143C121.923 318.32 121.121 318.523 120.58 318.523C119.179 318.523 118.34 317.596 118.34 315.971V308.46H122.455V305.054H118.34V301.82H114.903V303.289C114.903 304.674 114.199 305.367 112.856 305.367H112.298V308.46H114.538V316.132C114.538 319.226 115.908 321.617 119.356 321.617Z" fill="#456D3E"/>
<path d="M133.013 321.861C137.981 321.861 141.929 318.018 141.929 313.2C141.929 308.377 137.981 304.539 133.013 304.539C128.028 304.539 124.075 308.377 124.075 313.2C124.075 318.018 128.028 321.861 133.013 321.861ZM133.013 318.33C130.159 318.33 127.877 316.039 127.877 313.2C127.877 310.362 130.159 308.065 133.013 308.065C135.862 308.065 138.127 310.362 138.127 313.2C138.127 316.039 135.862 318.33 133.013 318.33Z" fill="#456D3E"/>
<path d="M144.897 321.346H148.7V314.393C148.7 309.56 151.278 308.216 153.668 308.174C153.923 308.174 154.158 308.205 154.33 308.231L154.918 304.403C152.689 304.414 150.189 305.268 148.632 307.768L148.424 305.054H144.897V321.346Z" fill="#456D3E"/>
<path d="M159.813 302.919C161.089 302.919 162.052 301.997 162.052 300.856C162.052 299.716 161.089 298.794 159.813 298.794C158.537 298.794 157.573 299.716 157.573 300.856C157.573 301.997 158.537 302.919 159.813 302.919ZM157.912 305.054V321.346H161.714V305.054H157.912Z" fill="#456D3E"/>
<path d="M165.02 313.2C165.02 318.101 168.535 321.861 173.139 321.861C175.504 321.861 177.551 320.898 178.79 319.148L178.952 321.346H182.493V305.054H178.952L178.79 307.278C177.525 305.544 175.478 304.539 173.139 304.539C168.618 304.539 165.02 308.19 165.02 313.2ZM168.822 313.184C168.822 310.158 171.212 308.028 173.941 308.028C176.374 308.028 178.655 309.575 178.691 313.174C178.665 316.877 176.441 318.372 173.941 318.372C171.129 318.372 168.822 316.158 168.822 313.184Z" fill="#456D3E"/>
<path d="M193.94 313.2C193.94 318.101 197.456 321.861 202.06 321.861C204.424 321.861 206.471 320.898 207.711 319.148L207.872 321.346H211.414V305.054H207.872L207.711 307.278C206.445 305.544 204.398 304.539 202.06 304.539C197.539 304.539 193.94 308.19 193.94 313.2ZM197.742 313.184C197.742 310.158 200.133 308.028 202.862 308.028C205.294 308.028 207.575 309.575 207.612 313.174C207.586 316.877 205.362 318.372 202.862 318.372C200.049 318.372 197.742 316.158 197.742 313.184Z" fill="#456D3E"/>
<path d="M215.373 321.346H219.175V312.669C219.175 309.627 220.436 308.028 222.675 308.028C224.633 308.028 225.894 309.237 225.894 312.45V321.346H229.696V312.45C229.696 309.45 231.123 308.028 233.196 308.028C235.196 308.028 236.415 309.33 236.415 312.669V321.346H240.217V312.669C240.217 306.315 237.571 304.539 234.488 304.539C232.003 304.539 230.019 305.69 228.936 307.861C227.956 305.351 226.055 304.539 223.967 304.539C221.821 304.539 220.149 305.377 219.035 306.955L218.899 305.054H215.373V321.346Z" fill="#456D3E"/>
<path d="M244.171 321.346H247.697L247.875 319.148C249.125 320.898 251.161 321.861 253.526 321.861C258.13 321.861 261.645 318.101 261.645 313.21C261.645 308.205 258.046 304.549 253.526 304.549C251.244 304.549 249.218 305.513 247.973 307.184V298.945H244.171V321.346ZM247.973 313.32C247.973 309.45 250.427 308.039 252.723 308.039C255.468 308.039 257.843 310.158 257.843 313.184C257.843 316.174 255.536 318.388 252.739 318.388C250.822 318.388 247.973 316.809 247.973 313.32Z" fill="#456D3E"/>
<path d="M266.849 302.919C268.125 302.919 269.089 301.997 269.089 300.856C269.089 299.716 268.125 298.794 266.849 298.794C265.573 298.794 264.609 299.716 264.609 300.856C264.609 301.997 265.573 302.919 266.849 302.919ZM264.948 305.054V321.346H268.75V305.054H264.948Z" fill="#456D3E"/>
<path d="M272.056 313.2C272.056 318.184 275.848 321.846 280.613 321.846C282.744 321.846 285.624 321.086 287.374 318.846L284.577 317.07C283.436 318.169 281.957 318.684 280.666 318.684C278.317 318.684 276.348 317.002 275.874 314.544H288.176C288.353 314.002 288.473 313.283 288.473 312.533C288.473 308.309 285.348 304.549 280.556 304.549C275.858 304.549 272.056 308.19 272.056 313.2ZM275.749 312.101C276.119 309.586 277.978 307.7 280.53 307.7C283.166 307.7 284.645 309.711 284.832 312.101H275.749Z" fill="#456D3E"/>
<path d="M291.44 321.346H295.242V312.534C295.242 309.549 296.747 308.028 299.055 308.028C301.226 308.028 302.638 309.304 302.638 312.534V321.346H306.44V312.534C306.44 306.315 303.591 304.591 300.388 304.591C298.133 304.591 296.299 305.445 295.133 307.091L294.966 305.054H291.44V321.346Z" fill="#456D3E"/>
<path d="M316.07 321.617C317.143 321.617 318.3 321.414 319.18 321.117V318.143C318.638 318.32 317.836 318.523 317.294 318.523C315.893 318.523 315.055 317.596 315.055 315.971V308.46H319.169V305.054H315.055V301.82H311.617V303.289C311.617 304.674 310.914 305.367 309.57 305.367H309.013V308.46H311.253V316.132C311.253 319.226 312.623 321.617 316.07 321.617Z" fill="#456D3E"/>
<path d="M320.79 313.2C320.79 318.101 324.306 321.861 328.91 321.861C331.274 321.861 333.321 320.898 334.561 319.148L334.722 321.346H338.264V305.054H334.722L334.561 307.278C333.295 305.544 331.248 304.539 328.91 304.539C324.389 304.539 320.79 308.19 320.79 313.2ZM324.592 313.184C324.592 310.158 326.983 308.028 329.712 308.028C332.144 308.028 334.425 309.575 334.462 313.174C334.436 316.877 332.212 318.372 329.712 318.372C326.899 318.372 324.592 316.158 324.592 313.184Z" fill="#456D3E"/>
<path d="M342.223 298.945V321.346H346.025V298.945H342.223Z" fill="#456D3E"/>
<path fill-rule="evenodd" clip-rule="evenodd" d="M145.865 24.3542C145.88 23.9531 148.776 25.6198 149.37 25.9271C151.401 26.9948 154.198 28.7448 157.276 30.8958C163.917 35.5573 170.927 41.1979 175.823 47.6615C182.37 56.3125 184.828 65.9635 182.61 78.9219C182.25 81.0052 181.709 82.7917 180.906 83.6094C180.334 81.6979 179.745 79.7187 179.224 78.2969C174.375 65.1667 168.594 54.4375 160.771 42.9688C155.438 35.1458 149.557 27.4062 146.974 25.3177C146.208 24.6979 145.63 24.1927 146.755 25.5156C147.698 26.6146 149.589 28.7083 151.25 31.276C154.245 35.901 158.813 41.974 163.365 49.1615C169.339 58.5937 176.349 72.2656 179.495 84.0521C179.516 84.0521 179.537 84.0573 179.557 84.0573C177.568 83.8646 173.86 81.5781 170.443 79.1406C163.354 74.0729 158.412 69.7552 154.531 61.625C151.026 54.2656 148.87 44.6563 147.453 36.526C146.479 30.9531 145.813 25.6458 145.865 24.3542ZM198.177 27.7031C198.682 24.4323 198.776 23.3646 199.729 27.0885C201.052 32.0937 202.349 37.4375 203.005 42.8333C204.235 52.8385 203.417 65.151 194.995 71.9688C193.281 73.349 190.964 74.5781 189.792 74.4531C190.693 72.4844 191.625 70.5625 192.479 68.5469C193.578 65.974 194.474 63.3229 195.141 60.625C197.818 49.7187 199.474 38.3958 199.12 27.1562C199.031 24.1771 198.839 24.9896 198.813 27.1354C198.761 32.526 198.323 37.8646 197.584 43.0938C196.62 49.974 195.188 57.9219 192.953 64.4427C191.932 67.4427 190.36 70.7865 188.896 73.9948C188.526 73.6302 188.229 73.1302 187.985 72.5208C184.854 64.625 188.537 55.0052 191.724 47.7865C193.307 44.2031 195 40.6927 196.271 36.3906C197.11 33.5208 197.74 30.5729 198.177 27.7031ZM193.787 90.3438C199.099 82.2917 207.943 74.3958 220.104 68.5833C227.849 64.8906 238.781 61.474 245.042 61.2396C245.386 61.224 245.688 61.2396 245.75 61.3333C245.807 61.4219 245.761 61.5833 245.568 61.8542C245.24 62.3594 244.469 63.0625 243.646 63.8229C241.735 65.5781 239.74 68.2396 238.042 71.0573C231.787 81.4219 231.641 93.776 226.74 105.104C221.464 117.302 213.339 126.703 201.896 128.208C200.323 128.417 198.797 128.526 197.36 128.427C195.886 128.328 194.584 127.99 193.438 127.448C195.813 123.016 198.125 118.536 200.469 114.083C211.073 93.9687 222.427 74.6458 243.011 63.0469C245.016 61.9167 241.698 63.3229 237.969 65.5781C234.735 67.526 231.323 70.1302 229.167 71.8698C225.063 75.1823 221.188 79.0937 217.688 83.2292C209.563 92.8385 203.818 103.589 197.818 114.573C195.714 118.448 193.589 122.302 191.401 126.13V126.141C190.271 125.172 189.365 123.927 188.682 122.458C187.87 120.724 187.417 118.792 187.203 116.807C186.328 108.5 189.276 97.1719 193.787 90.3438ZM129.979 165.807C125.563 163.307 121.511 160.344 118.146 157.161C115.115 154.292 112.323 151.24 109.797 148.198C106.068 143.703 102.75 138.807 99.9116 133.552C97.146 128.422 94.8387 122.953 93.0575 117.182C91.2762 111.406 90.0939 105.589 89.495 99.7969C88.8752 93.8542 88.8543 87.9375 89.396 82.125C89.9481 76.1979 91.0887 70.3698 92.771 64.7292C94.4689 59.0365 96.7241 53.526 99.4898 48.2865C102.255 43.0469 105.531 38.0781 109.276 33.4583C112.985 28.8906 117.151 24.6615 121.735 20.8646C126.229 17.1302 131.12 13.8125 136.375 10.974C141.505 8.20833 146.969 5.89583 152.74 4.11979C158.511 2.33333 164.328 1.15104 170.115 0.552081C176.063 -0.0677094 181.974 -0.0937518 187.781 0.453123C193.709 1.00521 199.531 2.14583 205.172 3.83333C210.87 5.53125 216.37 7.78125 221.61 10.5521C226.849 13.3177 231.813 16.5937 236.432 20.3437C241.005 24.0521 245.224 28.2188 249.021 32.8073C252.75 37.3021 256.068 42.1927 258.906 47.4479C261.672 52.5781 263.985 58.0469 265.761 63.8229C267.547 69.5938 268.724 75.4115 269.328 81.2031C269.943 87.1458 269.969 93.0677 269.427 98.875C268.87 104.807 267.729 110.63 266.047 116.271C264.349 121.974 262.094 127.479 259.328 132.719C256.906 137.313 254.084 141.698 250.901 145.823C243.307 155.667 233.755 163.844 222.839 169.807L223.089 169.641C247.5 152.411 263.99 126.328 265.813 96.25C266.443 85.901 265.261 75.3333 262.057 64.9635C260.354 59.4375 258.146 54.2031 255.495 49.3021C252.781 44.2656 249.604 39.5833 246.037 35.2812C242.401 30.8906 238.354 26.901 233.99 23.349C229.568 19.7656 224.813 16.625 219.802 13.974C214.792 11.3333 209.516 9.17187 204.068 7.55208C198.677 5.9375 193.099 4.84896 187.422 4.31771C181.854 3.79687 176.193 3.81771 170.511 4.41146C164.974 4.98958 159.406 6.11458 153.88 7.82292C142.688 11.2812 132.693 16.8021 124.209 23.849C115.386 31.1615 108.182 40.1146 102.912 50.0938C100.271 55.1042 98.1148 60.3802 96.4898 65.8333C94.8804 71.2344 93.7918 76.8021 93.2554 82.4844C92.7345 88.0521 92.7606 93.7083 93.3491 99.4062C93.9273 104.943 95.0575 110.516 96.7606 116.036C98.4637 121.562 100.672 126.797 103.323 131.698C105.985 136.641 109.563 141.896 113.703 146.844C117.031 150.818 121.115 154.812 125.776 158.333C130.115 161.604 135.474 164.729 141.203 166.911C155.636 172.406 176.078 170.625 177.11 151.693C177.235 149.38 177.151 147.167 175.813 143.927C174.531 140.818 173.495 136.911 172.573 134.021C171.63 131.042 170.688 128.245 169.682 125.552C169.677 125.531 169.667 125.521 169.662 125.51C170.318 125.214 170.87 124.849 171.38 124.354C171.412 124.432 171.438 124.49 171.469 124.578C173.354 129.396 174.875 134.344 176.485 139.292C177.417 142.156 178.084 143.12 178.672 138.557C178.818 137.406 178.969 136.005 179.156 134.458C180.714 121.745 181.511 95.6562 180.86 90.7396C180.584 88.6406 180.125 86.4219 179.511 84.1302C179.511 84.099 179.5 84.0781 179.495 84.0573C180.042 84.125 180.511 84.026 180.906 83.625C180.912 83.6563 180.922 83.6615 180.927 83.6927C181.203 84.6302 181.485 85.5417 181.745 86.3542C181.807 86.5521 181.964 87.1615 182.125 87.7656C182.604 89.5156 183.266 87.3958 183.552 86.6927C185.063 82.9583 186.474 79.4167 188.182 75.5729C188.412 75.0573 188.646 74.5521 188.886 74.0156C189.104 74.2344 189.479 74.4479 189.787 74.4792C189.245 75.6562 188.735 76.8281 188.245 78.0729C187.276 80.5208 186.276 82.9687 185.479 85.4844C184.729 87.849 184.151 90.2187 183.818 92.6771C183.568 94.5104 183.453 96.2865 183.386 98.0781C183.073 106.833 183.084 115.615 182.667 124.365C182.406 129.854 181.953 135.354 181.037 140.74C180.886 141.661 181.287 142.292 181.906 141.479C183.255 139.698 185.896 135.526 189.156 129.995C189.917 128.708 190.63 127.49 191.36 126.203C191.974 126.724 192.641 127.193 193.391 127.542C192.568 129.078 191.792 130.516 190.948 132.047C188.38 136.714 185.823 141.073 183.636 144.099C183.219 144.677 182.776 145.172 182.391 145.578C181.292 146.703 180.745 148.078 180.49 149.562C180.37 150.224 180.313 150.896 180.281 151.583C179.432 173.432 156.318 176.437 139.479 170.208C136.089 168.958 132.88 167.438 129.979 165.807ZM173.203 121.74C172.735 122.698 172.136 123.568 171.375 124.323C170.599 122.37 169.766 120.437 168.844 118.536C164.729 110.036 159.172 101.958 152.979 95.4375C150.13 92.4271 147.255 89.9479 144.255 87.8698C140.052 84.9479 135.615 82.8437 130.714 81.151C126.86 79.8281 122.745 78.7344 118.761 77.8802C116.781 77.4583 114.807 77.1042 112.729 76.8906C111.115 76.724 110.63 76.8385 112.865 77.2083C114.089 77.4115 115.943 77.7187 117.917 78.2656C121.818 79.3385 128.688 81.4427 133.985 83.6562C138.115 85.375 142.266 87.7812 146.016 90.8542C149.755 93.9219 153.104 97.6667 155.906 101.125C156.886 102.339 157.839 103.573 158.745 104.833C163.719 111.729 166.927 118.198 169.662 125.495C158.25 130.531 141.037 111.276 136.281 102.755C133.792 98.2969 131.474 93.8906 128.432 89.9115C123.75 83.7812 117.912 79.901 110.771 77.099C110.36 76.9375 110.136 76.8177 110.25 76.7292C110.297 76.7031 110.344 76.6667 110.412 76.6302C111.099 76.2031 112.089 75.8021 113.255 75.4271C120.604 73.0885 129.542 72.3125 137.193 73.25C144.958 74.1979 152.412 76.8333 158.344 81.3646C163.448 85.2552 167.568 90.3281 170.38 96.1927C172.969 101.583 174.49 107.917 174.584 113.922C174.62 116.682 174.297 119.484 173.203 121.74Z" fill="#456D3E"/>
</svg>
