<svg width="440" height="180" viewBox="0 0 440 180" fill="none" xmlns="http://www.w3.org/2000/svg">
<path d="M22.6589 105.844H15.8255V169.489C15.8255 171.338 16.4818 172.922 17.8047 174.239C19.1224 175.562 20.7422 176.219 22.6589 176.219H23.9505L24.0547 177.281H0.679688V176.219H2.05469C3.89844 176.219 5.48177 175.583 6.80469 174.302C8.1224 173.01 8.8151 171.442 8.88802 169.594V110.344C8.8151 108.484 8.1224 106.901 6.80469 105.594C5.48177 104.276 3.89844 103.614 2.05469 103.614H0.679688V102.531H29.4922C35.9766 102.531 41.0651 104.333 44.763 107.927C48.4714 111.526 50.3255 116.192 50.3255 121.927C50.3255 127.651 48.5599 132.594 45.0339 136.76C41.5026 140.927 37.2109 143.01 32.1589 143.01C33.2266 143.51 34.4922 144.489 35.9505 145.948C37.4089 147.406 38.7057 148.922 39.8464 150.489C45.9714 159.239 49.9557 164.63 51.8047 166.656C53.6641 168.687 54.9818 170.073 55.763 170.823C56.5391 171.573 57.3932 172.302 58.3255 173.01C59.2526 173.719 60.1797 174.291 61.0964 174.719C63.1641 175.719 65.3724 176.219 67.7214 176.219V177.281H61.8464C58.7891 177.281 55.9401 176.734 53.3047 175.635C50.6797 174.526 48.7057 173.385 47.388 172.219C46.0651 171.041 44.9297 169.901 43.9714 168.802C43.013 167.692 40.3568 164.005 36.013 157.739C31.6641 151.479 29.138 147.901 28.4297 147.01C27.7214 146.125 26.9714 145.25 26.1797 144.385C23.8984 141.969 21.6224 140.76 19.3464 140.76V139.698C19.9141 139.771 20.6641 139.802 21.5964 139.802C22.5234 139.802 23.6641 139.771 25.013 139.698C33.8464 139.489 39.3984 135.791 41.6797 128.594C42.0964 127.166 42.3047 125.833 42.3047 124.594C42.3047 123.344 42.3047 122.541 42.3047 122.177C42.1641 117.416 40.9193 113.573 38.5755 110.656C36.2266 107.739 33.0599 106.172 29.0755 105.948C27.3672 105.88 25.2266 105.844 22.6589 105.844Z" fill="#192916"/>
<path d="M149.92 176.219H150.774V177.281H126.754V176.219H127.712C129.212 176.219 130.337 175.74 131.087 174.781C131.837 173.812 132.212 172.901 132.212 172.052C132.212 171.193 132.066 170.338 131.774 169.49L124.941 151.344H96.1077L88.9619 169.594C88.6807 170.443 88.5452 171.276 88.5452 172.094C88.5452 172.917 88.9098 173.812 89.6494 174.781C90.3994 175.74 91.5244 176.219 93.0244 176.219H93.9827V177.281H72.5244V176.219H73.4827C75.2588 176.219 77.0036 175.651 78.7119 174.51C80.4202 173.375 81.8057 171.698 82.8786 169.49L107.004 112.052C109.639 106.276 110.962 102.609 110.962 101.052H111.92L140.524 169.49C141.524 171.698 142.879 173.375 144.587 174.51C146.295 175.651 148.071 176.219 149.92 176.219ZM97.3994 148.135H123.67L110.858 113.865L97.3994 148.135Z" fill="#192916"/>
<path d="M252.544 176.219H254.252V177.281H231.065V176.323H232.669C233.877 176.323 234.903 175.844 235.752 174.885C236.612 173.917 236.971 172.859 236.836 171.719L232.044 118.031L209.606 167.885C207.617 172.234 206.409 175.865 205.981 178.781H204.919L177.586 119.51L172.981 171.719C172.841 172.859 173.195 173.917 174.044 174.885C174.903 175.844 175.903 176.323 177.044 176.323H178.752V177.281H158.044V176.219H159.752C161.737 176.219 163.461 175.615 164.919 174.406C166.388 173.187 167.263 171.547 167.544 169.49L175.544 101.052H176.627L206.419 165.427L235.565 101.052H236.523L244.731 169.49C245.091 172.338 246.513 174.333 249.002 175.469C250.07 175.969 251.252 176.219 252.544 176.219Z" fill="#192916"/>
<path d="M280.882 111.781C287.965 104.63 297.2 101.052 308.59 101.052C319.976 101.052 329.226 104.63 336.34 111.781C343.465 118.937 347.028 128.318 347.028 139.927C347.028 151.526 343.465 160.901 336.34 168.052C329.226 175.208 319.976 178.781 308.59 178.781C297.2 178.781 287.965 175.208 280.882 168.052C273.799 160.901 270.257 151.526 270.257 139.927C270.257 128.318 273.799 118.937 280.882 111.781ZM286.736 165.76C292.262 172.302 299.559 175.573 308.632 175.573C317.715 175.573 325.012 172.302 330.528 165.76C336.038 159.208 338.798 150.588 338.798 139.906C338.798 132.865 337.548 126.646 335.048 121.24C332.559 115.823 329.017 111.635 324.423 108.677C319.84 105.719 314.559 104.24 308.59 104.24C299.549 104.24 292.262 107.521 286.736 114.073C281.22 120.615 278.465 129.229 278.465 139.906C278.465 150.588 281.22 159.208 286.736 165.76Z" fill="#192916"/>
<path d="M392.734 49.3749C393.036 48.1093 393.271 46.7083 393.344 45.7291C393.359 45.4999 393.37 45.2655 393.406 45.0364C393.516 44.2708 393.573 43.4999 393.573 42.7239C393.568 42.3333 393.599 41.953 393.672 41.5676C393.719 41.3437 393.74 41.1093 393.74 40.8801C393.745 39.8333 393.755 38.7916 393.734 37.7447C393.719 37.2864 393.583 36.828 393.583 36.3645C393.583 35.9062 393.724 35.4478 393.74 34.9895C393.745 34.526 393.719 34.0624 393.661 33.6041C393.609 33.1405 393.604 32.677 393.651 32.2135C393.766 30.9843 393.937 29.7603 394.01 28.526C394.062 27.6353 394.229 26.7655 394.516 25.9166C394.708 25.3697 394.859 24.8124 394.974 24.2395C395.057 23.8228 395.182 23.4166 395.344 23.026C395.651 22.2708 395.911 21.5051 396.167 20.7343C396.698 19.151 397.38 17.6301 398.286 16.2343C399.042 15.0676 399.781 13.8853 400.682 12.8176C401.307 12.0833 401.854 11.2864 402.438 10.5103C402.719 10.1458 403.042 9.802 403.297 9.41659C403.953 8.41659 404.599 7.40617 405.229 6.38534C405.453 6.02596 405.646 5.64575 405.807 5.24992C405.99 4.78638 406.219 4.33846 406.484 3.91659C406.609 3.71867 406.703 3.51034 406.76 3.28117C406.922 2.59888 407.245 1.97909 407.438 1.30721C407.557 0.880127 407.833 0.56242 408.172 0.291586C408.422 0.0884611 408.885 0.119712 409.135 0.34367C409.464 0.635336 409.667 0.99992 409.75 1.43742C409.854 1.96346 409.932 2.49992 410.021 3.03117C410.057 3.22388 410.104 3.40617 410.135 3.59888C410.234 4.20825 410.333 4.81763 410.432 5.427C410.453 5.57805 410.422 5.74992 410.479 5.88534C410.724 6.47909 410.667 7.09888 410.703 7.71346C410.729 8.177 410.745 8.63534 410.854 9.09367C411.016 9.77596 411 10.4791 410.984 11.177C410.969 11.7187 410.964 12.2499 411.078 12.7916C411.156 13.2135 411.146 13.6353 411.047 14.0572C410.995 14.2447 410.958 14.4322 410.948 14.6301C410.953 15.5624 410.729 16.4687 410.661 17.3905C410.62 17.8958 410.552 18.3905 410.448 18.8801C410.24 19.8645 410.151 20.8645 409.87 21.8333C409.625 22.6458 409.484 23.4843 409.286 24.3124C409.214 24.651 409.125 24.9895 409.01 25.3176C408.51 26.6614 408.161 28.0468 407.714 29.4062C407.557 29.9218 407.365 30.4322 407.146 30.927C406.651 31.9739 406.219 33.052 405.745 34.1093C405.229 35.2343 404.703 36.3489 404.047 37.4062C403.63 38.0572 403.281 38.7447 402.891 39.4166C402.714 39.7187 402.531 40.0155 402.333 40.2968C401.255 41.8541 400.182 43.4166 398.958 44.8697C398.51 45.401 398.063 45.9322 397.609 46.4583C396.823 47.3645 396.198 48.3958 395.51 49.3749C395.365 49.6093 395.234 49.8437 395.12 50.0885C394.917 50.4635 394.734 50.8489 394.51 51.2083C394.276 51.6093 394.068 52.026 393.891 52.453C393.635 53.0312 393.443 53.6041 393.479 54.2395C393.479 54.3958 393.458 54.5468 393.411 54.6978C393.354 54.927 393.349 55.1562 393.385 55.3853C393.484 56.3072 393.531 57.2343 393.521 58.1614C393.516 58.5103 393.542 58.8541 393.604 59.1978C393.682 59.6197 393.724 60.0416 393.724 60.4687C393.745 61.3176 393.786 62.1666 393.792 63.0208C393.797 63.8333 393.766 64.6458 393.755 65.4583C393.74 66.1926 393.724 66.927 393.708 67.6614C393.698 68.2395 393.698 68.8228 393.573 69.3905C393.526 69.6041 393.5 69.8385 393.651 70.0416C393.807 69.9739 393.875 69.828 393.927 69.6874C394.391 68.5416 394.786 67.3697 395.177 66.1978C395.865 64.1405 396.635 62.1197 397.781 60.2708C398.187 59.6093 398.557 58.9322 398.938 58.2551C399.714 56.8697 400.594 55.552 401.578 54.3072C402.219 53.4843 402.979 52.7551 403.719 52.026C403.859 51.8905 404.016 51.776 404.151 51.6353C405.255 50.4947 406.443 49.4478 407.714 48.4895C408.083 48.2083 408.427 47.8958 408.745 47.5572C409.307 46.9687 409.953 46.4687 410.562 45.9374C411.057 45.5051 411.599 45.1301 412.115 44.7239C412.365 44.5364 412.604 44.3437 412.839 44.1458C413.104 43.9218 413.391 43.7135 413.609 43.4478C413.828 43.1822 413.974 42.8593 414.151 42.5624C414.24 42.3905 414.339 42.2239 414.448 42.0676C414.958 41.427 415.276 40.6718 415.667 39.9687C416.219 39.026 416.609 38.0208 416.849 36.9583C416.901 36.6926 416.979 36.4322 417.057 36.1718C417.182 35.6874 417.354 35.2135 417.573 34.7603C417.927 34.078 418.141 33.3228 418.568 32.6718C418.974 31.6145 419.688 30.7291 420.208 29.7395C420.849 29.0103 421.344 28.1874 421.781 27.3176C421.932 27.0103 422.187 26.7551 422.391 26.4739C422.547 26.2551 422.719 26.0416 422.849 25.8072C423.047 25.4739 423.271 25.1562 423.521 24.8645C423.693 24.6562 423.849 24.4374 424.005 24.2135C424.271 23.828 424.594 23.4999 424.979 23.2291C425.224 23.0572 425.656 23.203 425.755 23.4895C425.891 23.8958 426.021 24.302 426.021 24.7343C426.021 25.776 426.036 26.8228 425.995 27.8645C425.958 28.4895 425.818 29.0885 425.568 29.6562C425.255 30.4062 424.938 31.1562 424.615 31.901C424.516 32.151 424.396 32.3905 424.255 32.6249C423.531 33.7655 422.797 34.901 422.062 36.0416C421.984 36.177 421.901 36.302 421.802 36.427C420.979 37.3801 420.516 38.5312 420.021 39.6614C419.729 40.3333 419.516 41.0416 419.24 41.7239C418.932 42.4635 418.604 43.2083 418.271 43.9478C417.776 45.0416 417.344 46.1562 417.073 47.328C416.974 47.776 416.802 48.2135 416.661 48.6562C416.417 49.427 416.135 50.1926 415.938 50.9739C415.615 52.2499 415.094 53.4687 414.833 54.7551C414.828 54.7968 414.813 54.8333 414.802 54.8697C414.125 56.677 413.505 58.5103 412.422 60.1405C411.974 60.8124 411.609 61.5416 411.203 62.2447C410.823 62.9218 410.391 63.5624 409.901 64.1614C409.656 64.4635 409.401 64.7551 409.177 65.0728C408.594 65.8958 407.906 66.6249 407.182 67.328C406.578 67.927 405.979 68.5312 405.385 69.1405C405.339 69.203 405.302 69.2708 405.281 69.3437C405.266 69.3801 405.266 69.4114 405.281 69.4478C405.307 69.4791 405.339 69.4999 405.38 69.5051C405.453 69.526 405.531 69.5312 405.609 69.5208C406.557 69.2708 407.526 69.3333 408.495 69.2916C408.995 69.2708 409.5 69.2864 410.005 69.2916C410.156 69.2916 410.328 69.2656 410.464 69.3176C410.984 69.5051 411.432 69.3593 411.896 69.1041C413.115 68.4322 414.354 67.7968 415.516 67.026C416.417 66.427 417.359 65.8905 418.219 65.2343C418.745 64.8333 419.307 64.4895 419.849 64.1249C421.005 63.3437 422.089 62.4687 423.219 61.6562C424.005 61.0885 424.703 60.4218 425.422 59.776C425.854 59.3958 426.208 58.9218 426.562 58.4687C427.057 57.828 427.531 57.1666 428.016 56.5103C428.062 56.453 428.104 56.3905 428.141 56.3176C428.49 55.5051 429.193 54.9947 429.792 54.3958C429.896 54.2916 430.052 54.2343 430.193 54.1666C430.365 54.078 430.714 54.1666 430.823 54.328C431.255 54.9583 431.5 55.6353 431.292 56.4062C431.182 56.8228 431.167 57.2447 431.13 57.6666C431.031 58.6301 430.844 59.578 430.557 60.4999C430.339 61.2447 430.146 61.9843 429.943 62.7343C429.807 63.2603 429.646 63.776 429.458 64.2864C428.964 65.6249 428.453 66.9583 427.943 68.2968C427.849 68.5468 427.755 68.802 427.641 69.0468C426.844 70.7655 426.151 72.5312 425.224 74.1874C425.203 74.2187 425.193 74.2603 425.177 74.2916C425.068 74.5416 425.125 74.7655 425.328 74.901C425.807 75.2343 426.318 75.5103 426.859 75.7291C427.219 75.8749 427.557 76.052 427.885 76.2603C428.714 76.7603 429.521 77.2916 430.344 77.7968C431.063 78.2395 431.724 78.7916 432.396 79.3072C433.042 79.802 433.708 80.276 434.307 80.8176C435.542 81.927 436.833 82.9895 437.771 84.3905C438.156 84.9687 438.526 85.5572 438.891 86.151C438.964 86.2864 439.01 86.4322 439.036 86.5833C439.057 86.703 439.036 86.8124 438.969 86.9166C438.906 87.0155 438.812 87.0833 438.698 87.1145C438.469 87.1614 438.24 87.1926 438.01 87.1978C437.266 87.1978 436.552 87.026 435.844 86.8176C435.104 86.5989 434.375 86.3385 433.641 86.1041C432.24 85.6562 430.854 85.1562 429.49 84.6093C429.203 84.4895 428.911 84.4062 428.604 84.3489C428.224 84.2708 427.854 84.1718 427.484 84.0572C426.328 83.7187 425.161 83.4791 423.953 83.453C423.375 83.4374 422.792 83.4374 422.219 83.2968C422.031 83.2551 421.839 83.2395 421.646 83.2551C420.703 83.2916 419.792 83.1405 418.891 82.9062C418.453 82.7812 418.052 82.8541 417.682 83.1249C417.557 83.2135 417.432 83.302 417.302 83.3958C416.516 83.9635 415.646 84.3801 414.76 84.776C414.339 84.9687 413.906 85.1405 413.484 85.3385C412.677 85.7083 411.87 86.078 411.073 86.4791C410.312 86.8541 409.568 87.2655 408.807 87.6562C408.536 87.7968 408.266 87.9583 407.974 88.052C407.495 88.2187 407.042 88.427 406.604 88.6822C405.865 89.0937 405.12 89.5103 404.365 89.901C403.953 90.1145 403.578 90.3958 403.188 90.6458C402.797 90.901 402.411 91.1614 402.01 91.3905C400.255 92.3801 398.62 93.5416 396.932 94.6405C395.703 95.453 394.583 96.401 393.583 97.4843C392.786 98.328 392.047 99.2187 391.516 100.266C391.214 100.849 390.87 101.411 390.547 101.984C390.411 102.224 390.339 102.479 390.323 102.75C390.286 103.37 390.214 103.99 390.161 104.599C390.156 104.755 390.156 104.906 390.161 105.062C390.161 105.177 390.214 105.297 390.193 105.406C390.005 106.239 390.078 107.099 389.896 107.932C389.771 108.5 389.677 109.068 389.542 109.63C389.469 109.932 389.432 110.24 389.375 110.542C389.193 111.609 389.078 112.687 388.932 113.755C388.823 114.599 388.661 115.432 388.589 116.281C388.531 117.01 388.37 117.734 388.266 118.458C388.167 119.146 388.068 119.833 387.995 120.526C387.917 121.219 387.911 121.911 387.755 122.599C387.729 122.75 387.724 122.906 387.745 123.057C387.745 123.115 387.807 123.161 387.849 123.208C387.885 123.203 387.917 123.182 387.943 123.151C388.286 122.458 388.734 121.828 389.109 121.151C389.729 120.036 390.432 118.974 391.214 117.963C391.266 117.901 391.312 117.838 391.354 117.776C391.927 116.755 392.755 115.927 393.547 115.083C394.099 114.49 394.776 114.031 395.5 113.651C396.083 113.344 396.667 113.042 397.255 112.755C398.266 112.26 399.318 111.891 400.396 111.562C402.245 110.995 404.13 110.557 406.005 110.099C406.417 110 406.839 109.927 407.25 109.823C407.49 109.771 407.672 109.646 407.812 109.443C408.391 108.62 408.943 107.786 409.49 106.948C409.911 106.297 410.385 105.687 410.833 105.052C411.042 104.776 411.24 104.49 411.422 104.193C411.74 103.609 412.135 103.088 412.609 102.625C412.719 102.516 412.818 102.396 412.911 102.271C413.422 101.641 413.901 100.984 414.448 100.385C415.094 99.6614 415.818 99.0208 416.615 98.4687C416.896 98.276 417.193 98.2447 417.505 98.3697C417.979 98.5416 418.292 98.8541 418.339 99.3749C418.365 99.6457 418.391 99.9166 418.396 100.187C418.411 100.651 418.391 101.115 418.495 101.573C418.521 101.646 418.531 101.724 418.521 101.797C418.37 102.302 418.438 102.786 418.552 103.281C418.563 103.323 418.563 103.359 418.547 103.396C418.281 104.141 418.453 104.932 418.219 105.682C418.047 106.234 418.089 106.833 418.115 107.417C418.125 107.599 418.224 107.693 418.406 107.703C419.266 107.672 420.094 107.479 420.922 107.292C421.484 107.161 422.036 106.984 422.599 106.828C422.745 106.781 422.896 106.745 423.047 106.719C424.177 106.578 425.208 106.146 426.24 105.698C426.589 105.536 426.943 105.391 427.307 105.271C428.349 104.937 429.297 104.406 430.25 103.896C431.276 103.354 432.276 102.766 433.286 102.198C433.557 102.042 433.828 101.896 434.083 101.724C434.573 101.406 435.078 101.12 435.599 100.87C435.979 100.677 436.344 100.458 436.714 100.245C437.167 99.9895 437.651 99.8853 438.167 99.9426C438.286 99.953 438.391 99.9895 438.49 100.052C438.573 100.12 438.698 100.25 438.677 100.328C438.573 100.812 438.604 101.323 438.391 101.797C438.161 102.328 438 102.891 437.76 103.417C437.219 104.615 436.641 105.797 436.078 106.984C435.724 107.76 435.271 108.474 434.719 109.13C434.323 109.604 433.948 110.099 433.557 110.578C433.427 110.724 433.292 110.859 433.146 110.984C432.635 111.458 432.099 111.906 431.609 112.401C430.87 113.156 430.021 113.75 429.12 114.286C427.318 115.349 425.448 116.286 423.557 117.172C422.755 117.557 421.917 117.859 421.052 118.078C420.526 118.203 420.016 118.385 419.5 118.552C418.62 118.844 417.734 119.115 416.807 119.255C416.505 119.307 416.208 119.385 415.917 119.49C415.818 119.521 415.75 119.635 415.672 119.719C415.646 119.75 415.635 119.786 415.635 119.828C415.573 120.568 415.286 121.24 415.068 121.943C414.833 122.672 414.521 123.38 414.339 124.135C414.255 124.463 414.089 124.781 413.943 125.094C413.526 125.963 413.083 126.828 412.667 127.693C412.146 128.781 411.531 129.802 410.812 130.771C409.656 132.323 408.443 133.818 407.255 135.349C406.443 136.391 405.521 137.328 404.589 138.25C403.932 138.901 403.26 139.547 402.604 140.203C402.328 140.479 402.026 140.719 401.693 140.922C401.396 141.104 401.109 141.302 400.818 141.484C400.161 141.901 399.526 142.338 398.958 142.875C398.615 143.187 398.234 143.448 397.812 143.651C396.875 144.109 395.979 144.646 395.13 145.25C394.901 145.401 394.672 145.536 394.427 145.661C393.651 146.094 392.87 146.521 392.094 146.958C391.859 147.088 391.635 147.239 391.406 147.385C390.792 147.786 390.177 148.193 389.568 148.599C389.411 148.713 389.25 148.818 389.078 148.917C387.542 149.677 386.276 150.833 384.927 151.859C383.76 152.995 382.594 154.125 381.432 155.26C381.005 155.677 380.719 156.172 380.568 156.745C380.438 157.187 380.26 157.62 380.12 158.062C379.906 158.729 379.609 159.354 379.219 159.937C379.12 160.104 379.042 160.281 378.979 160.463C378.969 160.484 378.995 160.536 379.021 160.557C379.047 160.573 379.078 160.578 379.109 160.562C379.26 160.443 379.432 160.333 379.542 160.182C379.953 159.62 380.469 159.146 380.958 158.651C381.068 158.542 381.177 158.432 381.286 158.323C382.063 157.51 382.849 156.708 383.844 156.151C384.807 155.375 385.854 154.708 386.865 153.995C387.401 153.609 387.932 153.239 388.562 153.01C388.745 152.937 388.911 152.844 389.078 152.74C390.469 151.891 391.943 151.213 393.49 150.703C394.698 150.297 395.885 149.823 397.135 149.536C397.854 149.375 398.552 149.146 399.276 149.01C399.844 148.901 400.417 148.844 400.99 148.729C401.667 148.594 402.349 148.469 403.052 148.437C403.318 148.427 403.578 148.338 403.844 148.286C404.302 148.203 404.75 148.109 405.208 148.042C405.63 147.958 406.047 147.901 406.474 147.87C407.401 147.823 408.302 147.578 409.234 147.516C409.922 147.463 410.609 147.349 411.302 147.281C411.995 147.213 412.672 147.031 413.354 146.906C413.698 146.849 414.047 146.823 414.385 146.75C414.88 146.656 415.37 146.557 415.859 146.458C416.5 146.323 417.141 146.161 417.807 146.177C418.083 146.172 418.349 146.125 418.604 146.042C419.276 145.849 419.938 145.63 420.599 145.422C421.302 145.203 422.005 144.995 422.703 144.771C423.073 144.656 423.438 144.521 423.786 144.365C424.771 143.911 425.781 143.526 426.807 143.167C427.172 143.042 427.521 142.87 427.88 142.734C429.328 142.187 430.776 141.656 432.25 141.172C432.74 141 433.234 140.984 433.734 141.12C434.125 141.213 434.344 141.458 434.396 141.849C434.5 142.365 434.437 142.854 434.208 143.323C433.786 144.146 433.37 144.979 432.911 145.786C432.661 146.219 432.323 146.599 432.031 147.01C431.135 148.271 430.156 149.469 429.182 150.672C428.651 151.328 428.016 151.911 427.391 152.484C426.547 153.229 425.641 153.885 424.667 154.448C424.266 154.687 423.88 154.948 423.51 155.229C422.672 155.854 421.802 156.427 420.844 156.865C420.599 156.974 420.375 157.125 420.13 157.25C419.615 157.51 419.099 157.781 418.573 158.021C416.917 158.776 415.24 159.474 413.547 160.141C411.203 161.057 408.781 161.713 406.339 162.312C405.698 162.469 405.052 162.594 404.406 162.713C404.104 162.776 403.797 162.812 403.49 162.823C402.25 162.849 401.016 162.875 399.776 162.87C398.187 162.859 396.604 162.833 395.016 162.802C394.516 162.792 394.005 162.812 393.516 162.682C392.047 162.661 390.583 162.552 389.109 162.755C388 162.906 386.896 163.083 385.818 163.401C385.333 163.536 384.844 163.641 384.344 163.713C383.656 163.833 382.99 164.026 382.344 164.292C381.729 164.526 381.12 164.766 380.484 164.948C379.255 165.312 378.12 165.891 376.995 166.5L375.464 167.323C375.042 167.536 374.698 167.833 374.427 168.219C374.057 168.76 373.615 169.255 373.198 169.76C372.854 170.177 372.484 170.573 372.156 171.005C371.458 171.927 370.661 172.776 369.932 173.677C369.88 173.734 369.828 173.792 369.771 173.849C368.281 175.365 366.786 176.88 365.297 178.396C365.052 178.656 364.766 178.849 364.432 178.963C364.281 179.016 364.13 179.016 363.979 178.963C363.573 178.828 363.464 178.469 363.729 178.156C363.885 177.984 364.052 177.818 364.208 177.651C364.396 177.453 364.609 177.281 364.766 177.057C365.12 176.547 365.547 176.104 366.047 175.729C366.167 175.641 366.25 175.5 366.354 175.385C366.562 175.161 366.75 174.901 366.995 174.719C367.401 174.406 367.677 173.974 368.068 173.667C368.437 173.375 368.693 172.979 369.026 172.661C370.042 171.703 370.844 170.557 371.823 169.562C372.307 169.068 372.703 168.49 373.115 167.927C373.896 166.875 374.656 165.802 375.443 164.75C375.677 164.432 375.818 164.073 376.005 163.74C376.057 163.635 376.089 163.526 376.089 163.406C376.094 162.677 376.083 161.943 375.797 161.25C375.75 161.141 375.714 161.031 375.693 160.917C375.49 159.609 374.969 158.396 374.526 157.161C374.339 156.609 374.094 156.088 373.797 155.588C373.552 155.193 373.38 154.76 373.172 154.344C373.016 154.031 372.875 153.713 372.703 153.411C371.891 152.005 371.026 150.63 370.104 149.292C369.365 148.208 368.609 147.13 367.943 145.995C367.161 144.661 366.375 143.328 365.771 141.901C365.635 141.583 365.464 141.281 365.411 140.922C365.38 140.771 365.323 140.63 365.25 140.495C365.01 140.005 364.786 139.516 364.677 138.979C364.641 138.828 364.589 138.682 364.516 138.542C363.875 137.172 363.448 135.724 363.005 134.286C362.661 133.182 362.344 132.068 362.042 130.948C361.906 130.463 361.828 129.969 361.724 129.479C361.547 128.687 361.365 127.896 361.198 127.104C361.047 126.385 360.911 125.667 360.786 124.943C360.651 124.182 360.536 123.422 360.411 122.661C360.391 122.583 360.38 122.51 360.37 122.432C360.339 121.463 360.109 120.521 360.083 119.547C360.068 118.969 360.026 118.391 359.948 117.818C359.885 117.365 359.943 116.891 359.964 116.432C359.974 116.083 360.005 115.734 360.052 115.391C360.109 115.042 360.01 114.792 359.698 114.615C359.089 114.271 358.542 113.828 358.01 113.391C357.406 112.906 356.833 112.396 356.37 111.76C355.932 111.172 355.427 110.635 354.958 110.068C353.635 108.453 352.365 106.797 351.24 105.042C350.432 103.766 349.745 102.427 349.177 101.021C348.646 99.6978 348.13 98.3645 347.672 97.0103C347.464 96.4218 347.328 95.8228 347.271 95.203C347.25 94.8957 347.161 94.5989 347.12 94.2916C347.078 94.0572 347.109 93.828 347.214 93.6145C347.339 93.3645 347.568 93.2603 347.776 93.3853C347.979 93.4947 348.172 93.6249 348.354 93.7655C348.766 94.1197 349.161 94.4895 349.625 94.776C349.724 94.8385 349.812 94.9114 349.896 94.9947C350.698 95.901 351.719 96.5416 352.698 97.2291C353.266 97.6301 353.823 98.0572 354.396 98.4478C355 98.8593 355.599 99.2916 356.276 99.5989C357.052 99.9478 357.76 100.422 358.484 100.859C359.083 101.224 359.672 101.588 360.271 101.943C360.839 102.281 361.432 102.557 362.057 102.776C362.859 103.052 363.641 103.396 364.411 103.75C365.26 104.135 366.12 104.474 366.995 104.776C368.068 105.141 369.031 105.719 370.01 106.266C370.146 106.338 370.286 106.391 370.432 106.432C370.516 106.458 370.615 106.401 370.609 106.318C370.563 105.859 370.536 105.396 370.432 104.948C370.172 103.859 370.026 102.75 369.828 101.646C369.719 101.036 369.682 100.422 369.578 99.8124C369.406 98.7864 369.318 97.7447 369.125 96.7187C369.016 96.1874 368.854 95.677 368.641 95.177C368.391 94.5676 368.099 93.9791 367.818 93.3853C367.734 93.1666 367.63 92.9583 367.51 92.7603C367.042 92.0937 366.807 91.2968 366.359 90.6197C366.255 90.4583 366.208 90.2655 366.13 90.0885C365.953 89.703 365.781 89.3124 365.599 88.927C365.344 88.4062 365.094 87.8905 364.943 87.3228C364.859 87.026 364.708 86.7499 364.583 86.4687C364.401 86.0416 364.224 85.6145 364.021 85.1978C363.359 83.8593 363.198 82.3905 362.922 80.953C362.875 80.6874 362.901 80.4114 362.885 80.1405C362.849 79.5624 363.073 79.078 363.401 78.6405C363.672 78.2812 364.021 78.0624 364.458 77.9739C364.536 77.9635 364.609 77.9791 364.682 78.0155C364.75 78.0468 364.812 78.0885 364.865 78.1458C365.328 78.6718 365.766 79.2187 366.047 79.8593C366.505 80.927 366.937 82.0051 367.38 83.078C367.411 83.1458 367.432 83.2239 367.448 83.2968C367.823 84.9947 368.411 86.6353 368.682 88.3541C368.693 88.4739 368.719 88.5833 368.76 88.6926C369.187 89.5624 369.292 90.5572 369.88 91.3541C369.906 91.3853 369.922 91.4166 369.938 91.453C370.198 92.2864 370.776 92.927 371.26 93.6197C371.526 93.9999 371.802 94.3749 372.068 94.7551C372.964 96.0676 373.917 97.328 375.057 98.4426C375.198 98.5728 375.318 98.7239 375.443 98.8749C375.938 99.4687 376.469 100.031 377.042 100.552C377.396 100.859 377.698 101.208 377.958 101.599C378.156 101.885 378.375 102.151 378.615 102.406C379.135 102.974 379.599 103.588 380.005 104.245C380.125 104.443 380.26 104.63 380.417 104.802C380.911 105.359 381.286 105.984 381.542 106.682C381.693 107.083 381.875 107.463 382.094 107.828C382.354 108.266 382.557 108.719 382.714 109.198C382.917 109.823 383.125 110.448 383.339 111.068C383.437 111.359 383.51 111.661 383.557 111.963C383.646 112.536 383.745 113.109 384.01 113.635C384.167 113.953 384.214 114.297 384.286 114.635C384.5 115.578 384.714 116.521 384.729 117.495C384.729 117.76 384.786 118.031 384.812 118.297C384.844 118.568 384.88 118.833 384.896 119.104C384.943 119.875 384.964 120.641 385.068 121.411C385.172 122.182 385.135 122.953 385.151 123.729C385.167 124.463 385.177 125.198 385.188 125.932C385.182 126.088 385.187 126.24 385.214 126.396C385.401 127.24 385.271 128.083 385.229 128.932C385.198 129.469 385.141 130.01 385.323 130.531C385.339 130.583 385.438 130.615 385.505 130.646C385.516 130.646 385.552 130.599 385.573 130.573C385.594 130.542 385.604 130.505 385.615 130.463C385.682 130.047 385.75 129.63 385.818 129.208C385.917 128.562 385.979 127.901 386.13 127.266C386.276 126.625 386.312 125.969 386.339 125.312C386.354 124.849 386.365 124.385 386.495 123.932C386.562 123.667 386.599 123.401 386.599 123.13C386.625 122.312 386.786 121.521 386.922 120.719C387.089 119.771 387.312 118.823 387.281 117.849C387.271 117.578 387.302 117.307 387.365 117.042C387.589 116.062 387.693 115.068 387.854 114.073C387.88 113.917 387.901 113.766 387.906 113.609C387.937 112.333 388.208 111.083 388.38 109.818C388.578 108.328 388.823 106.844 388.911 105.338C388.927 105.146 388.974 104.958 389.005 104.766C389.047 104.5 389.104 104.229 389.12 103.963C389.198 102.838 389.161 102.75 388.542 101.792C388.167 101.208 387.823 100.604 387.458 100.01C387.057 99.3489 386.656 98.6926 386.25 98.0312C386.141 97.8749 386.042 97.7083 385.953 97.5364C385.5 96.5416 384.865 95.6562 384.203 94.8072C383.51 93.9218 382.88 92.9947 382.214 92.0989C382.146 91.9999 382.078 91.9114 382 91.8228C381.125 90.9895 380.516 89.9478 379.755 89.0208C379.396 88.5624 379.094 88.0728 378.839 87.552C378.417 86.7239 377.937 85.9322 377.401 85.1718C377.109 84.7603 376.844 84.3333 376.557 83.9218C376.25 83.4791 375.937 83.0364 375.604 82.6041C375.229 82.1145 374.802 81.6562 374.443 81.1562C373.896 80.3958 373.224 79.7551 372.526 79.1458C371.51 78.2499 370.531 77.3176 369.562 76.3697C368.677 75.5051 367.812 74.6197 366.953 73.7343C366.578 73.3437 366.24 72.9218 365.885 72.5103C365.734 72.3333 365.599 72.1458 365.443 71.9739C364.823 71.2812 364.193 70.6041 363.589 69.8958C362.583 68.7239 361.589 67.5468 360.729 66.2499C360.005 65.1562 359.224 64.0989 358.521 62.9895C358.026 62.203 357.521 61.4218 357.047 60.6301C356.438 59.5885 355.943 58.4999 355.568 57.3593C355.297 56.5572 355.167 55.7083 354.99 54.8801C354.87 54.3124 354.807 53.7291 354.646 53.177C354.453 52.5312 354.734 52.052 355.078 51.5728C355.172 51.4478 355.344 51.4114 355.5 51.4218C355.615 51.427 355.724 51.453 355.828 51.5051C356.75 51.9999 357.62 52.5833 358.432 53.2447C358.464 53.2655 358.49 53.2916 358.51 53.328C359.047 54.0937 359.896 54.5624 360.438 55.3228C360.521 55.4478 360.661 55.5364 360.776 55.6353C361.302 56.0989 361.818 56.5624 362.234 57.1249C362.323 57.2551 362.427 57.3697 362.547 57.4739C363.089 57.9166 363.51 58.4687 364 58.9635C364.729 59.7135 365.464 60.453 366.198 61.1978C366.74 61.7499 367.26 62.3228 367.766 62.901C368.974 64.2655 370.266 65.5468 371.641 66.7395C371.667 66.7656 371.703 66.7864 371.729 66.8124C373.318 68.3437 375.109 69.6458 376.682 71.1926C377.807 72.0833 378.797 73.1197 379.812 74.1301C380.151 74.4478 380.438 74.8124 380.672 75.2135C381.089 75.953 381.625 76.6249 382.13 77.3072C382.302 77.5155 382.453 77.7343 382.594 77.9687C382.917 78.5885 383.276 79.1822 383.672 79.7551C384.052 80.3385 384.38 80.9531 384.646 81.5989C384.849 82.0572 385.031 82.5312 385.276 82.9635C385.599 83.5416 385.839 84.151 386.104 84.7499C386.146 84.8176 386.177 84.8853 386.203 84.9583C386.568 86.3072 387.177 87.5624 387.594 88.8905C387.792 89.5155 388.01 90.1405 388.146 90.7812C388.464 92.2135 388.911 93.6145 389.161 95.0676C389.172 95.1145 389.26 95.1666 389.328 95.1822C389.427 95.2083 389.484 95.1666 389.49 95.0624C389.526 94.9114 389.552 94.7603 389.562 94.6093C389.589 93.8749 389.615 93.1405 389.625 92.401C389.641 91.7447 389.609 91.0885 389.771 90.4426C389.823 90.2187 389.797 89.9791 389.818 89.7499C389.865 89.1718 389.844 88.5885 390 88.0155C390.031 87.9062 390.042 87.7916 390.042 87.6718C390.042 86.8176 390.307 85.9947 390.349 85.1458C390.734 83.0416 390.76 80.9166 390.745 78.7916C390.75 78.6718 390.745 78.5572 390.724 78.4426C390.495 77.5364 390.573 76.5989 390.422 75.6822C390.401 75.6093 390.38 75.5312 390.37 75.4583C390.333 73.9739 389.875 72.5676 389.568 71.1353C389.229 69.5468 388.833 67.9739 388.464 66.3958C388.448 66.2812 388.422 66.1666 388.38 66.0572C387.927 65.1093 387.75 64.078 387.453 63.078C387.292 62.5208 387.094 61.9739 386.854 61.4478C386.573 60.8541 386.354 60.2343 386.13 59.6197C385.859 58.8541 385.536 58.1093 385.151 57.3958C384.99 57.1301 384.859 56.8489 384.755 56.5572C384.396 55.3697 383.792 54.2812 383.344 53.1301C383.229 52.8437 383.13 52.552 383.047 52.2551C382.906 51.6978 382.786 51.1301 382.568 50.5885C382.37 50.0937 382.24 49.5624 382.062 49.052C381.75 48.1405 381.516 47.203 381.25 46.276C381.198 46.0885 381.188 45.8905 381.13 45.7083C380.807 44.7083 380.682 43.677 380.536 42.6458C380.49 42.3385 380.417 42.0364 380.354 41.7395C380.135 40.7187 379.901 39.703 379.844 38.6562C379.828 38.4635 379.797 38.2708 379.76 38.0833C379.734 37.9322 379.661 37.7812 379.661 37.6301C379.63 36.1614 379.354 34.7187 379.344 33.2395C379.323 30.7708 379.406 28.2916 379.401 25.8176C379.396 24.2291 379.385 22.6458 379.375 21.0624C379.37 20.5572 379.328 20.0572 379.25 19.5624C379.125 18.7916 379.089 18.0208 379.141 17.2395C379.156 17.1301 379.182 17.0155 379.219 16.9062C379.25 16.802 379.516 16.6562 379.604 16.7083C380.411 17.1093 381.135 17.6145 381.625 18.3853C381.854 18.7447 382.083 19.1041 382.281 19.4791C382.906 20.6301 383.526 21.7916 384.125 22.9635C384.458 23.6145 384.812 24.2603 385.031 24.9687C385.505 25.776 385.745 26.677 386.089 27.5364C386.432 28.3958 386.818 29.2447 387.078 30.1353C387.156 30.3958 387.292 30.6301 387.396 30.8853C388.13 32.7135 388.714 34.5937 389.333 36.4687C389.479 36.9062 389.604 37.3541 389.703 37.8072C389.87 38.526 390.083 39.2291 390.344 39.9166C390.516 40.3853 390.661 40.8645 390.776 41.3541C391.005 42.2916 391.266 43.2239 391.51 44.1562C391.568 44.3437 391.609 44.5312 391.641 44.7239C391.818 45.8697 392.036 47.0051 392.307 48.1301C392.38 48.427 392.401 48.7395 392.474 49.0416C392.51 49.151 392.568 49.2499 392.646 49.3385C392.651 49.3593 392.703 49.3645 392.734 49.3749ZM369.745 119.385C369.755 119.458 369.771 119.536 369.797 119.609C370.156 120.505 370.49 121.411 370.917 122.281C371.167 122.802 371.391 123.338 371.635 123.859C371.953 124.526 372.109 125.245 372.333 125.943C372.703 127.083 373.141 128.198 373.349 129.385C373.38 129.578 373.437 129.76 373.51 129.943C373.729 130.443 373.802 130.979 373.922 131.505C374 131.88 374.068 132.26 374.156 132.635C374.297 133.276 374.349 133.932 374.443 134.583C374.495 134.963 374.542 135.349 374.594 135.729C374.714 136.646 374.87 137.557 374.896 138.49C374.932 139.604 374.865 140.729 375.104 141.838C375.073 142.922 375.292 143.99 375.38 145.062C375.396 145.255 375.38 145.458 375.443 145.641C375.594 146.13 375.578 146.63 375.63 147.13C375.688 147.667 375.766 148.203 375.818 148.74C375.854 149.125 375.906 149.505 375.979 149.885C376.109 150.568 376.208 151.255 376.271 151.948C376.323 152.484 376.339 153.026 376.328 153.568C376.297 154.693 376.542 155.792 376.594 156.911C376.786 157.63 376.766 158.365 376.786 159.099C376.818 159.875 376.901 160.641 377.036 161.401C377.042 161.432 377.089 161.49 377.099 161.484C377.161 161.469 377.25 161.448 377.271 161.401C377.76 160.437 378.26 159.479 378.724 158.5C379.443 156.99 379.797 155.365 380.271 153.771C380.38 153.401 380.479 153.031 380.625 152.672C380.708 152.458 380.786 152.24 380.859 152.021C381.198 150.911 381.651 149.838 381.792 148.677C381.802 148.641 381.812 148.604 381.828 148.568C381.932 148.193 382.016 147.818 382.141 147.453C382.328 146.896 382.333 146.312 382.474 145.75C382.88 144.099 383.292 142.453 383.578 140.776C383.969 139.552 384.026 138.271 384.25 137.021C384.391 136.26 384.531 135.5 384.516 134.724C384.516 134.609 384.536 134.495 384.573 134.385C384.766 133.823 384.641 133.323 384.339 132.833C384.219 132.641 384.141 132.417 384.01 132.224C383.625 131.646 383.323 131.016 382.99 130.401C382.479 129.453 381.995 128.484 381.302 127.641C381.057 127.344 380.88 126.995 380.672 126.667C380.589 126.536 380.536 126.38 380.427 126.276C379.729 125.552 379.026 124.838 378.318 124.125C377.37 123.463 376.469 122.734 375.505 122.088C374.214 121.224 372.823 120.562 371.422 119.906C370.932 119.677 370.427 119.484 369.927 119.281C369.891 119.271 369.854 119.276 369.818 119.297C369.792 119.318 369.776 119.354 369.745 119.385ZM400.453 121.979C400.312 121.979 400.172 121.995 400.036 122.026C399.406 122.193 398.766 122.338 398.151 122.583C397.87 122.708 397.578 122.807 397.281 122.891C395.896 123.26 394.583 123.838 393.24 124.318C392.911 124.432 392.589 124.568 392.276 124.724C391.349 125.198 390.411 125.661 389.656 126.406C389.328 126.729 389 127.057 388.667 127.38C387.714 128.333 387.714 128.333 387.026 129.463C386.891 129.656 386.818 129.875 386.807 130.109C386.781 130.693 386.677 131.26 386.505 131.812C386.411 132.109 386.354 132.411 386.323 132.719C386.286 133.146 386.203 133.557 386.068 133.963C385.771 134.922 385.51 135.896 385.406 136.896C385.333 137.51 385.208 138.115 385.042 138.708C384.807 139.604 384.609 140.505 384.438 141.411C384.177 142.818 383.943 144.224 383.495 145.588C383.411 145.844 383.344 146.104 383.292 146.37C383.089 147.469 382.823 148.557 382.5 149.63C382.464 149.74 382.437 149.849 382.417 149.963C382.406 150.042 382.406 150.12 382.417 150.198C382.417 150.234 382.427 150.271 382.453 150.302C382.5 150.344 382.573 150.323 382.615 150.234C382.839 149.792 383.047 149.328 383.281 148.891C383.552 148.38 383.849 147.88 384.125 147.375C384.792 146.151 385.646 145.052 386.401 143.885C386.49 143.76 386.589 143.641 386.698 143.531C387.167 143.016 387.599 142.469 387.995 141.901C388.109 141.745 388.208 141.573 388.349 141.443C388.698 141.125 388.938 140.729 389.188 140.344C390.089 138.943 391.094 137.62 392.109 136.312C392.677 135.583 393.203 134.823 393.688 134.031C394.375 132.917 395.135 131.844 395.797 130.713C396.297 129.844 396.849 129.005 397.453 128.203C397.526 128.109 397.589 128.016 397.646 127.917C398.109 127.156 398.568 126.396 399.031 125.641C399.453 124.948 399.885 124.266 400.307 123.568C400.526 123.208 400.724 122.828 400.922 122.453C401.042 122.234 400.87 121.984 400.453 121.979ZM390.609 94.1614C390.641 94.1405 390.693 94.1249 390.703 94.0989C390.797 93.8437 390.891 93.5937 390.969 93.3333C391.146 92.7395 391.297 92.1405 391.484 91.552C391.927 90.1926 392.375 88.8333 392.969 87.5364C393.344 86.2499 394.073 85.1614 394.854 84.0989C394.969 83.9426 395.083 83.7916 395.182 83.6249C395.786 82.6353 396.417 81.6614 397.182 80.7864C397.385 80.5572 397.552 80.2916 397.734 80.0468C397.807 79.9426 397.76 79.7708 397.661 79.7603C397.078 79.7083 396.505 79.7343 395.932 79.8333C394.708 80.0364 393.521 80.3749 392.333 80.7239C392.078 80.7864 391.932 80.9478 391.896 81.2083C391.781 81.8958 391.635 82.578 391.641 83.276C391.641 83.5103 391.62 83.7395 391.578 83.9687C391.297 85.4895 391.167 87.026 390.943 88.5572C390.833 89.3176 390.807 90.0989 390.667 90.8541C390.479 91.8905 390.5 92.9322 390.516 93.9739C390.521 94.0364 390.578 94.0989 390.609 94.1614Z" fill="#386631"/>
</svg>
