<svg width="90" height="87" viewBox="0 0 90 87" fill="none" xmlns="http://www.w3.org/2000/svg">
<path d="M90 20.0398L89.8211 20.3261L89.6779 20.6481L89.499 21.1491V21.328L89.4632 21.4354L89.3559 21.5785L88.9264 22.0437L88.8907 22.1153L88.8191 22.2942L88.7117 22.5089L88.7475 22.6879L88.7833 23.0099L88.7475 23.332L88.6402 23.6899L88.497 24.0119L88.3181 24.2624L88.0676 24.5129L87.9602 24.6561L87.9245 24.7992V25.1571L87.8887 25.2286L87.7455 25.4076L87.7098 25.4791L87.7455 25.6581V25.7654L87.6382 25.8728L87.5308 26.1233L87.4593 26.159H87.3877L87.3161 26.1948L87.2803 26.2664L87.2445 26.3738L87.2087 26.4453L87.1372 26.5527L87.1014 26.6243V26.7316L87.2087 26.9463V27.34L87.173 27.4831L87.1014 27.6262V27.662L86.9583 27.8052L86.8867 27.9483V27.9841L86.9225 28.1272L86.994 28.2704V28.4851L86.9583 28.5209V28.5924L86.8509 28.6998V28.8072L86.9583 29.4513L87.0298 29.5944V29.8092L86.994 29.9523V30.0239H86.9583L86.8867 30.0954L86.8151 30.1312L86.7793 30.167V30.2028L86.6362 30.4175L86.6004 30.4891V31.169L86.5646 31.4195L86.5288 31.4553L86.493 31.6342L86.4215 31.7058V31.7416L86.3857 31.8131L86.1352 32.5646L86.0994 32.7793L86.0636 32.8509L85.992 33.1372V33.4592L86.0636 33.6024L86.171 33.7097V33.7455L86.2425 33.8171V33.8529H86.2783L86.6362 34.0318V34.0676L86.7077 34.1392V34.2465L86.672 34.6044V34.6759L86.6004 34.7475L86.5288 34.7833L86.4573 34.8907L86.3857 34.9264L86.3499 34.998L86.2425 35.1054V35.3917L86.2783 35.4632L86.3499 35.5348V35.5706L86.3857 35.6422V35.7495L86.4573 35.9284V35.9642L86.493 36.0358V36.2863L86.6004 36.3936H86.672L86.7793 36.501L86.7435 36.6084V36.6799L86.672 36.7515H86.6362L86.6004 36.7873V36.9304L86.672 37.0736V37.1809L86.6362 37.2167L86.6004 37.2883L86.5288 37.3241L86.4573 37.3956V37.7535L86.5288 38.9702L86.6362 39.1849L86.7793 39.2923L86.8151 39.328L86.9225 39.6143V39.7575L86.8867 39.8648V39.9006L87.0298 40.9026V40.9384L86.994 40.9742V41.0099L86.9583 41.0457H86.8867L86.8509 41.1173V41.4394L86.8151 41.5825V41.6899L86.7435 41.8688L86.7077 41.9046V42.0119L86.7435 42.1909V42.2624L86.7077 42.2982V42.334L86.672 42.2982H86.6362L86.6004 42.2624H86.5646L86.5288 42.2982V42.3698L86.6004 42.5129L86.7077 42.6203L86.8509 42.6919H86.8867V42.7276L86.9225 42.9423V42.9781L86.994 43.1213L87.0298 43.1571V43.2286L87.0656 43.3718V43.4791L87.0298 43.5865V43.6223L87.1014 43.7654V43.8728L87.1372 43.9086V43.9443H87.2087L87.2803 43.9086H87.3877V43.9443L87.3519 43.9801V44.0517L87.4593 44.159L87.674 44.2306L87.9245 44.1948L88.0318 44.2664L88.0676 44.338V44.5169L87.9602 45.1253L87.9245 45.161L87.8529 45.2684L87.8171 45.34L87.7813 45.3758L87.495 45.5547L87.4235 45.5905V45.6262L87.3877 45.662L87.495 45.7694V45.8052L87.5308 45.841V45.8767L87.4235 45.9841L87.3161 46.0199L87.2445 46.0915H87.2087V46.163L87.2445 46.1988L87.3161 46.4135V46.5209L87.2803 46.8429V47.1292L87.3519 47.2724V47.4155L87.3161 47.5229L87.1372 47.9881L86.994 48.2028L86.8867 48.3459L86.7793 48.4533L86.672 48.5964V48.6322L86.6362 48.7038L86.6004 48.9543V48.9901L86.5288 49.1332L86.4215 49.2406L86.3499 49.3479L86.2783 49.4195L86.2068 49.5268L86.171 49.5626L86.0636 49.6342L86.0278 49.67H85.992L85.8847 49.8489L85.8489 49.9205L85.7773 50.4215L85.6342 50.8867L85.5984 50.9583L85.5268 51.0298L85.4911 51.1014L85.3479 51.173L85.3121 51.2088H85.2763L85.2048 51.2445L85.0616 51.2803L85.0259 51.3161L84.9901 51.3877L85.0259 51.4593L85.0616 51.6024V51.6382L85.0974 51.674L85.0616 52.1392L85.0974 52.2107V52.3539L85.169 52.497V52.676L85.1332 52.998L85.0259 53.2843V53.5348L85.0616 53.6421V53.9642L85.0974 54.0358V54.0716L85.169 54.1432V54.3936L85.1332 54.4294V54.4652L85.0974 54.501L84.9901 54.5368L84.7396 54.6084H84.6322L84.5964 54.5726L84.5606 54.6084V54.7515L84.5964 54.8231V54.9304L84.2744 55.5746L84.167 55.9682V56.2903L84.1312 56.3976L84.0596 56.5408L84.0239 56.7197V56.7913L83.9881 56.8986L83.9523 56.9344L84.0239 57.0775L84.0596 57.1849V57.2923L84.0954 57.328L84.2028 57.7575V57.8648L84.0954 58.0795L84.0596 58.1869V58.2942L84.0239 58.33L83.9881 58.4374L83.9165 58.6163V58.6879L83.8807 58.7952L83.7018 58.9384L83.6302 59.0099V59.2247L83.4871 59.5467L83.4155 59.7256L83.4513 60.0835L83.4155 60.2267L83.2008 60.3698L83.165 60.9066L83.0934 60.9424L82.9145 61.0497L82.8429 61.0855V61.1571L82.7714 61.3718L82.7356 61.4076V61.4433L82.6998 61.5149L82.5567 61.6223L82.3062 61.7296L82.0557 61.8728L81.9483 61.9443L81.7694 61.9801L81.5905 61.9086L81.5547 61.7654L81.5189 61.5865L81.4115 61.4433L81.161 61.6581L81.0537 61.7296H80.839L80.6958 61.7654L80.5885 61.8728L80.3738 62.1233L80.1948 62.2306L79.8728 62.338L79.7296 62.4811L79.4076 62.9821L79.2644 63.0537L79.1571 63.0895L79.0139 63.161L78.9066 63.3042L78.835 63.3758L78.7634 63.5547V63.662L78.7992 63.8052L78.835 63.9841L78.7634 64.0557L78.6203 64.1272V64.1988L78.5845 64.2704L78.5487 64.3777V64.5567L78.6203 64.7356V64.8429L78.5845 64.9145L78.4771 65.0934L78.4414 65.165L78.3698 65.5587L78.334 65.7018L78.1909 65.8807L78.0477 66.167L77.9046 66.2386L77.7256 66.1312L77.6899 66.2386L77.7614 66.4175L77.833 66.6322V66.8111L77.7614 66.9901L77.6541 67.169L77.4036 67.7058L77.1173 68.0636L77.0457 68.3141L76.9742 68.4215L76.831 68.493H76.7237L76.6163 68.4573L76.5089 68.3857H76.2942V68.493L76.2585 68.5646L75.9722 68.8509L75.7932 68.9583L75.6143 68.994L74.7913 69.0656L74.3976 69.1372L74.2187 69.2087L74.1471 69.2445L74.0755 69.3161L73.9682 69.5308L73.6103 69.9245L73.4314 70.3539L73.3956 70.4255H73.2525L73.1809 70.4612L72.9662 70.6044L72.6441 70.7117L72.5368 70.8191L72.501 70.9265L72.3936 70.998L71.9642 71.1769L71.8927 71.2485L71.8211 71.2843L71.7853 71.3559V71.4274L71.8211 71.7853V71.8569L71.7853 71.8926V71.9642L71.7137 72L71.6422 72.0716L71.5348 72.1074L71.1054 72.2147L70.9264 72.2863L70.7833 72.3936L70.7475 72.4294L70.7117 72.501L70.6759 72.6084L70.6402 72.8231V73.0736L70.6759 73.1809L70.7117 73.2525L70.7833 73.3241L70.998 73.4314L71.0338 73.4672L71.1769 73.5388L71.1054 73.8608L71.0696 74.2187L71.0338 74.3976L70.9622 74.505L70.7475 74.6481L70.6044 74.7555L70.5328 74.8986L70.497 75.0418L70.4612 75.2565L70.3897 75.3996L70.2465 75.5427L69.9245 75.829L69.6382 76.1869L69.495 76.2585L69.3519 76.3658L69.2803 76.4016L68.9583 76.509L68.4215 76.7952L68.2068 76.9384L67.9921 77.1889L68.0278 77.332L67.9205 77.8688L67.8131 78.0477V78.2266L67.8489 78.3698L67.8847 78.4414L67.8489 78.5845L67.7416 78.7634L67.67 78.9066L67.5626 78.9424L67.4911 79.0139L67.2048 79.4791L67.0616 79.6223L66.9901 79.837L66.9185 79.9801L66.8827 80.159L66.5606 80.4811L66.5249 80.6243L66.5606 81.0179L66.5964 81.1253V81.1968L66.6322 81.3042L66.5964 81.3757L66.5249 81.4473L66.4891 81.5189L66.4533 81.662L66.3817 82.0199L66.3459 82.342L66.3817 82.4493L66.2744 82.5567L66.2028 82.9503V83.4513L66.3101 83.7018L66.7038 84.4533L66.9543 84.7396L66.9901 84.8111L67.0258 84.9185L67.0974 85.169L67.2763 85.7058L67.5626 86.3857L67.7058 86.7078L67.5984 86.7793L66.9543 86.8509L66.6322 86.7793L66.4533 86.7078L65.8449 86.5646H65.7018L64.9503 86.6004L64.8072 86.5646L64.6998 86.672L64.4851 86.7078L64.2346 86.672L63.5547 86.5288H63.34L62.3738 86.6362L62.0517 86.6004L61.2644 86.1352L60.6918 85.9921L60.4056 86.0278L60.334 85.9205L60.2982 85.8489V85.7773L60.334 85.7058L60.4056 85.5269L60.4771 85.3837L60.7634 85.0974L60.7992 85.0259L60.9066 84.7754L61.0855 84.5606L61.1213 84.4533L61.1571 84.2028L61.1928 84.1312L61.336 83.9881L61.4076 83.9523L61.7296 83.8449L62.0517 83.7734L62.1233 83.7376L62.1948 83.5944L62.338 82.7714L62.4095 82.5209L62.4453 82.4493L62.4811 81.8768L62.7316 80.839V80.4096L62.66 80.338L62.2306 80.3738L62.0159 80.5169L61.6223 80.8032L61.4791 81.0179L61.4433 81.0895L61.336 81.2684L60.6203 82.0915L60.3698 82.2704L59.9046 82.5209L59.833 82.5925L59.7614 82.6998L59.7257 82.7714L59.6541 82.9861L59.5467 83.1292L59.332 83.3797L59.1889 83.4513L59.0815 83.4871L58.9026 83.4513H58.7237L58.3658 83.5587L57.6859 83.8449L57.5427 83.9165H57.4354L57.1849 83.8807L57.0418 83.8091L57.006 83.7376V83.5587L56.9702 83.4871V83.2366L56.8986 83.0934L56.827 83.0577L56.3976 82.7714L56.2187 82.6282L56.0398 82.5567L55.8966 82.4851H55.4314L54.7157 82.5567L54.2505 82.7356L54.0358 82.8787L54 82.9503L53.9284 83.1292L53.7853 83.2724L53.1054 83.666L52.8907 83.7376L52.6402 83.7018L52.497 83.7376L51.7097 83.9165H51.3877L50.8867 83.9523L50.0278 83.4871L49.8489 83.3439L49.6342 83.1292L49.3121 83.0219L49.2406 82.9861L49.1332 82.9145L48.7754 82.8072L48.2744 82.5925L48.0596 82.4493L47.9881 82.3062L47.7376 82.0199L47.7018 81.9841V81.9125L47.666 81.7694L47.5944 81.662L47.4871 81.5547L47.3082 81.4473L47.165 81.3757L46.9503 81.34L46.6998 81.2684L46.5209 81.3042L46.0915 81.1968L45.8767 81.0895L45.7694 80.9463L45.6978 80.8748L45.5905 80.8032L45.34 80.7674L45.1253 80.6243L44.5169 80.4811L44.4453 80.4453L44.4095 80.4096L44.3738 80.338L44.338 80.3022L44.3022 80.2306L44.2664 80.1233L44.0517 79.9086L43.9086 79.8728L43.5865 79.837H43.336L43.1928 79.9086L42.7634 79.9801L42.5845 80.0159L42.4414 80.0875L42.3698 80.159L42.2982 80.1948L42.0477 80.5169L41.9762 80.5527L41.9046 80.6243L41.7972 80.66L41.6899 80.6243L41.6183 80.5885L41.5467 80.6243L41.3678 80.7674L41.2247 80.8748L41.0815 80.9105H40.831L40.5447 80.8032H40.4016L40.33 80.839L40.2227 80.8748L39.1133 80.9463L38.4692 80.9105H38.3976L38.1829 81.1253V81.1968L38.1471 81.2684V81.34L38.1113 81.3757V81.4115L38.0398 81.4473L37.8608 81.5189L37.7893 81.5547H37.7535V81.5905L37.7177 81.662V81.9841L37.6819 82.2346V82.2704L37.4672 82.4851L37.3598 82.664L37.3241 82.6998L37.2525 82.7356L37.1451 82.8072H37.1093L37.0378 82.9145L36.9304 82.9861L36.7157 83.0577V83.0934L36.6441 83.165V83.2366L36.6799 83.5587V83.7018L36.6441 83.7376L35.8211 84.5964L35.7137 84.668L35.4274 84.8111L34.8907 84.8827L34.7117 84.9543L34.4612 85.0974L33.173 85.4553L33.1014 85.4911H33.0656L33.0298 85.5269V85.5626L32.7793 86.0636V86.0994L32.7435 86.1352L32.7078 86.0994V85.9563L32.7435 85.8489L32.7793 85.8131V85.7416L32.7435 85.7058V85.67L32.6004 85.5269V85.4911L32.5646 85.4553H32.5288L32.3499 85.4195H32.3141L32.171 85.2764L32.0994 85.2406H32.0636L31.9563 85.169L31.9205 85.1332L31.7773 85.0974H31.7416L31.7058 85.0616V85.0259L31.67 84.9901V84.7396L31.6342 84.6322L31.4553 84.4175H31.0616L30.8469 84.3459L30.7396 84.3817L30.6322 84.3459L30.5249 84.2744L30.4175 84.167L30.3459 84.0596L30.2744 83.9165L30.2386 83.7376V82.8787L30.1312 82.6998L30.0239 82.5925L29.8807 82.5209L29.7376 82.4851L29.5586 82.5209L29.3082 82.5925L29.0219 82.5567L28.7356 82.4851L28.4851 82.4135L28.163 82.1272L28.0557 82.0557L27.7694 81.9483L27.6978 81.8768L27.4831 81.6263L27.3757 81.5547H27.2684L27.1968 81.5189H27.0895L26.9463 81.4115L26.839 81.1253L26.7316 81.0179L26.66 80.9821L26.5527 80.9463H26.4811L26.4095 80.8748L26.2664 80.7674L26.1948 80.7316L26.0875 80.6958L25.837 80.66L25.5507 80.4811L25.4076 80.2664L25.3718 79.9443V79.1929L25.336 79.0139L25.2286 78.8708L25.1929 78.7276L25.1571 78.1551L25.0855 78.0119L24.9781 77.7614L24.8708 77.3678V77.2604L24.9781 77.0457V76.6521L24.7992 76.0437L24.7634 75.6859L24.835 75.3996L24.9781 75.1491L25.7654 74.2187L25.8728 73.9324L25.6938 73.6461V73.503L25.9086 73.3241V73.2167L25.8728 72.4294L25.8012 72.3579L25.4791 72.3221L25.4076 72.3579L25.3002 72.5726L25.2286 72.6441L25.0855 72.7515H24.334L22.831 72.6799L21.328 72.6441L19.7893 72.5726L18.2863 72.5368L15.2803 72.3936L13.7773 72.3579L12.2744 72.2863H11.7376L11.4871 72.2147L11.3082 71.8569L11.2724 70.9265L11.2008 70.0318L11.0934 68.8151L10.9861 67.169L10.8787 65.9523L10.8072 65.7376L10.6998 65.5587L9.94832 64.6998L9.12525 63.662L8.55269 62.9821L8.15905 62.6243H9.66203L10.5567 62.5885L10.6282 62.5169L10.5924 61.9801L10.5209 60.6203L10.4851 59.9762L10.4493 59.2962V58.7952L10.342 58.6163L9.94832 58.33L9.84095 58.0795L10.0557 58.008L10.0199 57.6501L9.76939 57.0775L9.66203 56.5765L9.59046 56.4334L9.16104 56.0756L9.08947 55.9324L9.05368 55.6819L9.08947 55.4672V55.2525L8.98211 55.0736L8.94632 54.9662L9.0179 54.6084L9.05368 54.501L9.08947 54.4652L9.30417 54.3936L9.44732 54.2863L9.51889 54.1074L9.62625 53.7137L9.66203 53.5706L9.69781 53.499L9.66203 53.4274H9.62625L9.55468 53.3917L9.4831 53.3201L9.51889 53.2485V53.1769L9.33996 53.0338L9.2684 52.998L9.19682 52.8191L9.12525 52.6044L9.08947 52.3539L9.05368 52.1392L9.0179 51.996L8.87476 51.9245L8.2664 51.7813L8.19484 51.7455L8.15905 51.7097L8.12326 51.6024L8.05169 51.5308L7.87276 51.495L7.58649 51.3519L7.01392 50.8867L7.22863 50.6362L7.51491 50.3857L8.91055 49.4553L9.51889 49.1332L9.62625 49.0258L9.69781 48.9185L9.76939 48.7754L9.80518 48.6322L9.91253 47.8807L9.9841 47.7376L10.0557 47.5229L10.5567 46.6282L10.6282 46.4851V46.3777L10.5924 46.163V46.0557L10.6282 45.9483L10.7356 45.841L11.0219 45.5189L11.1292 45.3758L11.2008 45.2684L11.3439 45.161L11.5587 45.0895L11.9165 45.0179L11.9881 44.9821L12.0954 44.9463L12.167 44.839L12.4175 44.4811L12.4533 44.3738L12.5249 44.2306L12.5606 44.0159L12.6322 43.6581L12.7396 43.3002L12.7754 43.2286L12.8111 43.1213L13.4553 42.4056L13.992 41.0099L14.1352 40.7237L14.171 40.6163L14.0278 40.33L13.8489 40.0437L13.67 39.6501L13.6342 39.507V38.3618L13.5626 38.2187L13.2763 37.8251L13.2048 37.503L13.0259 37.1451L12.8827 36.7157L12.8111 36.6441L12.7396 36.6084H12.668L12.5964 36.6441L12.4533 36.6799H12.3459L12.2744 36.6441L12.2028 36.5368L12.1312 36.3936L12.0954 36.2147L12.0596 36.1074V35.7495L11.9523 35.4274V35.3559L11.9165 34.6402V34.2823L11.9523 34.175L11.9881 34.1034L12.0596 34.0318L12.5606 33.6382L12.6322 33.5666L12.7754 33.3877L12.8469 33.2803L12.8827 33.2088L12.9543 33.0298L13.0259 32.9225L13.0616 32.8509L13.169 32.7793L13.2406 32.7435L13.3837 32.6004L13.4195 32.5288L13.4553 32.4215L13.4195 32.2425L13.0974 31.5626L12.9901 31.3479L12.9543 31.169V31.0616L12.9185 30.9185L12.8111 30.5964L12.7396 30.4891L12.4175 30.3817L12.2744 30.2744L12.2028 30.2386H12.0954L12.0239 30.2744H11.9523L11.666 30.2028H11.5229L11.4155 30.2386L11.3439 30.2744H11.2366L10.9145 30.2028L10.8072 30.167L10.5567 29.9881L10.4493 29.9523H10.3062L10.2346 29.9881L9.9841 30.167L9.91253 30.2028H9.80518L9.7336 30.167L9.33996 29.7734L9.2684 29.666V29.5587L9.30417 29.4513V29.4155L9.2684 29.3439L1.10935 29.3082L0.787281 29.2366L0.715706 29.0577V28.9503L0.823068 28.342V28.0915L0.751493 27.7694L0.715706 27.6262L0.751493 27.5547L0.823068 27.5189H0.93042L0.966207 27.5547L1.03778 27.4831L1.10935 27.3757L1.14513 27.1968V27.0895L1.10935 26.9821L0.966207 26.9105H0.93042L0.894632 26.8748L0.858856 26.8032L0.894632 26.5527L0.93042 26.2664L1.00199 25.837L1.03778 25.3002L1.10935 24.9424V24.6919L1.03778 24.5487L1.00199 24.4414L0.715706 24.1551L0.39364 23.3678L0.357853 23.2962V23.1531L0.429428 22.8668V22.7594L0.39364 22.6521L0.322076 22.5805L0.286289 22.4732L0.250501 22.33V22.0795L0.286289 21.9006L0.322076 21.7575L0.429428 21.5785L0.608354 21.2565L0.644142 21.1849V21.0775L0.608354 20.8986V20.6123L0.715706 20.3618V20.1829L0.608354 19.8608V19.7535L0.572567 19.4672L0.536779 19.3241L0.465215 19.2167L0.429428 19.1451L0.357853 19.0736L0.39364 19.0378L0.465215 19.002L0.644142 18.9662L0.715706 18.9304L0.751493 18.8589L0.858856 18.6084L0.894632 18.5368L0.93042 18.501L1.00199 18.4652L1.03778 18.3936V18.2863L0.93042 18.1789L0.858856 18.0716L0.823068 17.9642L0.751493 17.8569L0.715706 17.7853L0.465215 16.9622L0.501003 16.6402V16.5328L0.465215 16.3539L0.39364 16.2465L0.322076 16.2107L0.14315 16.1034L0.0357875 16.0318L0 15.9245V15.8171L0.0357875 15.7097L0.14315 15.495L0.107362 15.3877V15.2803L0.14315 15.2087L0.214714 15.1372H0.501003L0.644142 15.0656V14.8509L0.429428 14.3141V13.9205L0.644142 13.2406L1.00199 12.5606V12.4175L0.966207 12.3101L0.823068 12.0239L0.250501 11.5944L0 11.4155L24.2624 11.2366L24.6203 11.0219L24.7634 10.8787L24.835 10.7714L24.9781 10.2346L25.0497 10.0199L25.2286 9.7336L25.2644 9.66203V9.51889L25.1929 9.37575L25.1571 9.26839L25.0855 8.73161V8.62426L25.1571 8.48112L25.3718 8.30219L25.4433 8.23062L25.5507 8.0159L25.6223 7.69384L25.6581 7.62227L25.7654 7.47912L25.8728 7.3002L25.9086 7.22863V7.15706L25.8728 7.08549V6.90657L26.1233 6.19086L26.159 6.0835V5.90457L26.0159 5.29623L25.8728 4.90259L25.6581 4.50895L25.6223 4.43737L25.5865 4.29423L25.5507 4.11531V3.90059L25.5865 3.79324L25.6581 3.6501L25.7654 3.50696L25.9086 3.36382L26.159 3.18489L26.2306 3.11332L26.4095 2.6839L26.7674 2.32604L26.8032 2.25448L26.9105 2.00398L26.9463 1.89663V1.75348L26.9105 1.64613L26.7674 1.35985V1.25249L26.8032 1.10935V0.858845L26.8748 0.715706V0.679918L26.9105 0.608354L27.1253 0.429428L27.1968 0.357853L27.3757 0.143139L27.4831 0L28.0915 0.572567L28.7356 1.50299L28.8787 1.86084L28.9861 2.21869L29.1292 2.43341L29.2724 2.57655L29.4155 2.79126L29.5229 3.43539L29.666 3.79324L29.8449 4.18688L29.8807 4.29423L29.9165 4.54474L29.9523 4.72366L30.0239 4.90259L30.1312 5.1173L30.167 5.36779L30.2028 5.47516L30.2386 5.54672L30.3101 5.6183L30.668 6.01194L30.7396 6.11929L30.8827 6.40556L30.9543 6.51293L31.3121 6.83499L31.3837 6.97813L31.4195 7.08549L31.3121 7.33598V7.58649L31.2048 7.8012V7.87276L31.169 8.05169L31.2048 8.40954V8.48112L31.169 8.58847L31.0974 8.73161V8.83897L31.1332 8.91053L31.2764 9.12525L31.3121 9.19682L31.3479 9.23261V9.33996L31.3121 9.41154L31.3479 9.4831L31.4195 9.7336V9.80517L31.3837 9.98409V10.0915L31.4195 10.163L31.5626 10.3062L31.6342 10.4135L31.67 10.4851L31.7416 10.664L31.7773 10.8429V11.1292L31.8131 11.2008L31.8847 11.3082L32.4215 11.4513L32.5288 11.5229L32.672 11.5944L32.9583 11.8807L33.1014 11.9881L33.4592 12.2028L33.5308 12.2386L33.5666 12.3101L33.6024 12.4891L33.6382 12.5606L34.0318 12.8827L34.1392 12.9185L34.7117 13.169L34.8907 13.2763L34.998 13.3479L35.0696 13.4195L35.6779 13.67L35.7495 13.7058L35.7853 13.7773L35.8569 13.8847L35.8927 14.2426V14.8509L35.9284 14.9225L36 15.0298L36.1074 15.1014L36.3579 15.2087L36.4652 15.2445L36.6799 15.173H36.8946L37.0736 15.2087L37.6461 15.3877L37.7893 15.4592L37.8608 15.5308L37.8966 15.6024L37.9682 15.674L38.004 15.7813V16.0318L38.0756 16.2823L38.1113 16.3539L38.1829 16.4254L38.2903 16.4612L38.4692 16.4254L38.5765 16.3897L38.7555 16.3181L38.8628 16.2823H39.0418L39.1133 16.3181L39.2207 16.3897L39.2923 16.4254L39.6859 16.5328L39.7932 16.6044L40.0437 16.7833L40.5089 17.0338L40.6879 17.0696L40.7595 16.998L51.5666 17.7853L81.5905 19.5746L82.5925 19.6461L90 20.0398Z" fill="#82BF02"/>
</svg>
