<svg id="visual" viewBox="0 0 900 600" width="900" height="600" xmlns="http://www.w3.org/2000/svg" xmlns:xlink="http://www.w3.org/1999/xlink" version="1.1"><rect x="0" y="0" width="900" height="600" fill="#fefefe"></rect><path d="M0 524L21.5 514.3C43 504.7 86 485.3 128.8 485C171.7 484.7 214.3 503.3 257.2 509.2C300 515 343 508 385.8 493.8C428.7 479.7 471.3 458.3 514.2 451.5C557 444.7 600 452.3 642.8 464.8C685.7 477.3 728.3 494.7 771.2 489.8C814 485 857 458 878.5 444.5L900 431L900 601L878.5 601C857 601 814 601 771.2 601C728.3 601 685.7 601 642.8 601C600 601 557 601 514.2 601C471.3 601 428.7 601 385.8 601C343 601 300 601 257.2 601C214.3 601 171.7 601 128.8 601C86 601 43 601 21.5 601L0 601Z" fill="#192916" stroke-linecap="round" stroke-linejoin="miter"></path></svg>